<?xml version="1.0" encoding="utf-8" ?>
<svg baseProfile="full" height="75.37821136415005" version="1.1" width="92.1170325577259" xmlns="http://www.w3.org/2000/svg" xmlns:ev="http://www.w3.org/2001/xml-events" xmlns:xlink="http://www.w3.org/1999/xlink"><defs /><path d="M33.909371979534626,30.66960085183382 m0.5399619787931442,-1.0799239575862885 l1.3499048352241516,-1.0799239575862885 1.8898668885231018,-0.8099429309368134 l1.0799239575862885,1.3499048352241516 2.42982879281044,1.3499048352241516 l1.6198858618736267,0.0 2.159847915172577,-1.0799239575862885 l3.5097527503967285,-0.8099429309368134 2.159847915172577,0.0 l1.3499048352241516,1.0799239575862885 0.8099429309368134,1.3499048352241516 l1.8898668885231018,-1.0799239575862885 4.85965758562088,0.0 l2.9697906970977783,1.6198858618736267 0.2699809893965721,1.6198858618736267 l3.7797337770462036,4.319695830345154 0.5399619787931442,1.8898668885231018 l-3.7797337770462036,1.0799239575862885 -2.42982879281044,4.049714803695679 l0.0,1.0799239575862885 -6.479543447494507,1.6198858618736267 l-7.019505500793457,0.5399619787931442 1.3499048352241516,-1.0799239575862885 l-4.589676558971405,0.0 -2.159847915172577,-0.5399619787931442 l-2.9697906970977783,-1.3499048352241516 -1.6198858618736267,-1.3499048352241516 l-0.8099429309368134,-1.3499048352241516 2.9697906970977783,-2.42982879281044 l-0.2699809893965721,-0.8099429309368134 -5.3996193408966064,-2.6998096704483032 l-0.8099429309368134,-1.0799239575862885 0.0,-4.319695830345154 l0.5399619787931442,-0.5399619787931442 -1.6198858618736267,-1.0799239575862885 l-1.6198858618736267,-0.5399619787931442 -3.5097527503967285,0.2699809893965721 l-1.6198858618736267,1.8898668885231018 -0.2699809893965721,1.0799239575862885 l0.0,2.6998096704483032 0.5399619787931442,1.3499048352241516 l6.209562420845032,0.0 2.159847915172577,-0.5399619787931442 m-6.479543447494507,-8.099429607391357 l1.3499048352241516,-0.5399619787931442 1.0799239575862885,-1.6198858618736267 l0.5399619787931442,0.5399619787931442 0.0,2.9697906970977783 m-2.159847915172577,-1.8898668885231018 l0.0,1.6198858618736267 m-0.8099429309368134,2.42982879281044 l0.2699809893965721,0.8099429309368134 m12.959086894989014,14.308991432189941 l0.0,3.5097527503967285 m4.049714803695679,-2.42982879281044 l-0.5399619787931442,2.42982879281044 m9.17935311794281,-1.8898668885231018 l0.0,2.9697906970977783 m2.6998096704483032,-3.2397717237472534 l0.0,2.42982879281044 " fill="none" stroke="black" stroke-width="1" /></svg>