<?xml version="1.0" encoding="utf-8" ?>
<svg baseProfile="full" height="104.10772860658653" version="1.1" width="81.40575936963614" xmlns="http://www.w3.org/2000/svg" xmlns:ev="http://www.w3.org/2001/xml-events" xmlns:xlink="http://www.w3.org/1999/xlink"><defs /><rect fill="white" height="104.10772860658653" width="81.40575936963614" x="0" y="0" /><path d="M31.403643314642977,29.45267515257001 m0.29887694865465164,-2.1095015108585358 l2.129725068807602,-1.3762924075126648 0.6672869622707367,-0.4695795476436615 l0.7587514072656631,-0.4917709156870842 1.1285413056612015,-0.005530770868062973 l0.6552658230066299,1.0510759055614471 0.9033200144767761,2.825571596622467 l0.5615910515189171,2.7571719884872437 0.00011874349183926824,3.265966475009918 l-0.26761602610349655,1.9274814426898956 0.49002688378095627,-0.5340446904301643 l1.5814007818698883,-3.254351317882538 3.3803677558898926,-4.528282284736633 l2.6477059721946716,-2.0097601413726807 2.2928228974342346,-0.9366901218891144 l3.833174407482147,-0.0028993640444241464 1.4522790908813477,0.5825575068593025 l1.4442363381385803,1.7269010841846466 1.0439690202474594,2.770719826221466 l0.0002716080234677065,4.665173888206482 -0.7344894111156464,3.082832992076874 l-1.384284347295761,3.378201425075531 -1.8051226437091827,2.5059357285499573 l-2.4071718752384186,2.0116665959358215 -3.154803216457367,1.5404804050922394 l-3.475382924079895,0.8146017044782639 -4.768863618373871,0.0017986672173719853 l-2.3124252259731293,-0.8403908461332321 -2.6014599204063416,-1.8512719869613647 l-1.7576374113559723,-1.8687419593334198 -1.5975061058998108,-2.6651370525360107 l-0.979892760515213,-3.1070247292518616 0.0001392760987073416,-3.692840039730072 l0.855247750878334,-2.389684021472931 1.6434293985366821,-2.2537580132484436 l1.5997989475727081,-1.338394284248352 1.0276901721954346,-0.38834914565086365 m2.02778697013855,5.22439181804657 l-1.1349958926439285,-0.05282357335090637 -1.6273978352546692,1.3554634153842926 l-0.4758959636092186,1.0702583938837051 0.00024648148610140197,2.774815261363983 l0.9720273315906525,0.9543212503194809 1.1094430088996887,0.2914663404226303 l2.1396878361701965,5.0516255214461125e-05 0.9565342962741852,-0.9055481851100922 l0.43254703283309937,-1.0956649482250214 0.00032787356758490205,-2.4183472990989685 l-0.838313102722168,-0.9782717376947403 -1.4848700165748596,-0.4758251830935478 l-1.4208973944187164,-0.00034502714697737247 m13.26088547706604,-0.13038776814937592 l-1.8296922743320465,0.1269274763762951 -0.7492326945066452,1.0394854098558426 l-0.3706492856144905,1.0684489458799362 0.0002965080420835875,2.3060831427574158 l1.0590513050556183,0.7361973822116852 1.079726219177246,0.16441585496068 l1.7883634567260742,-0.00081545629655011 0.8810314536094666,-0.9872401505708694 l0.31804628670215607,-1.088688001036644 0.00025368934075231664,-2.0043905079364777 l-0.9610836952924728,-0.8777644485235214 -1.584586501121521,-0.0003865691178361885 l-1.8275772035121918,0.0006074499106034636 m-14.763758182525635,5.130152106285095 l-0.9494751691818237,1.4185109734535217 -1.8366813659667969,3.8430255651474 l-1.0085386037826538,3.52640837430954 -0.760175809264183,5.886349081993103 l0.00027914202291867696,7.817445993423462 0.42265255004167557,2.6754552125930786 l1.22869074344635,3.751772940158844 1.7643961310386658,3.532426655292511 l2.1205775439739227,2.775355577468872 2.57448673248291,2.215093672275543 l3.046244978904724,1.4959390461444855 3.2983505725860596,0.69684237241745 l3.770010471343994,-0.000286289541691076 2.515641748905182,-1.426844298839569 l1.9897618889808655,-1.7921727895736694 1.6127736866474152,-2.1027107536792755 l1.270308792591095,-2.3776179552078247 1.464793086051941,-4.136298894882202 l0.9607697278261185,-5.066024661064148 0.0005116111788083799,-8.705041408538818 l-0.35445820540189743,-2.2535526752471924 -1.6479235887527466,-4.8127105832099915 l-0.9339147061109543,-2.5029680132865906 -0.9557663649320602,-1.6063928604125977 m-20.223891735076904,1.273566335439682 l-2.0540595054626465,2.100585699081421 -1.1832477897405624,1.8583613634109497 l-1.9852884113788605,4.911958277225494 -0.6571587920188904,2.655717134475708 l0.000249643071583705,5.827112793922424 0.39755653589963913,2.462385594844818 l1.1903538554906845,3.094959259033203 1.7252589762210846,2.7092036604881287 l2.0380790531635284,1.976192444562912 2.450754791498184,1.3793247938156128 l1.3824425637722015,-0.00024139366360032 0.8839202672243118,-1.7458625137805939 l0.677638053894043,-2.9187485575675964 0.00026909832740784623,-6.0150086879730225 l-0.4889696091413498,-3.8462549448013306 0.00019453393178991973,-5.502244234085083 l-0.06600971799343824,-3.38893860578537 0.00027023670554626733,-3.6138272285461426 l0.03246234031394124,-1.7690886557102203 0.011821780353784561,-1.2246961891651154 l0.08360235951840878,-0.6757190078496933 m13.752952814102173,0.5336885899305344 l0.3528529778122902,1.8944641947746277 0.0002862953442672733,7.157854437828064 l0.35432983189821243,10.61272382736206 -0.08086800575256348,4.532313048839569 l0.38326483219861984,3.4072941541671753 0.7919510453939438,1.41157865524292 l0.9249110519886017,0.7202974706888199 2.316419631242752,-0.00016699774278094992 l0.8863130211830139,-1.092575117945671 0.7474824786186218,-1.785506010055542 l0.5059313774108887,-2.3677173256874084 0.0003089013262069784,-7.016859650611877 l-1.4961493015289307,-8.596633076667786 -1.0393454134464264,-3.7067916989326477 l-1.450965404510498,-4.552517533302307 -0.7719103991985321,-1.6603381931781769 l-0.7811214774847031,-0.8143860846757889 " fill="none" stroke="black" stroke-width="1" /></svg>