<?xml version="1.0" encoding="utf-8" ?>
<svg baseProfile="full" height="112.80825830682716" version="1.1" width="93.119349302724" xmlns="http://www.w3.org/2000/svg" xmlns:ev="http://www.w3.org/2001/xml-events" xmlns:xlink="http://www.w3.org/1999/xlink"><defs /><rect fill="white" height="112.80825830682716" width="93.119349302724" x="0" y="0" /><path d="M40.352382652899905,25.03676101565361 m-0.8276986330747604,-0.03676101565361023 l-2.465105652809143,1.3805705308914185 -1.0752521455287933,0.8437172323465347 l-0.9210049360990524,1.3015104830265045 -0.5307189747691154,1.4627675712108612 l-9.638487426855136e-05,1.5075713396072388 0.8806553483009338,1.4149102568626404 l1.2636178731918335,0.7481226325035095 1.621212512254715,0.3159574419260025 l1.849980354309082,-0.11892357841134071 1.595131754875183,-0.7727111130952835 l1.1775092035531998,-1.200622245669365 0.7101793587207794,-1.5299251675605774 l0.2731825225055218,-1.2598209083080292 -0.2487301081418991,-2.087082713842392 l-0.5308764800429344,-0.7945659756660461 -0.8557850122451782,-0.6466494500637054 l-1.5082696080207825,-0.35745996981859207 -0.732964351773262,0.14696416445076466 m-5.221869945526123,4.532609283924103 l-3.2325857877731323,0.9831301122903824 -2.633090913295746,1.4313514530658722 l-1.687173992395401,1.3101379573345184 -1.1210746318101883,1.3121475279331207 l-0.6799657642841339,1.3291090726852417 -0.4515882581472397,2.2413605451583862 l0.07988086901605129,1.632641851902008 0.5625231564044952,1.0766134411096573 l0.9223978966474533,0.5373038351535797 1.351344883441925,0.02779578324407339 l1.854439228773117,-1.8204492330551147 1.935492753982544,-1.8598073720932007 l1.6840860247612,-1.0870373994112015 1.690714806318283,-0.6374381482601166 l2.547687292098999,-0.2597135119140148 1.6943982243537903,-2.969951765408041e-05 m2.3292841017246246,-2.894456386566162 l0.500461533665657,3.9822793006896973 0.17478939145803452,7.370594143867493 l-0.4163413494825363,6.467320919036865 0.17750021070241928,3.5753291845321655 l0.6890317052602768,2.7584773302078247 1.0140877962112427,1.9635234773159027 l1.3633380830287933,1.5562786161899567 1.7994487285614014,1.2219177186489105 l2.326834499835968,0.9406857192516327 4.007542431354523,0.7189711183309555 l3.32429438829422,0.09017433971166611 2.7541664242744446,-0.4437658190727234 l2.188669741153717,-0.6827495992183685 1.6877645254135132,-0.8286730200052261 l1.6169653832912445,-1.237267181277275 1.4191694557666779,-1.5830527245998383 l1.0139616578817368,-1.7822526395320892 0.5759706720709801,-1.8681879341602325 l0.24944478645920753,-2.4739432334899902 -0.27807870879769325,-2.526273727416992 l-0.6987050920724869,-1.9253556430339813 -0.9616418182849884,-1.522229164838791 l-1.2025310099124908,-1.195358857512474 -1.3754865527153015,-0.8530940115451813 l-1.6079646348953247,-0.578564926981926 -3.1562116742134094,-0.46928752213716507 l-4.29052472114563,0.018072297098115087 -3.202243149280548,0.46582091599702835 l-2.8250086307525635,0.7501190900802612 -2.2476862370967865,0.9310491383075714 l-1.8245983123779297,1.126922070980072 -1.377236694097519,1.3056229054927826 l-0.9738101065158844,1.4983771741390228 m10.747299194335938,13.367239236831665 l-0.0870162807404995,2.0499861240386963 -0.8019416034221649,8.000625967979431 l-0.13765748590230942,5.069520473480225 -0.34565530717372894,2.465967983007431 l-0.5028440058231354,1.596437394618988 -1.4181581139564514,1.7215855419635773 l-2.48162642121315,1.6424550116062164 1.7264990508556366,-1.0458209365606308 l2.2131726145744324,-1.4142616093158722 0.6042144075036049,1.2101811170578003 l0.29323382303118706,3.163262903690338 0.29715506359934807,-2.3859703540802 l0.47008924186229706,-0.6829438358545303 2.1894896030426025,1.3214415311813354 l1.4632532000541687,0.5617779493331909 0.6570325791835785,-0.7305026054382324 " fill="none" stroke="black" stroke-width="1" /></svg>