<?xml version="1.0" encoding="utf-8" ?>
<svg baseProfile="full" height="81.1317914438041" version="1.1" width="114.87128257751465" xmlns="http://www.w3.org/2000/svg" xmlns:ev="http://www.w3.org/2001/xml-events" xmlns:xlink="http://www.w3.org/1999/xlink"><defs /><rect fill="white" height="81.1317914438041" width="114.87128257751465" x="0" y="0" /><path d="M50.695662798569856,25.747156538940317 m-3.569745421409607,-0.1901480183005333 l-1.3657012581825256,0.7438527047634125 -2.108888626098633,2.2142621874809265 l-1.4058323204517365,2.324836850166321 -1.416786015033722,3.9157411456108093 l-0.7565480470657349,4.5263683795928955 -5.571758947553462e-06,4.220362901687622 l0.2919628471136093,1.6371475160121918 1.1038188636302948,2.7116000652313232 l1.2674562633037567,1.912357658147812 1.4908899366855621,1.5312032401561737 l2.86478191614151,1.882394701242447 2.6981687545776367,1.1265425384044647 l4.357454776763916,0.984155610203743 5.449364185333252,0.44213008135557175 l5.391444563865662,-8.325461749336682e-05 6.129952073097229,-1.4478711783885956 l2.129734754562378,-0.781572014093399 3.3539465069770813,-1.7642253637313843 l2.5384628772735596,-1.886288821697235 2.580578923225403,-2.9023662209510803 l1.905687302350998,-3.5427093505859375 1.167273223400116,-4.033283889293671 l3.0101798529358348e-05,-3.520069420337677 -1.0365704447031021,-2.2699804604053497 l-2.2623826563358307,-2.8869903087615967 -3.5226041078567505,-2.9497551918029785 l-2.3709455132484436,-1.119895651936531 -6.423327922821045,-1.6248585283756256 l-5.659091472625732,-1.4445716942645959e-05 -7.750959396362305,1.5206807851791382 l-3.121967315673828,0.7275951653718948 m2.1089477837085724,10.356125831604004 l-0.3450900688767433,1.1241475492715836 -6.285821200435748e-05,1.3826406002044678 l0.9922242909669876,-0.46313945204019547 -0.23507799953222275,-1.345781832933426 l-0.7219262421131134,0.12924444861710072 m13.70119333267212,-1.133202686905861 l-0.6592229753732681,0.9475941210985184 3.34490846398694e-05,1.0527098923921585 l0.7780997455120087,0.3202865645289421 0.7094626873731613,-0.39844371378421783 l0.10328004136681557,-0.829675942659378 -0.5247784778475761,-0.6224009022116661 l-0.777055099606514,-0.00015455534594366327 m-9.076868295669556,7.0844197273254395 l0.6374185532331467,1.4815208315849304 0.7333245873451233,0.5899940431118011 l0.763578861951828,0.11024089530110359 1.2272125482559204,-0.48201676458120346 l0.5138842016458511,-0.7791757583618164 -0.1261961180716753,-0.8021733164787292 l-0.7286479324102402,-0.5998232588171959 -1.4013603329658508,-0.00015238707419484854 l-0.5895886942744255,0.5175208672881126 m1.2210487574338913,2.043423503637314 l1.7626821318117436e-05,2.015189230442047 -0.5542659386992455,1.9933965802192688 l-1.519320011138916,1.4488476514816284 -1.1580511927604675,0.41470296680927277 l-1.9329430162906647,-0.00022088879632065073 -1.0930059850215912,-0.7128624618053436 l-0.7796632498502731,-0.9750384837388992 m7.857682704925537,-3.744385242462158 l0.84832563996315,2.617732584476471 0.6207998842000961,0.9776042401790619 l1.4451612532138824,1.10684372484684 1.5655744075775146,0.4681212455034256 l1.7113351821899414,-0.00017091286281356588 1.2610627710819244,-0.8332926779985428 l1.233678162097931,-1.7716620862483978 m-0.23127855733036995,-6.420008540153503 l4.482809901237488,-1.3346059620380402 12.265932559967041,-3.7444400787353516 l2.8982821106910706,-0.6003664433956146 m-16.81429147720337,8.458314538002014 l4.394642412662506,-0.08191130124032497 6.6522568464279175,0.4953570291399956 l2.328792065382004,0.44651102274656296 1.2525047361850739,0.49941331148147583 m-13.794814348220825,1.970035433769226 l3.3716008067131042,1.4119556546211243 5.0577312707901,2.1914954483509064 l4.173787236213684,2.0032210648059845 1.1921361088752747,0.9000105410814285 m-40.566773414611816,-11.19049072265625 l-3.2423630356788635,-0.779365748167038 -8.346533179283142,-1.1206241697072983 l-5.997248291969299,0.030811370816081762 -4.532710313796997,0.7924485206604004 m21.06025457382202,3.9890706539154053 l-1.9930103421211243,0.2236609347164631 -7.615613341331482,1.9977682828903198 l-8.319536447525024,3.067110776901245 " fill="none" stroke="black" stroke-width="1" /></svg>