<?xml version="1.0" encoding="utf-8" ?>
<svg baseProfile="full" height="98.45488212080909" version="1.1" width="100.2810003702507" xmlns="http://www.w3.org/2000/svg" xmlns:ev="http://www.w3.org/2001/xml-events" xmlns:xlink="http://www.w3.org/1999/xlink"><defs /><rect fill="white" height="98.45488212080909" width="100.2810003702507" x="0" y="0" /><path d="M54.247790556401014,73.31811824823035 m-5.260331630706787,0.13676387257874012 l-6.690605282783508,-0.2892528288066387 -3.9542096853256226,-0.8792772889137268 l-3.200831115245819,-1.1258719861507416 -2.476162016391754,-1.2791991233825684 l-2.047296315431595,-1.4702002704143524 -1.8085810542106628,-1.7431962490081787 l-1.4648203551769257,-1.9610460102558136 -1.0667891800403595,-2.0895013213157654 l-0.7325591892004013,-2.2724658250808716 -0.41854944080114365,-2.3911021649837494 l-0.12705529108643532,-2.3500242829322815 0.1600196398794651,-2.3094187676906586 l0.5363675206899643,-2.3040851950645447 0.9052509069442749,-2.271665334701538 l1.2724801898002625,-2.2062592208385468 2.560529112815857,-3.1982630491256714 l3.502170145511627,-3.078491687774658 3.8840487599372864,-2.4504590034484863 l4.501952528953552,-1.892099380493164 3.3364996314048767,-0.8907385915517807 l4.569657146930695,-0.4545336589217186 3.5547006130218506,5.095241704111686e-05 l2.6120615005493164,0.47404613345861435 3.4077104926109314,1.4049655199050903 l2.1819551289081573,1.4491592347621918 1.679813414812088,1.6173769533634186 l1.2967944145202637,1.8459418416023254 1.506315916776657,3.4638017416000366 l0.966399759054184,4.3798622488975525 0.27300363406538963,4.783050715923309 l-0.26752447709441185,3.113224506378174 -1.0513591766357422,4.040537178516388 l-1.0426072776317596,2.465892881155014 -1.1286405473947525,1.884189248085022 l-2.2673770785331726,2.5399357080459595 -1.922340989112854,1.5208730101585388 l-3.234763443470001,1.7430728673934937 -2.505475878715515,0.8771625906229019 l-3.4287405014038086,0.597490705549717 -2.6028239727020264,-0.00016416408470831811 m-18.08911681175232,-29.341976642608643 l-0.434626080095768,-1.0114604234695435 -0.620630607008934,-2.3024481534957886 l-1.5180368721485138,-7.738890051841736 -0.7371605187654495,-3.371674418449402 l-0.00014656214261776768,-3.7209632992744446 0.7384401559829712,-0.11620762757956982 l1.82059645652771,1.4190222322940826 2.979190945625305,2.935883104801178 l3.3053138852119446,3.3250895142555237 3.2568833231925964,3.3483698964118958 l1.0428502410650253,0.7528513669967651 0.7715187966823578,0.2779144234955311 m15.997804403305054,-0.6325976550579071 l3.062351644039154,-3.1346899271011353 3.8074561953544617,-3.1838104128837585 l2.8261369466781616,-1.9133807718753815 3.652903437614441,-1.8787617981433868 l3.5847115516662598,-1.2604261934757233 1.2904079258441925,-0.2000439167022705 l0.2880747988820076,0.723201334476471 -0.8698074519634247,2.156280279159546 l-3.0251705646514893,5.442458987236023 -1.3721007108688354,3.045349419116974 l-0.9000146389007568,2.6588958501815796 -0.5449353903532028,2.2065511345863342 l-0.23643802851438522,1.7298410832881927 -0.1397964358329773,1.3854314386844635 m-25.852952003479004,7.159699201583862 l-0.7248765975236893,1.3863959908485413 0.08400710299611092,1.5845409035682678 l0.420222245156765,0.9450476616621017 1.2893788516521454,1.0531683266162872 l0.9837383031845093,0.33647704869508743 1.7735064029693604,-0.07760075852274895 l1.5161782503128052,-0.538739450275898 1.658884435892105,-1.2323927134275436 l1.1324544996023178,-1.7812006175518036 0.42517952620983124,-2.131306231021881 l-0.7411609590053558,-0.833696573972702 -1.9118261337280273,-0.7422281801700592 l-2.5561335682868958,-4.1376324588782154e-05 -2.6528197526931763,0.7459176331758499 " fill="none" stroke="black" stroke-width="1" /></svg>