<?xml version="1.0" encoding="utf-8" ?>
<svg baseProfile="full" height="98.05661495774984" version="1.1" width="111.28568261861801" xmlns="http://www.w3.org/2000/svg" xmlns:ev="http://www.w3.org/2001/xml-events" xmlns:xlink="http://www.w3.org/1999/xlink"><defs /><rect fill="white" height="98.05661495774984" width="111.28568261861801" x="0" y="0" /><path d="M36.87916200608015,28.77973359078169 m1.8898668885231018,-2.6998096704483032 l1.3499048352241516,-0.8099429309368134 2.159847915172577,-0.2699809893965721 l1.3499048352241516,1.6198858618736267 0.2699809893965721,1.0799239575862885 l-0.8099429309368134,3.2397717237472534 1.8898668885231018,-0.2699809893965721 l0.5399619787931442,1.3499048352241516 1.0799239575862885,1.0799239575862885 l0.0,4.85965758562088 1.8898668885231018,-0.5399619787931442 l2.159847915172577,0.0 1.0799239575862885,0.5399619787931442 l0.0,2.9697906970977783 -0.5399619787931442,1.0799239575862885 l-0.8099429309368134,0.8099429309368134 -10.799238681793213,0.0 l-2.9697906970977783,1.6198858618736267 -2.6998096704483032,2.9697906970977783 l-0.8099429309368134,0.2699809893965721 -2.6998096704483032,0.0 l-1.8898668885231018,-1.0799239575862885 -2.9697906970977783,-3.2397717237472534 l-0.5399619787931442,-2.6998096704483032 0.5399619787931442,-3.2397717237472534 l1.0799239575862885,-1.3499048352241516 1.6198858618736267,-1.0799239575862885 l3.7797337770462036,0.0 1.8898668885231018,-3.2397717237472534 l0.0,-0.8099429309368134 1.0799239575862885,-1.0799239575862885 l0.0,-0.8099429309368134 0.8099429309368134,-0.8099429309368134 l1.6198858618736267,0.0 m-7.289486527442932,10.529258251190186 l-1.3499048352241516,0.5399619787931442 -1.0799239575862885,1.8898668885231018 l1.8898668885231018,-0.5399619787931442 -0.2699809893965721,-1.0799239575862885 m2.42982879281044,3.7797337770462036 l-1.6198858618736267,0.8099429309368134 -0.5399619787931442,1.0799239575862885 l1.3499048352241516,-0.2699809893965721 1.6198858618736267,-2.159847915172577 l0.0,-0.5399619787931442 -1.0799239575862885,0.2699809893965721 m7.559467554092407,-9.71931517124176 l-2.6998096704483032,2.159847915172577 1.8898668885231018,-1.8898668885231018 m2.159847915172577,5.129638910293579 l-2.159847915172577,0.5399619787931442 -1.6198858618736267,1.0799239575862885 l0.2699809893965721,-0.8099429309368134 4.319695830345154,-1.3499048352241516 l-2.6998096704483032,0.5399619787931442 0.2699809893965721,-1.0799239575862885 m8.369410634040833,0.2699809893965721 l0.2699809893965721,-0.8099429309368134 5.129638910293579,-3.7797337770462036 l1.8898668885231018,-0.8099429309368134 2.6998096704483032,-0.2699809893965721 l1.3499048352241516,1.3499048352241516 0.8099429309368134,1.8898668885231018 l0.2699809893965721,3.7797337770462036 -0.5399619787931442,0.2699809893965721 l0.5399619787931442,-2.6998096704483032 2.9697906970977783,-2.9697906970977783 l1.6198858618736267,1.3499048352241516 2.42982879281044,4.049714803695679 l0.0,1.8898668885231018 -0.5399619787931442,0.5399619787931442 l1.0799239575862885,-2.9697906970977783 3.7797337770462036,-3.7797337770462036 l1.0799239575862885,0.0 1.3499048352241516,1.3499048352241516 l0.8099429309368134,2.6998096704483032 0.0,1.6198858618736267 l-0.5399619787931442,1.0799239575862885 -0.2699809893965721,-0.5399619787931442 l0.8099429309368134,-1.0799239575862885 2.42982879281044,-2.159847915172577 l2.6998096704483032,-1.6198858618736267 1.6198858618736267,0.2699809893965721 l1.0799239575862885,1.0799239575862885 1.6198858618736267,2.9697906970977783 l0.2699809893965721,2.6998096704483032 -1.0799239575862885,2.159847915172577 l-0.8099429309368134,0.5399619787931442 0.2699809893965721,-1.0799239575862885 l0.5399619787931442,0.0 1.0799239575862885,0.8099429309368134 l0.8099429309368134,1.8898668885231018 0.0,1.3499048352241516 l-1.6198858618736267,2.6998096704483032 -1.6198858618736267,1.8898668885231018 l-5.3996193408966064,1.8898668885231018 -1.0799239575862885,-0.8099429309368134 l0.0,2.9697906970977783 -2.159847915172577,5.3996193408966064 l-1.8898668885231018,0.5399619787931442 -2.159847915172577,-1.6198858618736267 l-1.8898668885231018,-2.42982879281044 -2.6998096704483032,2.159847915172577 l-1.8898668885231018,0.8099429309368134 -3.2397717237472534,0.2699809893965721 l-1.6198858618736267,-2.159847915172577 -0.8099429309368134,-1.8898668885231018 l-8.639391660690308,0.2699809893965721 -1.3499048352241516,-0.2699809893965721 l-0.5399619787931442,-0.5399619787931442 -0.5399619787931442,-3.2397717237472534 l0.2699809893965721,-2.6998096704483032 -4.319695830345154,-0.5399619787931442 l-0.8099429309368134,-1.3499048352241516 -0.2699809893965721,-3.2397717237472534 l1.0799239575862885,-0.5399619787931442 -0.2699809893965721,-1.3499048352241516 l0.5399619787931442,-1.6198858618736267 1.0799239575862885,-0.5399619787931442 m2.42982879281044,13.499048948287964 l0.0,2.9697906970977783 -3.5097527503967285,6.479543447494507 l3.7797337770462036,1.6198858618736267 2.6998096704483032,0.0 l1.3499048352241516,-8.099429607391357 0.0,4.85965758562088 l0.8099429309368134,4.049714803695679 2.159847915172577,-1.0799239575862885 l2.42982879281044,0.0 0.8099429309368134,-5.129638910293579 l0.8099429309368134,-2.42982879281044 m17.008801698684692,-0.5399619787931442 l0.2699809893965721,7.019505500793457 5.6696003675460815,-0.8099429309368134 l-0.5399619787931442,-3.7797337770462036 0.0,-5.939581394195557 m0.5399619787931442,-0.2699809893965721 l2.159847915172577,8.639391660690308 4.589676558971405,0.0 l-0.5399619787931442,-0.2699809893965721 -1.3499048352241516,-5.129638910293579 l-0.5399619787931442,-6.749524474143982 m-42.38701343536377,13.769030570983887 l-1.3499048352241516,4.049714803695679 0.0,2.159847915172577 l7.559467554092407,1.6198858618736267 2.6998096704483032,-0.2699809893965721 l-0.8099429309368134,-0.2699809893965721 -1.3499048352241516,-2.159847915172577 l0.0,-2.42982879281044 -1.0799239575862885,1.0799239575862885 l-3.2397717237472534,0.8099429309368134 1.8898668885231018,-0.5399619787931442 l0.5399619787931442,-0.5399619787931442 -4.589676558971405,-0.2699809893965721 l2.9697906970977783,-1.3499048352241516 -3.2397717237472534,0.0 l1.3499048352241516,-0.5399619787931442 -1.3499048352241516,1.3499048352241516 l3.5097527503967285,0.0 -2.42982879281044,2.42982879281044 l1.8898668885231018,-0.2699809893965721 -2.6998096704483032,1.3499048352241516 l2.42982879281044,-1.0799239575862885 -0.5399619787931442,1.3499048352241516 l3.5097527503967285,-0.2699809893965721 -0.2699809893965721,0.5399619787931442 l1.8898668885231018,0.0 -1.3499048352241516,0.0 l-0.5399619787931442,-0.5399619787931442 1.0799239575862885,-1.3499048352241516 l-2.42982879281044,0.0 1.3499048352241516,-0.5399619787931442 l-1.8898668885231018,0.2699809893965721 2.42982879281044,-0.8099429309368134 l-4.589676558971405,0.8099429309368134 1.3499048352241516,-1.3499048352241516 l0.0,-0.5399619787931442 -2.159847915172577,0.5399619787931442 l-0.5399619787931442,0.0 0.0,-0.5399619787931442 m9.17935311794281,-0.8099429309368134 l-0.2699809893965721,3.7797337770462036 0.5399619787931442,1.0799239575862885 l1.8898668885231018,0.0 1.8898668885231018,-0.8099429309368134 l0.0,-3.7797337770462036 -2.42982879281044,1.6198858618736267 l-0.5399619787931442,0.0 0.5399619787931442,-1.6198858618736267 l-1.8898668885231018,1.3499048352241516 2.6998096704483032,-1.3499048352241516 l-0.5399619787931442,1.6198858618736267 0.5399619787931442,-0.5399619787931442 l0.0,-0.5399619787931442 -1.6198858618736267,1.8898668885231018 l1.0799239575862885,-0.8099429309368134 -0.8099429309368134,1.3499048352241516 l0.0,-0.5399619787931442 0.5399619787931442,-0.2699809893965721 l-0.8099429309368134,1.3499048352241516 0.5399619787931442,-0.8099429309368134 l1.3499048352241516,-0.5399619787931442 -0.5399619787931442,0.8099429309368134 l0.5399619787931442,-1.0799239575862885 -0.2699809893965721,1.6198858618736267 l0.5399619787931442,-1.0799239575862885 1.0799239575862885,-0.8099429309368134 l-1.0799239575862885,1.0799239575862885 -0.2699809893965721,-0.2699809893965721 m19.97859239578247,-4.85965758562088 l0.0,2.6998096704483032 5.939581394195557,0.2699809893965721 l0.2699809893965721,-3.5097527503967285 -4.049714803695679,1.0799239575862885 l1.8898668885231018,0.2699809893965721 -3.2397717237472534,0.5399619787931442 l5.129638910293579,0.0 -3.2397717237472534,0.0 l0.2699809893965721,-0.8099429309368134 -0.8099429309368134,0.5399619787931442 l2.159847915172577,0.0 -0.5399619787931442,0.5399619787931442 l-1.0799239575862885,0.0 " fill="none" stroke="black" stroke-width="1" /></svg>