<?xml version="1.0" encoding="utf-8" ?>
<svg baseProfile="full" height="106.42602629959583" version="1.1" width="139.09372311085463" xmlns="http://www.w3.org/2000/svg" xmlns:ev="http://www.w3.org/2001/xml-events" xmlns:xlink="http://www.w3.org/1999/xlink"><defs /><rect fill="white" height="106.42602629959583" width="139.09372311085463" x="0" y="0" /><path d="M57.39771764725447,43.62868748605251 m1.0799239575862885,-2.42982879281044 l3.5097527503967285,-2.6998096704483032 2.6998096704483032,-1.3499048352241516 l6.209562420845032,-1.6198858618736267 1.3499048352241516,0.0 l1.6198858618736267,2.159847915172577 0.5399619787931442,2.159847915172577 l0.0,4.319695830345154 0.0,-1.0799239575862885 l1.8898668885231018,-2.159847915172577 2.9697906970977783,-2.159847915172577 l3.5097527503967285,-1.3499048352241516 2.159847915172577,-0.2699809893965721 l3.2397717237472534,0.5399619787931442 3.5097527503967285,1.8898668885231018 l1.3499048352241516,1.6198858618736267 0.0,1.6198858618736267 l3.5097527503967285,-2.9697906970977783 3.2397717237472534,-1.6198858618736267 l2.6998096704483032,-0.2699809893965721 2.42982879281044,0.8099429309368134 l1.8898668885231018,2.6998096704483032 1.8898668885231018,4.319695830345154 l1.0799239575862885,1.0799239575862885 1.6198858618736267,1.3499048352241516 l2.159847915172577,0.5399619787931442 0.5399619787931442,0.5399619787931442 l0.0,3.7797337770462036 -0.5399619787931442,0.0 l-2.9697906970977783,3.2397717237472534 -3.7797337770462036,2.42982879281044 l-2.42982879281044,4.589676558971405 -3.2397717237472534,2.159847915172577 l-1.8898668885231018,0.2699809893965721 -1.8898668885231018,2.9697906970977783 l-1.8898668885231018,-1.3499048352241516 -3.5097527503967285,-0.2699809893965721 l-3.7797337770462036,0.2699809893965721 -5.6696003675460815,1.6198858618736267 l-10.259277820587158,0.8099429309368134 -1.6198858618736267,-1.8898668885231018 l-2.9697906970977783,-2.159847915172577 -4.319695830345154,-0.2699809893965721 l-4.85965758562088,0.8099429309368134 -2.42982879281044,-2.42982879281044 l-7.829448580741882,-2.9697906970977783 -2.9697906970977783,-0.2699809893965721 l0.0,-3.2397717237472534 2.42982879281044,-7.559467554092407 l5.129638910293579,-3.2397717237472534 0.2699809893965721,-1.0799239575862885 l2.42982879281044,-0.2699809893965721 4.049714803695679,1.6198858618736267 m-2.42982879281044,-8.099429607391357 l0.0,-3.5097527503967285 -0.8099429309368134,-1.6198858618736267 l-2.6998096704483032,-3.5097527503967285 -4.319695830345154,-3.2397717237472534 l-8.909372091293335,-1.8898668885231018 -6.479543447494507,0.0 l-3.2397717237472534,0.5399619787931442 -3.2397717237472534,1.8898668885231018 l-2.42982879281044,5.129638910293579 0.0,5.129638910293579 l2.159847915172577,4.589676558971405 2.6998096704483032,3.2397717237472534 l3.2397717237472534,2.42982879281044 2.159847915172577,1.0799239575862885 l6.749524474143982,2.6998096704483032 4.85965758562088,0.0 m-18.35870623588562,-7.559467554092407 l7.019505500793457,0.0 0.2699809893965721,-2.9697906970977783 m-3.2397717237472534,-8.369410634040833 l1.3499048352241516,-1.6198858618736267 1.3499048352241516,-0.5399619787931442 l7.019505500793457,-0.5399619787931442 1.0799239575862885,0.8099429309368134 l-0.5399619787931442,1.8898668885231018 -3.2397717237472534,0.5399619787931442 l-6.479543447494507,-0.2699809893965721 m3.5097527503967285,-1.8898668885231018 l0.8099429309368134,0.2699809893965721 m0.5399619787931442,0.2699809893965721 l0.0,-0.8099429309368134 -0.5399619787931442,-0.5399619787931442 l-1.3499048352241516,0.8099429309368134 1.0799239575862885,0.0 l0.8099429309368134,-0.8099429309368134 -1.0799239575862885,1.3499048352241516 l0.0,-0.8099429309368134 1.3499048352241516,-0.2699809893965721 l0.0,1.0799239575862885 -0.5399619787931442,-0.8099429309368134 l-1.0799239575862885,0.5399619787931442 -0.2699809893965721,-0.5399619787931442 l-0.5399619787931442,0.5399619787931442 2.159847915172577,-0.2699809893965721 l-0.8099429309368134,0.8099429309368134 -0.5399619787931442,0.0 l0.0,0.5399619787931442 0.5399619787931442,-1.0799239575862885 l1.3499048352241516,0.0 -0.2699809893965721,1.6198858618736267 l-0.8099429309368134,0.2699809893965721 -2.42982879281044,-1.8898668885231018 l0.2699809893965721,-0.5399619787931442 2.42982879281044,-0.2699809893965721 l-0.2699809893965721,1.8898668885231018 -0.5399619787931442,0.0 l-1.6198858618736267,-1.3499048352241516 1.6198858618736267,0.0 l0.5399619787931442,0.5399619787931442 -0.2699809893965721,0.2699809893965721 m21.3284969329834,33.47764253616333 l0.0,3.2397717237472534 -1.6198858618736267,4.85965758562088 l-2.159847915172577,4.589676558971405 -1.8898668885231018,2.6998096704483032 m2.159847915172577,-16.468839645385742 l0.0,2.6998096704483032 -1.0799239575862885,4.049714803695679 l-4.049714803695679,10.259277820587158 m14.848953485488892,-15.118935108184814 l-1.8898668885231018,2.42982879281044 -4.049714803695679,7.289486527442932 l-1.0799239575862885,4.85965758562088 -0.2699809893965721,-0.2699809893965721 m8.639391660690308,-14.039011001586914 l-3.2397717237472534,8.099429607391357 -2.9697906970977783,5.6696003675460815 m-9.17935311794281,1.0799239575862885 l5.129638910293579,-1.3499048352241516 m2.159847915172577,-0.2699809893965721 l0.8099429309368134,0.5399619787931442 m33.47764253616333,-12.419124841690063 l1.0799239575862885,0.8099429309368134 4.049714803695679,7.019505500793457 l4.049714803695679,5.129638910293579 0.2699809893965721,-0.2699809893965721 l-0.5399619787931442,-0.8099429309368134 m-2.6998096704483032,-12.419124841690063 l0.2699809893965721,3.2397717237472534 0.8099429309368134,2.6998096704483032 l1.3499048352241516,2.42982879281044 0.0,2.42982879281044 m0.2699809893965721,-14.578973054885864 l0.5399619787931442,2.6998096704483032 0.0,13.769030570983887 m2.159847915172577,-15.118935108184814 l0.0,1.6198858618736267 0.8099429309368134,2.159847915172577 l0.2699809893965721,8.099429607391357 -0.5399619787931442,1.6198858618736267 l-2.6998096704483032,0.8099429309368134 " fill="none" stroke="black" stroke-width="1" /></svg>