<?xml version="1.0" encoding="utf-8" ?>
<svg baseProfile="full" height="110.57746142148972" version="1.1" width="94.09937375301524" xmlns="http://www.w3.org/2000/svg" xmlns:ev="http://www.w3.org/2001/xml-events" xmlns:xlink="http://www.w3.org/1999/xlink"><defs /><rect fill="white" height="110.57746142148972" width="94.09937375301524" x="0" y="0" /><path d="M44.02061836953429,44.36217343831231 m-0.26040365919470787,-1.8147730827331543 l-1.894049197435379,-2.9494428634643555 -3.069361448287964,-2.390878200531006 l-2.7125877141952515,-1.074586883187294 -1.5884193778038025,-0.1802700012922287 l-1.9393308460712433,0.4117666184902191 -1.8088044226169586,1.3522440195083618 l-1.3846215605735779,2.163451462984085 -0.7632969319820404,2.740977108478546 l-7.899804899125229e-07,4.453961551189423 0.9770213067531586,3.324362337589264 l1.8666836619377136,2.8290006518363953 2.563737630844116,2.2916479408740997 l7.682374119758606,3.4563037753105164 4.088555574417114,0.6496304273605347 l8.260453939437866,-0.39122506976127625 3.4366366267204285,-1.030849888920784 l2.914988100528717,-1.5301644802093506 2.3093292117118835,-1.977696567773819 l1.6520418226718903,-2.3359835147857666 1.580101102590561,-4.276597499847412 l0.40087372064590454,-3.3165258169174194 0.00033341180824209005,-3.50630521774292 l-0.665011927485466,-2.6742729544639587 -1.283794492483139,-2.2909311950206757 l-1.872747391462326,-1.7161659896373749 -2.381598800420761,-1.1277399957180023 l-2.8295761346817017,-0.5143254995346069 -4.952109456062317,0.0013318454148247838 l-5.83311915397644,1.4896592497825623 -1.7995116114616394,0.8170189708471298 l-1.8945728242397308,1.4204588532447815 -1.2508781254291534,1.6108998656272888 l-0.7488393783569336,1.8089456856250763 m-2.1527615189552307,3.085189461708069 l-0.6140456721186638,-0.0041391063132323325 -1.3979972898960114,1.2492743134498596 l-0.5914647132158279,1.1100182682275772 -0.3921564295887947,2.1780169010162354 l0.00022072101273806766,1.9760562479496002 0.5980988964438438,0.7638724148273468 l1.255519539117813,0.6077466905117035 1.8888628482818604,-0.0005921974661760032 l2.2928139567375183,-1.0203289240598679 0.727916806936264,-0.6638453900814056 l0.9924574941396713,-1.951655000448227 0.00024336122805834748,-2.02862411737442 l-1.0791422426700592,-1.3854606449604034 -1.5616995096206665,-0.6827016919851303 l-1.6222114861011505,-0.0012037864507874474 -0.6877923756837845,0.39514094591140747 m16.213181018829346,-0.3365560993552208 l-1.3588520884513855,0.09329362772405148 -1.3430862128734589,0.769801139831543 l-1.0258471220731735,1.2457457184791565 -0.59404656291008,1.4902110397815704 l0.00027915437385672703,1.7523439228534698 0.6246373057365417,1.1172671616077423 l1.2116418778896332,0.8490945398807526 1.7005330324172974,0.44341113418340683 l1.6765649616718292,-0.0002292796125402674 1.345263421535492,-0.5219234898686409 l1.1336368322372437,-1.161283254623413 0.6179112568497658,-1.6151174902915955 l0.00026809781047631986,-2.07510769367218 -1.0519298911094666,-1.245792880654335 l-1.523481160402298,-0.5745492503046989 -2.1043841540813446,0.00024341235985048115 l-2.163974344730377,-0.00018514943803893402 m-5.998855829238892,8.068098425865173 l-0.026534954085946083,1.9270901381969452 -0.17760835587978363,2.136695086956024 l0.621977187693119,0.1935955509543419 1.5440016984939575,-2.282647043466568 l0.7439949363470078,-1.270127296447754 0.26255298405885696,-0.5939042940735817 m-14.103384017944336,-8.367471694946289 l-0.39265021681785583,-0.22219154983758926 -0.8814319223165512,-0.5463171005249023 l-1.138969212770462,-1.0201415419578552 -1.2490905076265335,-1.2850025296211243 l-1.865517795085907,-2.2760093212127686 -1.1940047889947891,-1.8230350315570831 l-0.9737654030323029,-1.8131951987743378 -0.7369238138198853,-1.8022361397743225 l-0.8576159179210663,-2.747986614704132 -0.40160294622182846,-2.2520242631435394 l-0.01086228876374662,-2.0970450341701508 0.5844207108020782,-0.23374119773507118 l3.4795349836349487,2.1021635830402374 4.670340418815613,3.2161900401115417 l2.9457274079322815,2.2401978075504303 2.010815590620041,1.896904855966568 l1.526692509651184,1.6607140004634857 m17.400145530700684,0.08690559305250645 l1.8680694699287415,-2.336939126253128 4.187241792678833,-4.544817209243774 l2.306866943836212,-2.2948992252349854 2.7383214235305786,-2.6613542437553406 l0.3807886317372322,1.3305465877056122 0.00040833914681570604,5.831317901611328 l-1.0297548025846481,5.371542572975159 -1.7967474460601807,4.635722637176514 l-0.5237008258700371,0.6673996150493622 m-30.5148983001709,14.925055503845215 l-0.8655776828527451,1.3064655661582947 -1.4980627596378326,4.7526052594184875 l-1.032123640179634,7.097570896148682 9.437655535293743e-05,7.474170923233032 l0.7690239697694778,3.941926062107086 1.227843016386032,3.0123764276504517 m28.74211549758911,-28.464934825897217 l1.192805990576744,2.654721438884735 1.0062459856271744,4.147055745124817 l0.41357338428497314,4.838576316833496 0.00021630621631629765,7.235286235809326 l-0.6840316951274872,4.608491659164429 -1.6678398847579956,5.211564898490906 m-25.774588584899902,-23.856534957885742 l-0.8044086396694183,0.9749896079301834 -2.0576664805412292,6.064577102661133 l-0.6409429013729095,4.304322302341461 0.0002449664316372946,4.964520037174225 l0.7133228331804276,3.2355141639709473 1.1983193457126617,2.443978041410446 m25.484018325805664,-22.13799476623535 l1.440490037202835,2.2217820584774017 1.0881443321704865,3.336917757987976 l0.38446415215730667,3.9535146951675415 0.0002509725163690746,6.127883791923523 l-0.6964539736509323,3.545651137828827 -1.0773850977420807,2.767726182937622 " fill="none" stroke="black" stroke-width="1" /></svg>