<?xml version="1.0" encoding="utf-8" ?>
<svg baseProfile="full" height="97.26033765822649" version="1.1" width="74.64472387335263" xmlns="http://www.w3.org/2000/svg" xmlns:ev="http://www.w3.org/2001/xml-events" xmlns:xlink="http://www.w3.org/1999/xlink"><defs /><rect fill="white" height="97.26033765822649" width="74.64472387335263" x="0" y="0" /><path d="M25.166778200073168,46.83430234901607 m0.3410356491804123,0.10244403034448624 l2.2024184465408325,1.215786337852478 1.2698636949062347,0.4208303242921829 l1.1449570208787918,0.12980015017092228 3.899029493331909,-0.4348032921552658 l1.542922854423523,-0.5778052285313606 1.199580356478691,-0.748412236571312 l0.7740932703018188,-0.9299235790967941 0.7564718276262283,-1.8187284469604492 l0.3339666500687599,-2.242852598428726 -0.04699390847235918,-2.3561005294322968 l-0.4772252216935158,-2.341051697731018 -0.6983935832977295,-4.014325141906738 l-0.06017033942043781,-2.2417980432510376 0.35604439675807953,-1.700347512960434 l1.1642573773860931,-2.3015615344047546 0.9681341797113419,-1.040225699543953 l0.9967699646949768,-0.5708901211619377 1.6717785596847534,-0.38433752954006195 l2.155572474002838,0.17338290810585022 1.3847830891609192,0.5821505561470985 l1.7244049906730652,1.2903639674186707 1.3098172843456268,1.811712384223938 l0.4637428745627403,1.1234457790851593 0.1010842714458704,0.8391363173723221 l-0.21301498636603355,0.6523019820451736 -0.5107370018959045,0.44279471039772034 l-1.0148905962705612,0.0863594189286232 -2.7403512597084045,-1.1636678874492645 l-1.406533122062683,-0.2635164372622967 -0.9846170991659164,0.2483249455690384 l-0.7657931745052338,0.6719914823770523 -0.8946957439184189,1.825307458639145 l-0.3975926339626312,1.9480562210083008 -0.11895961128175259,2.3838233947753906 l0.39440833032131195,3.5845839977264404 -0.08293719962239265,3.2082250714302063 l-0.3311627730727196,1.7155368626117706 -0.5067333951592445,1.248430386185646 l-0.6914924830198288,1.006578728556633 -1.6234289109706879,1.4614029228687286 l-1.3723810017108917,0.7662885636091232 -1.4415352046489716,0.45307114720344543 l-2.596333920955658,0.21839186549186707 -2.650366425514221,-0.3688926622271538 l-2.0331767201423645,-0.89181087911129 -1.3968777656555176,-1.0675686597824097 l-0.9477776288986206,-1.2452109158039093 -0.30674751847982407,-0.8251887559890747 l-0.010996026685461402,-0.7303909212350845 0.2871215343475342,-0.5990833044052124 l0.9532599896192551,-0.828109085559845 1.1070194095373154,-0.5355865880846977 l1.0919634997844696,-0.18739353865385056 m1.9244930148124695,7.2603219747543335 l0.14474241062998772,4.7712379693984985 -0.32760627567768097,8.165348172187805 l-0.3776095435023308,2.7001723647117615 -0.4802341014146805,1.6863824427127838 l-0.5493063107132912,1.050044521689415 -0.6681662797927856,0.6871210783720016 l-1.1951559036970139,0.4779325798153877 1.1488468199968338,-0.39139557629823685 l2.563175857067108,-0.1985369622707367 0.37112798541784286,0.8420093357563019 l-0.23469442501664162,1.0271565616130829 -0.4031797870993614,-1.0314561426639557 l0.2792176976799965,-0.5506478995084763 1.0059019178152084,0.27248283848166466 l0.8138194680213928,0.6606344878673553 0.6216184794902802,0.796288475394249 l-1.5903674066066742,-1.1752837896347046 -0.9381388127803802,-0.828399658203125 l-1.1374377459287643,-0.9317506849765778 -1.408354789018631,-1.0309173911809921 l-1.7550583183765411,-1.239078864455223 -0.7375171035528183,-1.0926306992769241 m11.134963035583496,-13.393287658691406 l0.8641918003559113,4.274713397026062 0.4763913154602051,4.39550518989563 l0.10026829317212105,4.148210287094116 -0.30442794784903526,-0.043042292818427086 l-1.068999171257019,-0.5781714990735054 -0.5469730496406555,0.10266819037497044 l-1.2784318625926971,1.4259038865566254 0.964115634560585,-0.6834239512681961 l1.2873296439647675,-0.3404897078871727 0.36416303366422653,0.9578467160463333 l0.10078794322907925,-0.2792925573885441 0.366898812353611,-0.015374592039734125 l0.9412302821874619,0.5070050060749054 0.7201723754405975,0.411633662879467 l0.44475745409727097,-0.07461133413016796 0.12766778469085693,-0.6101388111710548 l-0.4256322607398033,-0.8346293866634369 -0.991649329662323,-0.6892337650060654 l-1.034567803144455,-0.6003634259104729 " fill="none" stroke="black" stroke-width="1" /></svg>