<?xml version="1.0" encoding="utf-8" ?>
<svg baseProfile="full" height="111.19045924569946" version="1.1" width="95.14188954477504" xmlns="http://www.w3.org/2000/svg" xmlns:ev="http://www.w3.org/2001/xml-events" xmlns:xlink="http://www.w3.org/1999/xlink"><defs /><rect fill="white" height="111.19045924569946" width="95.14188954477504" x="0" y="0" /><path d="M41.286748349721165,37.675869391678134 m-0.8270386606454849,-1.9384373724460602 l-1.772158145904541,-2.6904988288879395 -3.1518909335136414,-3.087247312068939 l-2.0079411566257477,-0.8974210172891617 -1.2720581889152527,0.4452082887291908 l-1.2781859934329987,1.6707761585712433 -0.7780612260103226,2.532009482383728 l-0.1938711665570736,3.0766111612319946 0.46232230961322784,2.903639078140259 l1.0615310072898865,2.412773072719574 1.5735054016113281,1.961674839258194 l1.9786658883094788,1.4072856307029724 0.9777773916721344,0.3641347587108612 l1.7160388827323914,0.027909341733902693 1.9410845637321472,-0.6967359036207199 l1.6362982988357544,-1.3643018901348114 1.2429003417491913,-1.989346593618393 l0.309843085706234,-1.1015284806489944 0.0004028816329082474,-2.0860353112220764 l-0.7072529941797256,-2.201276570558548 m15.217429399490356,-0.8204293251037598 l-1.3036338984966278,-1.4241625368595123 -1.7112579941749573,-0.8826513588428497 l-1.7106057703495026,-0.23356493562459946 -1.549706906080246,0.5292871221899986 l-1.6589400172233582,1.4717966318130493 -0.8353476971387863,1.3352155685424805 l-0.7945286482572556,3.0863937735557556 0.0002458908966218587,2.697281241416931 l0.35453852266073227,1.4257284998893738 1.0640736669301987,1.7426782846450806 l1.7187143862247467,1.3939021527767181 2.357141226530075,0.8102508634328842 l2.28984534740448,-0.0003090047903242521 2.0984573662281036,-0.7483882457017899 l1.694050282239914,-1.1453717201948166 1.2892314791679382,-1.379038691520691 l1.0455410927534103,-2.1766862273216248 0.39244163781404495,-2.0334242284297943 l0.0004308351708459668,-2.1970008313655853 -0.4344869777560234,-1.745993196964264 l-1.0699263960123062,-1.6752056777477264 -1.6022370755672455,-1.2807373702526093 l-2.0710882544517517,-0.7661277800798416 -2.0199376344680786,0.0012770792818628252 m-9.814651608467102,13.50416898727417 l0.025288918986916542,2.6391735672950745 -0.15587863512337208,2.940875291824341 l0.7859552651643753,0.33161815255880356 1.5932649374008179,-2.7020221948623657 l0.9466445446014404,-1.8700844049453735 m-14.948561191558838,-17.781919240951538 l-1.0763119906187057,0.20833298563957214 -1.831948608160019,1.1703979223966599 l-2.065664529800415,2.1691058576107025 -1.6871877014636993,2.7575144171714783 l-1.0421740263700485,2.9228365421295166 -0.6878791749477386,4.791593551635742 l0.00016620373571640812,4.646003842353821 0.6750446557998657,3.662749230861664 l1.3310013711452484,3.618569076061249 1.8313176929950714,3.2883843779563904 l2.2567452490329742,2.676018476486206 2.728544771671295,2.212815135717392 l3.3016353845596313,1.7798244953155518 3.834008276462555,1.204848289489746 l4.270140826702118,0.6202003359794617 5.336885452270508,0.00022007992811268196 l4.167868793010712,-0.7908876985311508 3.7776190042495728,-1.4748269319534302 l3.432793617248535,-2.1466530859470367 2.724950909614563,-2.6892712712287903 l1.0264336317777634,-1.4652471244335175 1.5681266784667969,-3.124436140060425 l1.1283741891384125,-4.149021208286285 0.36704082041978836,-4.424395263195038 l0.0004029820775031112,-3.6424633860588074 -0.6937567889690399,-3.925963044166565 l-1.4210984110832214,-3.808072507381439 -2.193174958229065,-3.487778604030609 l-2.8094401955604553,-2.760654091835022 -3.403925895690918,-2.0364215970039368 l-4.0712770819664,-1.445956528186798 -4.468575417995453,-0.8289583027362823 l-6.16841733455658,0.00197862449567765 -4.417692720890045,0.9809917956590652 l-3.429345190525055,1.4354445040225983 -2.5736424326896667,1.7197027802467346 l-1.8207117915153503,1.954953670501709 m0.8856965601444244,23.637468814849854 l-2.1606840193271637,2.1961455047130585 -2.0897985994815826,3.1562870740890503 l-1.5691250562667847,3.4768515825271606 -0.7956768572330475,3.2572895288467407 l-0.21697420626878738,3.1973138451576233 0.3878943622112274,2.6993486285209656 l1.0604476928710938,2.3021920025348663 1.5969569981098175,1.8144001066684723 l0.9156417846679688,0.5597961321473122 1.5081533789634705,0.3278663381934166 m34.96952295303345,-23.058598041534424 l1.861446499824524,2.7222132682800293 1.4826977252960205,3.494235873222351 l0.8420293778181076,3.880685269832611 0.17561865970492363,3.916831910610199 l-0.5769605934619904,3.3926182985305786 -1.1414680629968643,2.500709891319275 l-1.4911846816539764,1.8621490895748138 -1.936669796705246,1.4432710409164429 m-32.22521781921387,-0.07565268315374851 l0.3904804587364197,1.2639456987380981 0.58531504124403,2.2405388951301575 l0.49974240362644196,1.395825743675232 1.0505012422800064,1.4983980357646942 l1.6788657009601593,1.1647000163793564 2.464013993740082,0.6944114714860916 l8.142088055610657,0.13614453375339508 7.038963437080383,-1.2304309755563736 l3.950313627719879,-1.228371113538742 1.3676567375659943,-0.7116083800792694 l1.5910150110721588,-1.4236560463905334 1.2482764571905136,-2.0299796760082245 l0.597914420068264,-2.2224031388759613 0.0003847562402370386,-1.5362736582756042 m-26.253397464752197,-18.7539803981781 l-1.0757675766944885,2.2721807658672333 -2.4529728293418884,7.9302603006362915 l-1.1996838450431824,3.7143588066101074 -0.6882207840681076,3.2092997431755066 l0.0002902244341385085,2.488787919282913 0.655917227268219,1.9437330961227417 m26.94288730621338,-21.15715503692627 l1.7627991735935211,2.8190305829048157 2.4857865273952484,4.519592225551605 l1.290968805551529,3.651769459247589 0.6831037253141403,3.59283447265625 l0.00022930067643756047,3.055703043937683 -0.6509795784950256,2.6852473616600037 " fill="none" stroke="black" stroke-width="1" /></svg>