<?xml version="1.0" encoding="utf-8" ?>
<svg baseProfile="full" height="107.52910539790264" version="1.1" width="77.94948296897587" xmlns="http://www.w3.org/2000/svg" xmlns:ev="http://www.w3.org/2001/xml-events" xmlns:xlink="http://www.w3.org/1999/xlink"><defs /><rect fill="white" height="107.52910539790264" width="77.94948296897587" x="0" y="0" /><path d="M32.088426611531986,25 m-0.5743049085140228,2.0082826912403107 l-1.6516545414924622,2.2835613787174225 -0.5438888072967529,1.6085325181484222 l-0.5809741467237473,1.6885417699813843 0.0001132225133915199,3.427952826023102 l0.0748677784577012,1.7600524425506592 0.6661631911993027,1.760382056236267 l1.1046136170625687,1.7763936519622803 1.6437412798404694,1.4652100205421448 l3.739522397518158,2.0547573268413544 4.45149689912796,0.9901393949985504 l4.635657072067261,-0.000697529103490524 3.0085086822509766,-1.880154311656952 l2.598547637462616,-2.9735317826271057 1.3131113350391388,-2.243432104587555 l0.9753894060850143,-2.4586375057697296 0.00014624284631281625,-4.506383538246155 l-0.36182984709739685,-1.7235124111175537 -0.8625652641057968,-1.654440313577652 l-1.0590755939483643,-1.6692982614040375 -1.6651731729507446,-0.966242179274559 l-1.7907997965812683,-0.5229265987873077 -4.347547292709351,4.3917339098697994e-05 l-2.943696677684784,0.09354979731142521 -3.035275936126709,0.5408253148198128 l-2.7537640929222107,0.7042627036571503 m-0.5053574219346046,3.4374329447746277 l0.00023009077267488465,1.157929077744484 0.33724527806043625,1.708553284406662 l1.7447863519191742,0.9292669594287872 1.921497881412506,-0.0004342312240623869 l0.9587154537439346,-1.6753160953521729 0.00024070495783234946,-2.0159439742565155 l-1.7351363599300385,-0.9901634603738785 -2.0981837809085846,-0.002025224966928363 m9.969666004180908,0.6581519544124603 l-0.5169880017638206,1.7049656808376312 0.000126538770928164,2.031628042459488 l1.7996029555797577,0.8729099482297897 2.1110638976097107,-0.0010421011393191293 l1.0605182498693466,-1.6779518127441406 0.00016125153706525452,-2.117428630590439 l-1.6881915926933289,-1.115357056260109 -2.194831669330597,-0.003005441394634545 m-5.618988275527954,8.228403925895691 l0.6655479222536087,2.44555726647377 0.6150444969534874,1.6641020774841309 l1.6428124904632568,0.19665997475385666 0.841195359826088,-1.7596226930618286 l0.6139804795384407,-1.6355736553668976 0.5203990638256073,-1.6194458305835724 m-15.084707736968994,5.932646989822388 l-0.6138142570853233,1.7692501842975616 0.00024723054593778215,6.967117786407471 l0.13998039066791534,1.7601148784160614 -2.8917681902385084e-05,7.300704717636108 l0.25306543335318565,1.734219342470169 9.696157121652504e-07,6.572076082229614 l0.38202933967113495,1.7518018186092377 3.675857669804827e-05,4.358311295509338 l0.47783438116312027,1.7171193659305573 2.9038887987553608e-05,2.9479432106018066 l0.7066809386014938,1.6902819275856018 1.4085590839385986,1.0420355945825577 l3.4648528695106506,-0.002598792198114097 1.4837807416915894,-1.1542751640081406 l2.41119921207428,-2.348446696996689 2.590373456478119,-2.8590521216392517 l1.1259516328573227,-1.7291843891143799 1.0021157562732697,-1.7720633745193481 l0.8212324231863022,-1.8206824362277985 0.7630962878465652,-1.8347562849521637 l1.0020523518323898,-2.7556464076042175 0.9129397571086884,-3.0724018812179565 l0.00017762113202479668,-6.937195658683777 0.06276510655879974,-1.7209011316299438 l0.00017652897440711968,-5.313117504119873 -0.30074890702962875,-1.6028738021850586 m-19.445855617523193,0.8984868973493576 l0.0004432941204868257,3.592004179954529 -1.1331035941839218,2.4656976759433746 l-0.970805436372757,3.2281437516212463 -1.035468801856041,3.6862677335739136 l0.00013809993106406182,5.775410532951355 0.02872090321034193,1.6677039861679077 l6.691022008453729e-05,3.2394272089004517 0.47693870961666107,1.700279414653778 l1.4781363308429718,1.0690943896770477 " fill="none" stroke="black" stroke-width="1" /></svg>