<?xml version="1.0" encoding="utf-8" ?>
<svg baseProfile="full" height="65.6047679297626" version="1.1" width="66.4834632538259" xmlns="http://www.w3.org/2000/svg" xmlns:ev="http://www.w3.org/2001/xml-events" xmlns:xlink="http://www.w3.org/1999/xlink"><defs /><rect fill="white" height="65.6047679297626" width="66.4834632538259" x="0" y="0" /><path d="M29.47778543457389,27.816483308561146 m0.21103279665112495,-0.13976703397929668 l1.6605204343795776,0.26120366528630257 1.1881628632545471,0.10101917199790478 l2.370235174894333,0.5918241664767265 2.3895829916000366,1.1500545591115952 l2.057906538248062,1.619371771812439 0.8013982325792313,1.0103422403335571 l0.6800692528486252,1.3280226290225983 0.5166397988796234,1.7022238671779633 l0.13012973591685295,1.1461051553487778 -0.12880997732281685,0.9582778066396713 l-0.3799741342663765,0.8116646856069565 -0.6609939783811569,0.7025306671857834 l-1.5877246856689453,0.8846725523471832 -2.536010444164276,0.6077496334910393 l-2.8607502579689026,0.05298908334225416 -2.6595038175582886,-0.5018670111894608 l-2.2016528248786926,-0.8625272661447525 -1.53221994638443,-0.963490903377533 l-1.1456657946109772,-1.1826350539922714 -0.4304977133870125,-0.809214860200882 l-0.35965967923402786,-1.546279788017273 0.0113166612572968,-1.48890420794487 l0.6461805105209351,-2.1749351918697357 0.838833674788475,-1.4426493644714355 l0.9468067437410355,-1.0731103271245956 0.9633637219667435,-0.6826160848140717 l1.7177915573120117,-0.5997814983129501 1.459515392780304,-0.09906038641929626 l1.2963393330574036,0.3191421180963516 0.6126014888286591,0.45257192105054855 l0.9604498744010925,1.3544997572898865 0.37223320454359055,1.003643348813057 l0.08673395030200481,0.9018705040216446 -0.2090965397655964,0.791795551776886 l-0.49780387431383133,0.6124753132462502 -1.032828763127327,0.5043481290340424 l-1.5018336474895477,0.20060520619153976 -1.6342997550964355,-0.2938525751233101 l-0.6366527080535889,-0.4781026765704155 -0.29139140620827675,-0.6584382802248001 l0.19238155335187912,-1.2739111483097076 0.6706789135932922,-1.1966318637132645 l0.7846013456583023,-0.8425525575876236 0.8247530460357666,-0.4930262267589569 l1.20156429708004,-0.1166168600320816 0.9914857149124146,0.34971240907907486 l0.4587320610880852,0.4959322139620781 0.16996711492538452,0.5417957901954651 l-0.1652132347226143,0.553729310631752 -0.5174312368035316,0.4588009789586067 l-1.100776419043541,0.39862174540758133 -1.5203772485256195,0.09241549298167229 l-1.3703355193138123,-0.3772318735718727 -0.5347418040037155,-0.49447067081928253 l-0.18648400902748108,-0.608418807387352 0.32790467143058777,-1.1004936695098877 l0.8642555773258209,-0.8130085468292236 0.8329695463180542,-0.4003603756427765 l0.7819186151027679,-0.06679950747638941 0.7314722985029221,0.294574610888958 l0.8225218951702118,1.043783500790596 0.3527742996811867,0.9164924174547195 l0.012077536666765809,0.7762854546308517 -0.3169407695531845,0.5908412486314774 l-0.9545032680034637,0.5976781994104385 -1.4063774049282074,0.33808037638664246 l-1.6376246511936188,-0.12151964008808136 -1.1954395473003387,-0.7379550486803055 l-0.7015160471200943,-1.256910115480423 -0.11110316030681133,-0.8618104457855225 l0.2335953339934349,-0.7223332673311234 0.48031628131866455,-0.5668959766626358 l0.6358765065670013,-0.38459181785583496 1.07278972864151,-0.17310386523604393 l0.9045737981796265,0.1636803336441517 1.1108123511075974,0.8331231772899628 l0.5763085931539536,0.766742080450058 0.20359836518764496,0.6683272868394852 l-0.12524970807135105,0.5907996743917465 -0.4885919392108917,0.4188494384288788 l-1.0363107919692993,0.27442771941423416 -1.373860388994217,-0.06715764757245779 l-1.3162089884281158,-0.577479638159275 -0.8447922766208649,-1.0303899645805359 l-0.22313857451081276,-0.7292073965072632 0.20037904381752014,-1.020348221063614 l0.5305738374590874,-0.831899419426918 0.7163844257593155,-0.5896233767271042 l0.6983714550733566,-0.23582961410284042 0.6597305834293365,0.10279087349772453 l0.5591926723718643,0.4504869878292084 0.5987285077571869,1.1745277047157288 l0.2309921197593212,0.9347787499427795 -0.04631015006452799,0.7373157143592834 l-0.36860205233097076,0.5790362879633904 -0.8908537030220032,0.48715945333242416 l-1.3541273772716522,0.21354876458644867 -1.4073538780212402,-0.21408291533589363 l-1.0728801041841507,-0.7309995591640472 -0.5987890809774399,-1.1202610284090042 l-0.11325844563543797,-1.0568355023860931 0.24817176163196564,-0.889366939663887 l0.47889333218336105,-0.6453020125627518 0.5939165130257607,-0.3851667791604996 " fill="none" stroke="black" stroke-width="1" /></svg>