<?xml version="1.0" encoding="utf-8" ?>
<svg baseProfile="full" height="93.55144180357456" version="1.1" width="80.34388372334433" xmlns="http://www.w3.org/2000/svg" xmlns:ev="http://www.w3.org/2001/xml-events" xmlns:xlink="http://www.w3.org/1999/xlink"><defs /><rect fill="white" height="93.55144180357456" width="80.34388372334433" x="0" y="0" /><path d="M32.56665259197689,33.4888862085063 m0.08467037230730057,0.005040782270953059 l0.14624940231442451,-0.030411132611334324 -0.8962782472372055,0.3258584439754486 l-1.0252375155687332,0.9395565092563629 -1.2161850184202194,3.252539038658142 l1.9818708300590515,2.1525196731090546 1.6452735662460327,0.4352419078350067 l1.5411697328090668,-0.13521531596779823 1.7593306303024292,-0.9814663231372833 l0.513601042330265,-0.616060309112072 0.36980297416448593,-1.1437579989433289 l0.0003851796282106079,-1.496364027261734 -0.6410418450832367,-1.5400533378124237 l-1.3056644797325134,-1.3197746872901917 -1.5740755200386047,-0.6978538632392883 l-1.6373102366924286,-0.08928569033741951 -1.3076645135879517,0.5185292288661003 l-0.880076065659523,0.9245956689119339 m14.330763816833496,-0.4715774208307266 l-0.9519840031862259,0.6301647424697876 -0.9278701990842819,1.2217459827661514 l-0.5048182606697083,1.3922517001628876 0.04626973066478968,1.8374410271644592 l0.7230530679225922,1.0935477167367935 1.26621812582016,0.7432126998901367 l1.7175836861133575,0.27857547625899315 1.5631988644599915,-0.22724514827132225 l1.8555448949337006,-0.9908571094274521 0.5702776089310646,-0.5986178666353226 l0.4779811203479767,-1.0728320479393005 0.00023077785954228602,-1.2346526980400085 l-0.4221292957663536,-1.116146668791771 -1.1322837322950363,-1.2606048583984375 l-1.6781626641750336,-0.9145180135965347 -1.9962768256664276,-0.37096869200468063 l-1.8577013909816742,0.26092037558555603 -1.3597805798053741,0.7571865618228912 m-4.044933021068573,7.5523364543914795 l0.3242555260658264,2.5271883606910706 0.23904679343104362,2.231685221195221 l0.4605194553732872,0.07529944181442261 1.6045068204402924,-2.778952717781067 l0.8775247633457184,-1.5104682743549347 m-11.164543628692627,-12.506773471832275 l-0.9585203975439072,0.5484927445650101 -1.442301869392395,1.6142430901527405 l-1.3535429537296295,2.302236258983612 -0.8643002808094025,2.565663456916809 l-0.52329882979393,4.189497232437134 0.00012108715964131989,3.923027217388153 l0.5504418909549713,3.2122045755386353 1.052766889333725,2.8153684735298157 l1.5150833129882812,2.283443808555603 2.070806324481964,1.9041113555431366 l1.0218416154384613,0.6157276406884193 2.869950830936432,0.9203749895095825 m6.102955341339111,-27.406635284423828 l2.2956831753253937,-0.12136811390519142 3.054789900779724,0.4355469346046448 l2.774328291416168,0.9841760993003845 2.5447580218315125,1.5625162422657013 l1.3915731012821198,1.3547639548778534 1.5064120292663574,2.2341425716876984 l1.0505326837301254,2.742791771888733 0.5418392270803452,3.177008628845215 l-0.0038015469908714294,3.4321150183677673 -0.6894096732139587,3.2120001316070557 l-1.1488920450210571,2.761826515197754 -1.625162810087204,2.4810388684272766 l-1.9544881582260132,1.9763369858264923 -2.2835084795951843,1.5241310000419617 l-2.5941750407218933,1.0192692279815674 -2.846590578556061,0.5539574101567268 l-3.0255138874053955,0.07560611236840487 -2.6744741201400757,-0.4811941832304001 l-3.2501134276390076,-1.1285046488046646 -0.9138032793998718,-0.5874209851026535 m-0.7914727926254272,-21.342618465423584 l-0.7572844624519348,-0.590282492339611 -1.1051099747419357,-2.30008602142334 l-0.17265573143959045,-1.2493786215782166 0.2799319848418236,-1.6236639022827148 l1.0282331705093384,-1.7480282485485077 1.6822274029254913,-1.4063170552253723 l2.1331940591335297,-0.7776354998350143 2.350771278142929,-0.19835034385323524 l3.39936226606369,0.608408972620964 1.5870420634746552,0.7783009111881256 l1.5325549244880676,1.4183327555656433 0.9885271638631821,1.8347512185573578 l0.353197306394577,2.0599371194839478 -0.270151998847723,2.0113857090473175 l-0.9025270491838455,1.7171594500541687 -1.2738732993602753,1.27558633685112 l-1.612447202205658,0.8559206873178482 -2.026500105857849,0.4821047931909561 l-2.281426042318344,0.0935103464871645 -2.0819002389907837,-0.4088563099503517 l-1.8713465332984924,-1.013038381934166 -0.5761092901229858,-0.6361781060695648 l-0.44319137930870056,-1.1249010264873505 -0.055157323367893696,-1.596437394618988 l0.5697456747293472,-1.6883258521556854 m13.677687644958496,2.5144565105438232 l-0.0035343351191841066,-1.7741954326629639 0.5604342743754387,-2.074541449546814 l1.1191529780626297,-1.6060523688793182 1.568014770746231,-0.8437741547822952 l1.7835497856140137,-0.10243265889585018 1.5458841621875763,0.6532472372055054 l1.7083951830863953,1.9366168975830078 0.6574235111474991,1.9475547969341278 l0.008602291927672923,1.8524877727031708 -0.6479298323392868,1.4680573344230652 l-1.246604174375534,1.2547166645526886 -1.6156867146492004,0.7908739149570465 l-1.8525177240371704,0.2988215535879135 -1.8241037428379059,-0.23365149274468422 l-1.598242074251175,-0.8320902287960052 -0.4998810216784477,-0.5715972185134888 l-0.3436166048049927,-1.1089558154344559 0.09609759785234928,-1.5490743517875671 l0.35293251276016235,-0.7573192566633224 m-2.468423694372177,6.051456332206726 l0.09661280550062656,2.087714523077011 -0.2901429496705532,1.7311500012874603 l-0.6756646186113358,-0.5850354954600334 -1.2443271279335022,-1.5455524623394012 l-0.6243355572223663,-0.8698386698961258 m-8.92080008983612,11.86579942703247 l-1.428559422492981,1.7178446054458618 -1.323242038488388,2.3374690115451813 l-0.9668418765068054,2.6055875420570374 -0.4066373407840729,2.303972989320755 l0.0934141967445612,1.9117923080921173 m23.639802932739258,-12.519512176513672 l1.1955024302005768,2.423528730869293 1.3782267272472382,3.3932095766067505 l1.1820844560861588,5.030720233917236 -0.026576179079711437,2.7252283692359924 m-25.914669036865234,-0.3757534548640251 l-1.5750814974308014,1.3110464811325073 -1.5029987692832947,1.061244010925293 m5.001336932182312,-2.34096497297287 l-0.5089638009667397,1.7316101491451263 -0.566382147371769,1.77272230386734 m2.276473194360733,-3.377792239189148 l0.6620264053344727,2.429995983839035 0.6669627130031586,1.535969078540802 m14.610533714294434,-2.45702400803566 l-0.8360734581947327,2.364645004272461 -0.554768368601799,0.9881673753261566 m2.8227493166923523,-4.023257195949554 l0.8426281809806824,2.586880326271057 0.6315311044454575,1.747608631849289 " fill="none" stroke="black" stroke-width="1" /></svg>