<?xml version="1.0" encoding="utf-8" ?>
<svg baseProfile="full" height="131.64181007527304" version="1.1" width="91.03195993335248" xmlns="http://www.w3.org/2000/svg" xmlns:ev="http://www.w3.org/2001/xml-events" xmlns:xlink="http://www.w3.org/1999/xlink"><defs /><rect fill="white" height="131.64181007527304" width="91.03195993335248" x="0" y="0" /><path d="M36.354650425419095,46.59932606678922 m-2.4394814670085907,-0.7861202210187912 l-1.276087909936905,-1.112636774778366 -1.7619191110134125,-3.2875877618789673 l-0.858968123793602,-4.707377552986145 0.0001395889194100164,-4.243168532848358 l0.7859710603952408,-2.601381540298462 1.077336072921753,-1.852630376815796 l1.2263410538434982,-0.8739011734724045 1.5796098113059998,0.2070101536810398 l2.535886764526367,3.526841402053833 2.049076557159424,3.427402377128601 l1.9495831429958344,3.0198100209236145 3.434908092021942,-0.4732033610343933 l6.661365032196045,0.003175392630510032 3.262081742286682,0.20601170137524605 l2.0665007829666138,-3.42706561088562 1.9452203810214996,-4.006833434104919 l2.015874981880188,-2.8075313568115234 2.0432664453983307,-1.8101394176483154 l0.9092656522989273,1.1901456862688065 0.8668042719364166,6.5507060289382935 l1.6045346856117249,11.096171140670776 -0.00021863461370230652,4.8096272349357605 l-1.015843227505684,10.602188110351562 -1.3176681101322174,4.0921154618263245 l-1.979638934135437,3.671010136604309 -2.705065608024597,3.1531286239624023 l-3.1935977935791016,2.2133931517601013 -5.58883011341095,1.8721362948417664 l-4.51699286699295,0.4495934396982193 -4.0356117486953735,-0.0011740827176254243 l-3.454214632511139,-0.8447174727916718 -2.9102525115013123,-1.6613443195819855 l-2.5734296441078186,-2.560262978076935 -2.072063982486725,-3.220970630645752 l-1.4255845546722412,-3.785414397716522 -0.7593213021755219,-4.306294322013855 l0.00011545908819243778,-6.316572427749634 1.2875980138778687,-4.249359369277954 l0.8118820190429688,-1.6224737465381622 1.6624322533607483,-2.095493972301483 l0.9962993860244751,-0.6679236888885498 m5.386033654212952,2.6162785291671753 l-1.2038303166627884,0.3227684646844864 -1.9636477530002594,2.5967025756835938 l-0.833120197057724,2.7232107520103455 0.00014903593182680197,3.519812226295471 l0.9814172238111496,1.3920094072818756 1.9899307191371918,1.2210474163293839 l2.5769755244255066,0.5067065730690956 2.726905047893524,0.0005591191802523099 l2.112915962934494,-0.8764614164829254 1.6103234887123108,-1.3096925616264343 l1.0926933586597443,-1.5616007149219513 0.8569274097681046,-2.566244602203369 l0.0003099741297774017,-2.866409122943878 -0.6385109573602676,-1.9721612334251404 l-1.1233440786600113,-1.5906140208244324 -2.1819424629211426,-1.6294533014297485 l-2.539394199848175,-0.8109342306852341 -2.938445806503296,-0.0005513373980647884 l-0.8446717262268066,0.8045482635498047 -0.7382737100124359,1.699787676334381 m17.11992383003235,-1.1580877006053925 l-2.037081718444824,0.9401100873947144 -1.4446407556533813,1.8036480247974396 l-1.2574571371078491,3.56999009847641 0.00013575968296208885,3.2461681962013245 l0.8665149658918381,2.012789100408554 1.6755084693431854,1.5826500952243805 l2.3305748403072357,0.8882482349872589 2.7872830629348755,0.0004818474917556159 l2.0322728157043457,-1.569008082151413 1.3463906943798065,-1.9846747815608978 l0.7763312011957169,-2.104703038930893 0.0002873061748687178,-3.6784642934799194 l-1.350017935037613,-2.2278016805648804 -2.2445639967918396,-1.8632172048091888 l-2.5398483872413635,-1.0407205671072006 -2.3085319995880127,0.00030505145332426764 l-1.9536866247653961,0.7428426295518875 m-4.873893857002258,13.511223793029785 l0.48828020691871643,2.6301968097686768 0.8194270730018616,2.976040542125702 l1.0107529908418655,-0.024477094411849976 1.7642489075660706,-3.854816257953644 l1.032729223370552,-2.092161923646927 0.3081078454852104,-0.6655289232730865 l-4.127312898635864,-0.110950181260705 -1.786523312330246,0.6661888957023621 m-10.997027158737183,11.466813087463379 l-1.1079885065555573,0.37961043417453766 -1.6241927444934845,2.3028330504894257 l-2.300204336643219,5.902460217475891 -0.9489915519952774,4.725269973278046 l-0.42676500976085663,7.2599393129348755 0.5217764526605606,4.549331963062286 l1.2816430628299713,3.7676087021827698 1.9449788331985474,3.3214277029037476 l2.4093422293663025,2.4307820200920105 3.0269986391067505,1.673417091369629 l4.034506380558014,1.0785000026226044 5.105908513069153,2.2477163383882726e-05 l8.708014488220215,-2.7836230397224426 3.4353622794151306,-2.50569611787796 l2.8274530172348022,-3.423122465610504 1.9904394447803497,-4.253661036491394 l1.2187279760837555,-5.257524847984314 0.0003306203871034086,-7.29824423789978 l-1.2058240920305252,-3.982985019683838 -2.0278047025203705,-3.848308026790619 l-2.48166486620903,-3.0560901761054993 -1.1356262862682343,-0.8260340988636017 m-22.2367525100708,1.0522355884313583 l-2.648044526576996,2.0235680043697357 -3.9814993739128113,5.404766798019409 l-2.169506549835205,4.426453411579132 -1.6866624355316162,6.122887134552002 l-0.5334914475679398,4.3523624539375305 0.00021067051420686767,4.913521707057953 l1.0484099388122559,0.9043285250663757 1.5283051133155823,0.0009704232070362195 l2.608847916126251,-2.802521288394928 2.2087055444717407,-3.1209826469421387 l2.946244776248932,-5.829123258590698 1.8197308480739594,-3.8370373845100403 l1.5768511593341827,-3.180980682373047 " fill="none" stroke="black" stroke-width="1" /></svg>