<?xml version="1.0" encoding="utf-8" ?>
<svg baseProfile="full" height="87.55298254240188" version="1.1" width="74.66110645094886" xmlns="http://www.w3.org/2000/svg" xmlns:ev="http://www.w3.org/2001/xml-events" xmlns:xlink="http://www.w3.org/1999/xlink"><defs /><rect fill="white" height="87.55298254240188" width="74.66110645094886" x="0" y="0" /><path d="M32.76120133930817,35.88034024578519 m0.1939554326236248,0.20037109032273293 l1.5825378894805908,1.5655092895030975 2.0514436066150665,1.2482307106256485 l1.258491724729538,0.3914470225572586 3.0703705549240112,0.41284631937742233 l1.7066986858844757,0.014275460271164775 1.538906991481781,-0.17161935567855835 l1.4444588124752045,-0.3459562361240387 1.3074932992458344,-0.5467323586344719 l1.0554669797420502,-0.773584321141243 0.8043704926967621,-1.0603948682546616 l0.6869082152843475,-1.9036564230918884 0.1988024264574051,-2.230890393257141 l-0.2924659475684166,-1.9710125029087067 -0.8192616701126099,-1.7979474365711212 l-1.256396621465683,-1.4172901213169098 -2.6100993156433105,-1.7411510646343231 l-3.2648462057113647,-0.7527850568294525 -3.048827648162842,0.22007785737514496 l-1.91498264670372,0.7346731424331665 -1.4537043869495392,0.9321153163909912 l-1.1023105680942535,1.1200224608182907 -0.8103276789188385,1.3343444466590881 l-0.5343696102499962,1.6023561358451843 -0.278430450707674,2.6365891098976135 l0.14806083403527737,1.8132570385932922 0.45490898191928864,1.3878987729549408 l0.4216424748301506,0.5973316729068756 0.4913330078125,0.273395087569952 l0.8142327517271042,0.002096040843753144 1.1765570938587189,-0.35193584859371185 l0.7820955663919449,-0.5382674187421799 0.419071763753891,-0.6063984334468842 l0.0972098670899868,-1.1430082470178604 -0.5669752135872841,-1.4698120951652527 l-1.036147028207779,-1.3135376572608948 -0.8950846642255783,-0.6449680030345917 l-1.3347269594669342,-0.4220813885331154 -1.769430935382843,0.024199755862355232 l-2.0281004905700684,0.7483790069818497 -1.251685619354248,0.8787012845277786 l-0.8037097007036209,0.9522110223770142 -0.4982241615653038,1.0900890827178955 l-0.16956808045506477,1.1360657215118408 0.16598986461758614,1.1010322719812393 l0.5054000020027161,0.8387146890163422 0.8173280209302902,0.6296470761299133 l1.181202009320259,0.38765739649534225 1.493600755929947,0.05964275449514389 l1.7679306864738464,-0.3652329370379448 1.1847280710935593,-0.5313858017325401 l0.9183605760335922,-0.7531438022851944 0.4094238206744194,-0.7164733111858368 l0.03528435481712222,-0.6638068705797195 -0.5388057231903076,-0.9140802174806595 l-0.5586474761366844,-0.46946078538894653 -1.1139269173145294,-0.3147660568356514 l-1.8698076903820038,0.06868393626064062 -2.2732992470264435,0.7765642553567886 l-1.4478987455368042,0.8193901926279068 -1.0265175253152847,0.8811772614717484 l-0.7281932234764099,0.9776689112186432 -0.45472413301467896,1.0692943632602692 l-0.1939706690609455,1.1509507149457932 0.11508138850331306,1.149599850177765 l0.45445457100868225,0.9705334901809692 0.761236846446991,0.709824413061142 l1.0915107280015945,0.43630681931972504 1.4862258732318878,0.12008670717477798 l1.7706695199012756,-0.3033614158630371 1.2384606152772903,-0.4940291866660118 l1.6529765725135803,-1.1700482666492462 0.7057052105665207,-0.9027372300624847 l0.514933280646801,-1.5427030622959137 0.034608959686011076,-1.9319896399974823 l-0.29397835955023766,-0.7187724858522415 -0.5026797577738762,-0.5025095120072365 m0.9229264408349991,8.099309802055359 l-0.15546186827123165,1.5309204161167145 0.18755577504634857,2.5719889998435974 l0.8026653528213501,4.930151700973511 0.2704816311597824,4.40561980009079 l-0.10326853953301907,1.701177954673767 -0.3203142061829567,1.0995661467313766 l-0.5046233907341957,0.7937745749950409 -1.073787808418274,0.8975520730018616 l0.4648268595337868,-0.33939603716135025 1.348031908273697,-0.8325553685426712 l1.0464216023683548,0.3193643316626549 1.0968350619077682,1.2837807834148407 l-0.8501429855823517,-0.7732857018709183 -1.6571488976478577,-1.4454862475395203 l1.1585696041584015,0.6484133005142212 2.3689651489257812,1.8160176277160645 l-0.9730140119791031,-0.758555456995964 -2.0001237094402313,-1.6792386770248413 l-1.0907003283500671,-1.3144680857658386 -0.5872533842921257,-0.9749336540699005 l-0.2584664709866047,-0.7731276005506516 0.05609817337244749,-1.036345288157463 l0.5574461817741394,-0.5186512693762779 1.333644986152649,-0.43665871024131775 l0.5711252987384796,-0.2564960904419422 0.47820180654525757,-0.6364264339208603 l0.38618337363004684,-1.419028490781784 " fill="none" stroke="black" stroke-width="1" /></svg>