<?xml version="1.0" encoding="utf-8" ?>
<svg baseProfile="full" height="97.78663277626038" version="1.1" width="163.6619931459427" xmlns="http://www.w3.org/2000/svg" xmlns:ev="http://www.w3.org/2001/xml-events" xmlns:xlink="http://www.w3.org/1999/xlink"><defs /><rect fill="white" height="97.78663277626038" width="163.6619931459427" x="0" y="0" /><path d="M33.90937216579914,29.589676931500435 m-2.6998096704483032,0.2699809893965721 l-1.3499048352241516,0.8099429309368134 -3.5097527503967285,3.2397717237472534 l-0.8099429309368134,1.3499048352241516 0.0,1.8898668885231018 l-0.5399619787931442,0.2699809893965721 0.2699809893965721,5.3996193408966064 l0.5399619787931442,2.159847915172577 0.8099429309368134,1.0799239575862885 l2.9697906970977783,1.6198858618736267 7.289486527442932,0.5399619787931442 l2.9697906970977783,-1.8898668885231018 1.3499048352241516,-1.8898668885231018 l0.5399619787931442,-2.42982879281044 0.0,-4.85965758562088 l-2.9697906970977783,-4.85965758562088 -6.479543447494507,-4.049714803695679 m4.319695830345154,2.159847915172577 l0.2699809893965721,-0.5399619787931442 0.8099429309368134,0.0 l1.8898668885231018,-1.0799239575862885 1.3499048352241516,0.0 l3.7797337770462036,-1.6198858618736267 4.589676558971405,0.0 l3.5097527503967285,-0.5399619787931442 5.3996193408966064,-1.0799239575862885 l0.2699809893965721,-0.5399619787931442 29.427926540374756,0.0 l13.769030570983887,1.3499048352241516 11.069220304489136,1.8898668885231018 l2.9697906970977783,1.0799239575862885 8.369410634040833,4.319695830345154 l3.2397717237472534,1.0799239575862885 1.8898668885231018,1.3499048352241516 l7.289486527442932,2.6998096704483032 1.8898668885231018,3.2397717237472534 l0.2699809893965721,1.8898668885231018 0.0,5.3996193408966064 l-2.159847915172577,5.3996193408966064 -8.639391660690308,14.039011001586914 l-3.5097527503967285,2.6998096704483032 -11.069220304489136,1.3499048352241516 l-11.609182357788086,0.0 -9.71931517124176,-1.8898668885231018 l-3.7797337770462036,0.0 -8.909372091293335,-2.159847915172577 l-12.689106464385986,-6.479543447494507 -5.3996193408966064,-2.159847915172577 l-1.3499048352241516,-1.0799239575862885 -6.479543447494507,-2.6998096704483032 l-3.7797337770462036,-2.42982879281044 -12.149144411087036,-4.589676558971405 " fill="none" stroke="black" stroke-width="1" /></svg>