<?xml version="1.0" encoding="utf-8" ?>
<svg baseProfile="full" height="77.26807843893766" version="1.1" width="120.19505523145199" xmlns="http://www.w3.org/2000/svg" xmlns:ev="http://www.w3.org/2001/xml-events" xmlns:xlink="http://www.w3.org/1999/xlink"><defs /><rect fill="white" height="77.26807843893766" width="120.19505523145199" x="0" y="0" /><path d="M95.19505523145199,34.98929616063833 m0.0,-2.9697906970977783 l-1.6198858618736267,-1.0799239575862885 -2.9697906970977783,-0.8099429309368134 l-1.6198858618736267,1.0799239575862885 -1.0799239575862885,1.3499048352241516 l-2.9697906970977783,-2.159847915172577 -8.369410634040833,-0.5399619787931442 l-3.5097527503967285,0.2699809893965721 -4.85965758562088,-2.9697906970977783 l-5.129638910293579,0.8099429309368134 -3.5097527503967285,-2.6998096704483032 l-6.209562420845032,0.8099429309368134 -2.42982879281044,1.0799239575862885 l-4.589676558971405,-2.159847915172577 -8.369410634040833,3.5097527503967285 l-3.2397717237472534,-3.2397717237472534 -0.5399619787931442,0.2699809893965721 l-0.5399619787931442,1.8898668885231018 -1.0799239575862885,1.6198858618736267 l-3.2397717237472534,-1.6198858618736267 0.0,2.9697906970977783 l-3.7797337770462036,5.3996193408966064 -0.5399619787931442,2.42982879281044 l0.0,2.6998096704483032 1.3499048352241516,1.0799239575862885 l3.7797337770462036,0.5399619787931442 2.9697906970977783,-0.8099429309368134 l2.159847915172577,-1.6198858618736267 1.6198858618736267,-2.9697906970977783 l1.0799239575862885,2.6998096704483032 1.6198858618736267,2.159847915172577 l4.049714803695679,0.2699809893965721 -1.3499048352241516,2.9697906970977783 l0.2699809893965721,1.0799239575862885 2.42982879281044,2.42982879281044 l1.3499048352241516,0.0 1.8898668885231018,-1.0799239575862885 l2.159847915172577,-2.159847915172577 0.8099429309368134,2.9697906970977783 l0.0,3.5097527503967285 0.8099429309368134,0.2699809893965721 l2.159847915172577,0.0 0.2699809893965721,-4.85965758562088 l1.0799239575862885,4.589676558971405 1.8898668885231018,0.2699809893965721 l0.5399619787931442,-0.8099429309368134 0.5399619787931442,-5.129638910293579 l1.6198858618736267,2.42982879281044 1.0799239575862885,0.0 l3.5097527503967285,-1.0799239575862885 1.3499048352241516,-2.9697906970977783 l1.0799239575862885,2.159847915172577 2.42982879281044,0.5399619787931442 l1.8898668885231018,0.0 2.42982879281044,-2.6998096704483032 l0.2699809893965721,1.8898668885231018 0.8099429309368134,1.6198858618736267 l2.42982879281044,-0.8099429309368134 1.0799239575862885,-1.3499048352241516 l0.8099429309368134,0.0 0.0,4.85965758562088 l1.0799239575862885,0.2699809893965721 0.8099429309368134,-3.2397717237472534 l1.0799239575862885,2.159847915172577 1.0799239575862885,0.2699809893965721 l0.2699809893965721,-3.7797337770462036 4.319695830345154,0.0 l1.3499048352241516,-1.3499048352241516 1.3499048352241516,-3.5097527503967285 l2.9697906970977783,-2.42982879281044 0.5399619787931442,-2.159847915172577 m-63.985490798950195,-2.9697906970977783 l1.0799239575862885,0.0 0.8099429309368134,-0.8099429309368134 " fill="none" stroke="black" stroke-width="1" /></svg>