<?xml version="1.0" encoding="utf-8" ?>
<svg baseProfile="full" height="105.61608135700226" version="1.1" width="75.10823130607605" xmlns="http://www.w3.org/2000/svg" xmlns:ev="http://www.w3.org/2001/xml-events" xmlns:xlink="http://www.w3.org/1999/xlink"><defs /><rect fill="white" height="105.61608135700226" width="75.10823130607605" x="0" y="0" /><path d="M37.149144522845745,31.749524250626564 m-1.0799239575862885,0.5399619787931442 l-2.159847915172577,2.42982879281044 -0.2699809893965721,2.6998096704483032 l3.7797337770462036,0.2699809893965721 2.42982879281044,-2.159847915172577 m-4.049714803695679,2.159847915172577 l0.5399619787931442,0.0 1.3499048352241516,-1.6198858618736267 l0.5399619787931442,-2.6998096704483032 m-1.0799239575862885,-2.9697906970977783 l0.0,-2.159847915172577 0.5399619787931442,-0.2699809893965721 l0.8099429309368134,0.0 0.5399619787931442,0.5399619787931442 l0.0,2.42982879281044 -1.3499048352241516,0.2699809893965721 l0.0,-0.8099429309368134 m1.6198858618736267,-1.3499048352241516 l0.0,-1.0799239575862885 1.0799239575862885,0.0 l0.5399619787931442,0.5399619787931442 0.0,1.3499048352241516 l-0.5399619787931442,0.8099429309368134 -1.0799239575862885,0.2699809893965721 l0.0,-0.5399619787931442 m-1.8898668885231018,-0.8099429309368134 l3.7797337770462036,-0.5399619787931442 m-2.6998096704483032,-1.8898668885231018 l0.2699809893965721,-0.8099429309368134 1.0799239575862885,-0.8099429309368134 l1.0799239575862885,-0.2699809893965721 0.2699809893965721,1.3499048352241516 l0.5399619787931442,-0.8099429309368134 1.3499048352241516,-0.2699809893965721 l1.0799239575862885,0.2699809893965721 -0.2699809893965721,2.6998096704483032 l3.5097527503967285,0.2699809893965721 -0.5399619787931442,4.049714803695679 l-1.6198858618736267,0.2699809893965721 0.5399619787931442,0.0 l0.8099429309368134,1.0799239575862885 0.0,2.42982879281044 l-2.159847915172577,1.6198858618736267 1.8898668885231018,0.0 l0.2699809893965721,1.0799239575862885 2.6998096704483032,3.7797337770462036 l0.0,2.42982879281044 -1.0799239575862885,1.3499048352241516 l-1.6198858618736267,0.0 1.3499048352241516,0.2699809893965721 l0.8099429309368134,1.0799239575862885 0.0,3.7797337770462036 l-2.159847915172577,1.6198858618736267 1.8898668885231018,0.8099429309368134 l1.6198858618736267,2.42982879281044 0.0,2.6998096704483032 l-0.5399619787931442,1.6198858618736267 -1.0799239575862885,0.2699809893965721 l-1.3499048352241516,1.3499048352241516 2.159847915172577,2.159847915172577 l0.0,1.3499048352241516 -0.2699809893965721,0.8099429309368134 l-1.6198858618736267,1.3499048352241516 -3.2397717237472534,0.0 l-2.159847915172577,-0.5399619787931442 -0.2699809893965721,-0.5399619787931442 l0.0,0.8099429309368134 -0.8099429309368134,0.8099429309368134 l-3.5097527503967285,0.2699809893965721 -1.3499048352241516,-0.5399619787931442 l0.2699809893965721,-1.3499048352241516 -3.5097527503967285,0.0 l-1.0799239575862885,-0.8099429309368134 -0.8099429309368134,-1.3499048352241516 l0.0,-1.6198858618736267 1.8898668885231018,-1.8898668885231018 l-0.5399619787931442,0.0 -1.0799239575862885,-1.3499048352241516 l-0.5399619787931442,-2.6998096704483032 2.159847915172577,-1.8898668885231018 l-1.0799239575862885,-1.8898668885231018 0.2699809893965721,-2.159847915172577 l2.159847915172577,-1.6198858618736267 -2.159847915172577,-2.159847915172577 l0.0,-2.159847915172577 1.0799239575862885,-1.3499048352241516 l-1.3499048352241516,-1.3499048352241516 -0.2699809893965721,-1.0799239575862885 l1.3499048352241516,-1.6198858618736267 2.159847915172577,-1.3499048352241516 l0.2699809893965721,-1.6198858618736267 m-3.2397717237472534,10.799238681793213 l-3.5097527503967285,0.2699809893965721 -2.6998096704483032,-0.5399619787931442 m19.43863034248352,-3.7797337770462036 l-1.3499048352241516,1.8898668885231018 -2.159847915172577,1.8898668885231018 l-5.6696003675460815,0.5399619787931442 m0.0,20.518555641174316 l-1.3499048352241516,0.8099429309368134 -0.8099429309368134,1.6198858618736267 l0.2699809893965721,2.9697906970977783 1.8898668885231018,2.42982879281044 l0.0,2.9697906970977783 m0.2699809893965721,-10.529258251190186 l-0.5399619787931442,0.0 -0.2699809893965721,0.5399619787931442 l0.0,1.6198858618736267 -0.8099429309368134,1.8898668885231018 l0.2699809893965721,-3.7797337770462036 -1.0799239575862885,2.159847915172577 l0.5399619787931442,0.0 1.0799239575862885,-1.6198858618736267 m0.5399619787931442,-1.3499048352241516 l-1.8898668885231018,1.3499048352241516 0.0,2.42982879281044 l0.8099429309368134,1.6198858618736267 0.8099429309368134,0.5399619787931442 l0.2699809893965721,5.3996193408966064 m-0.5399619787931442,-12.689106464385986 l0.2699809893965721,1.0799239575862885 2.42982879281044,0.5399619787931442 l1.8898668885231018,-0.2699809893965721 1.6198858618736267,-1.6198858618736267 m-6.479543447494507,1.6198858618736267 l0.2699809893965721,0.5399619787931442 -0.8099429309368134,3.5097527503967285 l0.5399619787931442,0.8099429309368134 0.0,7.019505500793457 m7.289486527442932,-12.419124841690063 l-0.2699809893965721,1.8898668885231018 -1.3499048352241516,1.6198858618736267 l-0.2699809893965721,2.9697906970977783 0.5399619787931442,1.0799239575862885 l2.159847915172577,1.0799239575862885 0.0,1.8898668885231018 l-0.5399619787931442,0.8099429309368134 0.5399619787931442,-3.7797337770462036 l-2.6998096704483032,-1.6198858618736267 0.5399619787931442,-0.8099429309368134 l0.0,-4.319695830345154 m-5.6696003675460815,-1.8898668885231018 l-3.7797337770462036,0.2699809893965721 -2.159847915172577,-1.8898668885231018 l0.0,-0.8099429309368134 0.8099429309368134,-0.8099429309368134 l0.8099429309368134,-2.159847915172577 1.3499048352241516,-0.8099429309368134 l-0.5399619787931442,0.0 -1.3499048352241516,-1.8898668885231018 l0.0,-1.3499048352241516 2.42982879281044,-1.8898668885231018 l-1.3499048352241516,-1.3499048352241516 0.0,-2.42982879281044 l0.8099429309368134,-1.3499048352241516 0.5399619787931442,0.0 l0.5399619787931442,-0.8099429309368134 -0.8099429309368134,-0.5399619787931442 l-1.0799239575862885,-1.8898668885231018 0.0,-1.8898668885231018 l0.8099429309368134,-0.5399619787931442 0.0,-0.5399619787931442 l-1.0799239575862885,-0.8099429309368134 0.0,-1.8898668885231018 l4.049714803695679,-3.5097527503967285 0.0,-0.5399619787931442 m3.2397717237472534,-10.799238681793213 l0.2699809893965721,-1.6198858618736267 2.6998096704483032,-0.2699809893965721 l-0.2699809893965721,1.3499048352241516 1.0799239575862885,-0.8099429309368134 l0.8099429309368134,0.0 1.6198858618736267,1.6198858618736267 l-0.5399619787931442,1.6198858618736267 -0.8099429309368134,0.2699809893965721 l3.5097527503967285,0.2699809893965721 0.0,1.8898668885231018 l-1.6198858618736267,1.6198858618736267 1.6198858618736267,1.0799239575862885 l0.0,1.3499048352241516 -1.0799239575862885,2.42982879281044 l-1.3499048352241516,0.2699809893965721 2.159847915172577,2.159847915172577 l0.8099429309368134,0.2699809893965721 0.2699809893965721,3.7797337770462036 l-1.8898668885231018,2.159847915172577 1.6198858618736267,-1.0799239575862885 l1.3499048352241516,0.0 0.0,2.42982879281044 l-2.6998096704483032,0.5399619787931442 1.0799239575862885,0.0 l1.0799239575862885,1.3499048352241516 0.0,4.049714803695679 l-0.8099429309368134,0.8099429309368134 -1.3499048352241516,0.0 l3.5097527503967285,2.42982879281044 0.0,1.6198858618736267 l-1.6198858618736267,2.42982879281044 -1.8898668885231018,1.8898668885231018 l3.5097527503967285,0.2699809893965721 0.0,4.319695830345154 l-1.3499048352241516,1.0799239575862885 -2.6998096704483032,0.5399619787931442 l-3.5097527503967285,-0.5399619787931442 m-7.289486527442932,-20.788536071777344 l0.0,0.8099429309368134 5.6696003675460815,0.0 l3.2397717237472534,-1.6198858618736267 1.6198858618736267,-1.6198858618736267 l0.0,-0.5399619787931442 m-20.518555641174316,2.9697906970977783 l1.0799239575862885,0.5399619787931442 5.6696003675460815,0.0 " fill="none" stroke="black" stroke-width="1" /></svg>