<?xml version="1.0" encoding="utf-8" ?>
<svg baseProfile="full" height="67.98663643654436" version="1.1" width="67.5732497125864" xmlns="http://www.w3.org/2000/svg" xmlns:ev="http://www.w3.org/2001/xml-events" xmlns:xlink="http://www.w3.org/1999/xlink"><defs /><rect fill="white" height="67.98663643654436" width="67.5732497125864" x="0" y="0" /><path d="M36.18012103647743,26.875109086977318 m0.5848810076713562,-0.010923329973593354 l0.6814948469400406,0.3222796320915222 1.810452938079834,1.037825122475624 l0.988137349486351,0.5226970091462135 1.0710737109184265,1.0255981981754303 l0.7634512335062027,1.367224007844925 0.49355123192071915,1.8476876616477966 l8.635758604214061e-05,3.2914331555366516 -0.3197742998600006,1.5929330885410309 l-0.5498845502734184,1.2382148951292038 -1.13611601293087,1.4414875209331512 l-1.1459498852491379,0.9471080452203751 -2.0311668515205383,0.9750669449567795 l-2.566123306751251,0.5128953978419304 -2.9727840423583984,-0.08739655837416649 l-2.4762092530727386,-0.7822439074516296 -1.7903116345405579,-1.143229603767395 l-1.2575362622737885,-1.3819117844104767 -0.8533158898353577,-1.6643287241458893 l-0.4740777239203453,-2.0679178833961487 0.12359987013041973,-2.915360927581787 l0.7184693217277527,-2.1839751303195953 0.9196212142705917,-1.5482424199581146 l1.0790128260850906,-1.183740273118019 2.0088300108909607,-1.4195074141025543 l1.7094747722148895,-0.7171640545129776 1.6541951894760132,-0.30959954485297203 l1.6613304615020752,0.0862350594252348 1.647486835718155,0.5236391723155975 l0.7780949026346207,0.565103180706501 1.169009506702423,1.5135467052459717 l0.5186888575553894,1.203712597489357 0.18785672262310982,1.0929576307535172 l-0.10285730473697186,0.9972940385341644 -0.43620485812425613,0.876527950167656 l-0.6912126392126083,0.6840818375349045 -1.2581905722618103,0.589132122695446 l-1.6398535668849945,0.2430923655629158 -1.8597373366355896,-0.28446439653635025 l-1.38915553689003,-0.9235996752977371 -0.518469326198101,-0.8812490105628967 l-0.07711146492511034,-0.8773324638605118 0.31299103051424026,-0.8653133362531662 l0.6254013627767563,-0.7625008374452591 0.7545472681522369,-0.5409478396177292 l0.801222026348114,-0.24780618026852608 0.7830508053302765,0.06030708085745573 l1.0333733260631561,0.7325943559408188 0.5438646301627159,0.749918520450592 l0.21309103816747665,0.7919352501630783 -0.14300458133220673,0.7513771206140518 l-0.5190881341695786,0.6278941780328751 -1.2731428444385529,0.6283470988273621 l-1.750827580690384,0.2351624146103859 -2.02623188495636,-0.2794361859560013 l-0.8216484636068344,-0.4448968172073364 -0.7778891175985336,-1.0725431889295578 l-0.27302997186779976,-0.9443354606628418 0.07192878983914852,-0.8429352939128876 l0.3832538053393364,-0.7716633379459381 0.6071020290255547,-0.5950295180082321 l1.1039482057094574,-0.4994654282927513 1.0597273707389832,-0.1280025579035282 l1.4151959121227264,0.4682321846485138 0.5136801302433014,0.5208539962768555 l0.20835019648075104,0.5971324443817139 -0.12708078138530254,0.6044815853238106 l-0.5168982595205307,0.5061641708016396 -1.1479689180850983,0.45289695262908936 l-1.4671914279460907,0.157528817653656 -1.4560699462890625,-0.329829640686512 l-1.1676934361457825,-0.8608882129192352 -0.48761893063783646,-0.7709120959043503 l-0.10944253765046597,-1.1161410063505173 0.2845887094736099,-1.0559199005365372 l0.5592219159007072,-0.8368585258722305 0.7238290458917618,-0.5958221107721329 l0.817454382777214,-0.31427402049303055 0.8286869525909424,0.007080206414684653 l0.7747644186019897,0.3386276587843895 0.6596390157938004,0.6486541777849197 l0.3293757140636444,0.6726369261741638 0.04256347194314003,0.67823126912117 l-0.29740016907453537,0.5882521346211433 -0.5690200254321098,0.39508841931819916 l-1.1143437027931213,0.2934051491320133 -1.3492687046527863,-0.034495063591748476 l-0.5827246233820915,-0.2526833489537239 -0.5435479804873466,-0.7822834700345993 l-0.24473696947097778,-0.781128779053688 0.046452698297798634,-0.6221385672688484 l0.27990683913230896,-0.42338643223047256 0.7668515294790268,-0.42136814445257187 l0.8589286357164383,-0.15321324579417706 1.1983884871006012,0.3029346466064453 l0.9172554314136505,0.6438387930393219 0.5384625867009163,0.65955750644207 l0.245947428047657,0.6855213642120361 -0.0749630481004715,0.6138812005519867 l-0.4127729684114456,0.4758027195930481 -0.9971323609352112,0.4836948588490486 l-1.4277030527591705,0.23082857951521873 -1.4740541577339172,-0.18556693568825722 l-1.1947955936193466,-0.617484487593174 -0.437682680785656,-0.5559812858700752 " fill="none" stroke="black" stroke-width="1" /></svg>