<?xml version="1.0" encoding="utf-8" ?>
<svg baseProfile="full" height="96.68696977198124" version="1.1" width="106.74957921790451" xmlns="http://www.w3.org/2000/svg" xmlns:ev="http://www.w3.org/2001/xml-events" xmlns:xlink="http://www.w3.org/1999/xlink"><defs /><rect fill="white" height="96.68696977198124" width="106.74957921790451" x="0" y="0" /><path d="M30.529875491048415,40.63275057020746 m-0.6891089677810669,-2.2485309839248657 l0.9563422203063965,-3.7571358680725098 2.239730954170227,-5.5529701709747314 l1.9563017785549164,-3.4861785173416138 2.276630848646164,0.5447567999362946 l1.8529370427131653,2.2814084589481354 1.5276116132736206,2.722143530845642 l2.0689772069454193,3.9398735761642456 2.0737305283546448,1.4602448046207428 l4.463776648044586,-1.2015549093484879 6.3595932722091675,-1.0220877081155777 l6.305490136146545,-6.253960691537941e-05 2.448928952217102,0.4124954342842102 l2.439049929380417,1.086842194199562 2.829199731349945,-2.5006771087646484 l4.5350101590156555,-5.814195871353149 2.8029438853263855,-2.4971216917037964 l1.7117191851139069,2.5159701704978943 -0.0003435188773437403,7.0093536376953125 l0.09276644326746464,2.311108559370041 0.061377570964396,2.2654762864112854 l0.6948091834783554,2.8319063782691956 2.212228924036026,6.105907559394836 l-4.078132405993529e-05,5.779369473457336 -0.5063073709607124,2.702607214450836 l-1.1872011423110962,2.6588600873947144 -1.6862496733665466,2.6402607560157776 l-2.092057168483734,2.388980984687805 -2.5577300786972046,2.1144331991672516 l-4.9050173163414,2.7933278679847717 -5.675274729728699,1.831718385219574 l-4.195851981639862,0.7376892119646072 -8.028826713562012,-0.00021788619051221758 l-3.765696883201599,-1.1068237572908401 -3.2019665837287903,-1.4391696453094482 l-2.9222488403320312,-1.780368834733963 -2.6100048422813416,-2.112785428762436 l-2.242613434791565,-2.4402564764022827 -1.853153556585312,-2.7093112468719482 l-1.459687352180481,-2.9755237698554993 -0.9524855017662048,-2.9814669489860535 l-1.844484472712793e-05,-5.961902141571045 1.0143344849348068,-2.4716465175151825 l1.6334278881549835,-1.578962355852127 m14.910030364990234,7.448947429656982 l-0.5466463789343834,2.307637184858322 2.2314560413360596,0.20706532523036003 l0.8340085297822952,-2.253406196832657 -0.7855577766895294,-1.9251522421836853 l-1.3687768578529358,3.113046659564134e-05 -0.9392260760068893,2.1110540628433228 l-0.00017783329894882627,1.6987919807434082 2.084599882364273,0.14048938639461994 l0.729769766330719,-1.8997552990913391 -1.4836978912353516,-0.115136057138443 l-1.118638515472412,1.7755913734436035 m10.513489246368408,-2.856132388114929 l2.487342208623886,-0.5956979840993881 2.9979148507118225,-0.8970559388399124 l4.525951147079468,1.769354980751814e-05 4.416993260383606,-5.2165923989377916e-05 l3.373199999332428,-9.262779713026248e-05 m-15.440071821212769,6.449418663978577 l2.728908061981201,0.18692431971430779 5.268278121948242,-0.00021599918909487315 l4.065696597099304,0.6682617962360382 3.018186092376709,1.070702224969864 m-14.369317293167114,2.706337869167328 l2.6049867272377014,0.7450621575117111 2.9166242480278015,1.4896517992019653 l2.8970730304718018,1.7875014245510101 2.34157994389534,1.851850152015686 m-31.776652336120605,-13.977185487747192 l-2.5976216793060303,-0.6229304149746895 -5.061852335929871,5.2095551836828236e-05 l-3.671908676624298,0.5801266804337502 -3.0755800008773804,1.0706789046525955 l-2.265271842479706,1.3214333355426788 m16.991292238235474,2.063145637512207 l-3.231572210788727,1.162274330854416 -2.7956390380859375,1.190611645579338 l-2.4349477887153625,1.3864275813102722 -2.084965407848358,1.7501047253608704 m12.777912616729736,-1.0587090253829956 l-2.617892622947693,1.5344198048114777 -2.415337711572647,1.6226382553577423 l-2.165478616952896,2.219010591506958 -1.5953721106052399,2.3849864304065704 m11.681878566741943,-24.66879367828369 l0.027837178204208612,0.0004044867091579363 0.6003478541970253,0.25683531537652016 l-0.6586275994777679,0.26557348668575287 m11.700371503829956,-0.9984474629163742 l-0.07949927821755409,0.4437120631337166 -0.0014756922610104084,-0.6742929667234421 m-8.34035873413086,9.899946451187134 l2.2248831391334534,0.025245000142604113 0.8109576255083084,0.5737538263201714 l-0.3814321383833885,2.145605683326721 -1.6173245012760162,1.4478486776351929 l-1.6750575602054596,-1.2884178757667542 -0.14901419170200825,-1.4196023344993591 " fill="none" stroke="black" stroke-width="1" /></svg>