<?xml version="1.0" encoding="utf-8" ?>
<svg baseProfile="full" height="87.05600563544067" version="1.1" width="121.97176563693574" xmlns="http://www.w3.org/2000/svg" xmlns:ev="http://www.w3.org/2001/xml-events" xmlns:xlink="http://www.w3.org/1999/xlink"><defs /><rect fill="white" height="87.05600563544067" width="121.97176563693574" x="0" y="0" /><path d="M65.68094610780463,25 m-0.8111224323511124,0.6830739229917526 l-0.9071361273527145,0.49256615340709686 -2.188722789287567,1.2994840741157532 l-2.749394476413727,1.5348529815673828 -4.845753610134125,3.1264960765838623 l-4.403665661811829,3.7481465935707092 -3.2564592361450195,4.324051141738892 l-1.222798228263855,2.6258060336112976 -0.7894372195005417,5.077690482139587 l-7.75273292674683e-05,3.984535336494446 1.1941155791282654,2.098042070865631 l2.7533426880836487,2.4923285841941833 4.109581708908081,1.973911076784134 l5.115448832511902,1.2957745790481567 7.167347073554993,-0.00014159809325064998 l3.5086071491241455,-0.453435555100441 7.694385051727295,-1.8144814670085907 l6.582597494125366,-2.094331681728363 5.603433847427368,-2.2863776981830597 l5.777304172515869,-3.653499484062195 1.9253817200660706,-2.5714004039764404 l1.0338415205478668,-2.877015769481659 -0.00012081884051440284,-4.058842957019806 l-0.995873436331749,-2.32707142829895 -1.9375120103359222,-2.41198793053627 l-2.4731190502643585,-2.069837301969528 -6.406688690185547,-3.518306016921997 l-3.5695424675941467,-1.3216578960418701 -3.835987150669098,-1.8454329669475555 l-3.4396174550056458,-0.8446924388408661 -5.039595365524292,-3.7307584079826484e-05 l-3.1898346543312073,-0.14778254553675652 -4.146871268749237,-1.9960468762292294e-05 l-2.1677877008914948,0.14904280193150043 -4.88759845495224,0.6659387797117233 l-2.6709264516830444,0.11166442185640335 -4.45372074842453,0.21457405760884285 l-5.794998407363892,0.494455061852932 -5.3174203634262085,0.8098012953996658 l-5.2411311864852905,1.361061930656433 -1.7354899644851685,0.8210118114948273 l-2.7683141827583313,2.0951467752456665 -1.2079717963933945,1.6388189792633057 l-0.6915595382452011,1.7975814640522003 -8.447399522992782e-05,2.0878225564956665 l2.5254997611045837,2.8978824615478516 2.449498474597931,1.808609664440155 l2.4953633546829224,1.1785125732421875 3.178151845932007,-9.419860361958854e-05 l1.4572836458683014,-0.030048491898924112 3.843172788619995,-1.2853267788887024 l3.5547372698783875,-2.1981994807720184 1.664477288722992,-1.7655135691165924 l0.9965792298316956,-1.98613703250885 1.979202579605044e-05,-3.1087496876716614 l-1.1670760065317154,-1.7924807965755463 -1.9796057045459747,-1.4893968403339386 l-2.3655283451080322,-1.0906203836202621 -2.886248826980591,-0.0001310575862589758 l-2.0163623988628387,0.6046675145626068 -2.5334933400154114,1.7448562383651733 l-1.3907407224178314,1.6104170680046082 -0.9857268631458282,2.3700618743896484 l0.00011738964531105012,1.4092038571834564 0.6824465841054916,1.1045131832361221 l2.2266951203346252,1.3406136631965637 2.2090859711170197,-8.206678103306331e-05 l2.902202308177948,-0.00011748688848456368 2.822410464286804,-0.0001321197851211764 l3.105921447277069,-0.00010693107469705865 0.8219995349645615,-1.0617351531982422 l3.707774340000469e-05,-2.196109890937805 -1.382381021976471,-1.6571380198001862 l-1.9788533449172974,-1.1686446517705917 -2.3055925965309143,-0.00010731755537563004 l-1.3723550736904144,0.6817436218261719 -2.2751758992671967,2.5425440073013306 l-0.6212169304490089,1.0630306601524353 0.00011993285625067074,1.3540694117546082 l2.22380593419075,0.4269108921289444 2.52727210521698,-0.00012642618457903154 l0.6888069212436676,-1.0781648010015488 5.164461072126869e-05,-1.983315646648407 l-1.2753823399543762,-0.97685307264328 m1.4949212968349457,10.67408800125122 l-3.5640692710876465,2.6591384410858154 -5.662132501602173,4.627246260643005 l-4.078679382801056,4.0992215275764465 m14.075127840042114,-9.011967778205872 l-6.153872609138489,6.038445234298706 -5.254865288734436,5.9201425313949585 l-1.5505775809288025,2.0740599930286407 m31.564693450927734,-15.318822860717773 l6.998385190963745,2.2921891510486603 9.945931434631348,3.4359094500541687 l3.290400803089142,0.9072966128587723 2.3570027947425842,0.43516382575035095 m-20.192413330078125,-3.8165903091430664 l3.40774267911911,2.7334117889404297 8.072380423545837,5.682628154754639 l1.6131530702114105,1.4348198473453522 " fill="none" stroke="black" stroke-width="1" /></svg>