<?xml version="1.0" encoding="utf-8" ?>
<svg baseProfile="full" height="85.88397410015205" version="1.1" width="89.10410450656059" xmlns="http://www.w3.org/2000/svg" xmlns:ev="http://www.w3.org/2001/xml-events" xmlns:xlink="http://www.w3.org/1999/xlink"><defs /><rect fill="white" height="85.88397410015205" width="89.10410450656059" x="0" y="0" /><path d="M49.415484701187324,30.84539815959033 m-3.1611543893814087,-0.6420815736055374 l-5.779058337211609,0.00018671227735467255 -2.5146904587745667,0.368756540119648 l-2.722182869911194,0.8742835372686386 -2.668556272983551,1.3397669792175293 l-2.3738346993923187,1.7640067636966705 -1.9465425610542297,2.110797166824341 l-2.2300630807876587,4.187022149562836 -1.0193796455860138,3.4453141689300537 l-2.238610477434122e-05,5.616064071655273 0.5054077506065369,2.1719060838222504 l1.034756749868393,2.108815312385559 1.4804239571094513,1.9420623779296875 l3.220510482788086,2.5166985392570496 3.3020973205566406,1.4946456253528595 l3.279646635055542,0.7403314858675003 5.278060436248779,-6.420786121452693e-05 l3.1922322511672974,-1.2619708478450775 2.884005308151245,-1.7757396399974823 l2.5480183959007263,-2.221364676952362 2.0260000228881836,-2.431260794401169 l1.4943456649780273,-2.6286929845809937 1.2921088933944702,-4.309930205345154 l1.2720585118586314e-05,-6.435192227363586 -0.6666289269924164,-2.0133887231349945 l-3.148362636566162,-4.266258776187897 -2.840196192264557,-2.3605525493621826 l-1.9648900628089905,-0.731167197227478 m-19.108699560165405,4.878318607807159 l-0.7414700090885162,-2.0434439182281494 -6.359110557241365e-05,-5.746611952781677 l0.14866738580167294,-1.9658163189888 1.7591699957847595,0.22836202755570412 l3.4318506717681885,3.7990087270736694 1.4099277555942535,1.2477049976587296 l1.463179588317871,0.8123216778039932 m13.110226392745972,-0.7380447536706924 l1.3921593129634857,-1.803595870733261 4.120634198188782,-4.11659449338913 l1.1123397201299667,1.7999932169914246 -0.00023121892809285782,5.549795627593994 l-0.12828443199396133,2.3859962821006775 m-17.967013120651245,9.988903999328613 l-0.8106493949890137,-9.566835615260061e-05 -2.518547475337982,-9.706268428999465e-05 l-4.3710461258888245,7.418792847602163e-05 m6.287792325019836,3.186921179294586 l-3.8345569372177124,0.0002673783092177473 -7.4070340394973755,1.0532014816999435 m20.289313793182373,-4.443033337593079 l3.575216829776764,-0.7389844208955765 6.321166157722473,-1.6023218631744385 l4.249476194381714,-0.6773043423891068 3.409349024295807,3.6516373711492633e-05 m-16.947225332260132,6.286046504974365 l2.1297915279865265,0.11129816062748432 5.697647333145142,-0.00021813060811837204 l6.176649332046509,1.0160672664642334 3.9368194341659546,-2.0638495357161446e-06 " fill="none" stroke="black" stroke-width="1" /></svg>