<?xml version="1.0" encoding="utf-8" ?>
<svg baseProfile="full" height="108.74389506294392" version="1.1" width="84.2166610262484" xmlns="http://www.w3.org/2000/svg" xmlns:ev="http://www.w3.org/2001/xml-events" xmlns:xlink="http://www.w3.org/1999/xlink"><defs /><rect fill="white" height="108.74389506294392" width="84.2166610262484" x="0" y="0" /><path d="M46.573226749897,37.30190945789218 m-1.8245190382003784,-3.2410570979118347 l-1.9037088751792908,-3.096756637096405 -1.8671435117721558,-2.3169447481632233 l-1.681266874074936,-1.6184636950492859 -1.6369642317295074,-1.0914147645235062 l-1.648525893688202,-0.6635521352291107 -1.7314182221889496,-0.2737203799188137 l-1.7394904792308807,0.13613920658826828 -2.3555874824523926,0.9510501474142075 l-1.490158587694168,1.1895883083343506 -1.6900521516799927,2.237655371427536 l-1.293325424194336,3.082757294178009 -0.7110659778118134,3.6447015404701233 l9.14398242457537e-05,3.8134294748306274 0.6248076632618904,3.5017985105514526 l1.2847749888896942,3.502625524997711 1.9222813844680786,3.306799829006195 l2.3206092417240143,2.528274953365326 1.2706907093524933,0.8737781643867493 l2.3083260655403137,0.8648423850536346 1.424652487039566,0.19557487219572067 l2.2839975357055664,-0.25686487555503845 2.7112144231796265,-1.0504166036844254 l4.23071950674057,-2.6896634697914124 1.3462524116039276,-1.3823221623897552 l2.269510328769684,-3.5035085678100586 0.7060088962316513,-1.7972050607204437 l0.6462656706571579,-2.853911519050598 0.11559001170098782,-4.453786015510559 l-0.24043478071689606,-1.5616519749164581 -1.1346952617168427,-2.456277310848236 l-1.3283976912498474,-1.6814397275447845 -1.8146157264709473,-1.171145737171173 l-1.8835291266441345,-0.5491345748305321 -2.2381994128227234,0.16921868547797203 l-2.056947946548462,0.7887567579746246 -2.0191292464733124,1.6075363755226135 l-1.6147713363170624,2.3533137142658234 -0.9511316567659378,2.8250867128372192 l-0.2707887813448906,3.1011900305747986 0.46671904623508453,3.0718618631362915 l1.1789866536855698,2.8535860776901245 1.638270914554596,2.468571960926056 l1.9433139264583588,1.9334416091442108 2.1410727500915527,1.359064131975174 l2.2075554728507996,0.7727789133787155 2.1698150038719177,0.22438956424593925 l1.9804850220680237,-0.34656763076782227 1.7502672970294952,-0.920097827911377 l1.4485320448875427,-1.4768363535404205 1.0516473650932312,-1.962566077709198 l0.5423903465270996,-2.2934426367282867 0.00520317698828876,-2.462276369333267 l-0.513131394982338,-2.416071444749832 -0.9486737102270126,-2.2072194516658783 l-1.3014541566371918,-1.87484011054039 -1.5799817442893982,-1.4374208450317383 l-1.771010309457779,-0.9598016738891602 -1.9437389075756073,-0.48733849078416824 l-2.040936052799225,-0.009467896306887269 -2.036805897951126,0.49192439764738083 l-1.8621347844600677,0.9488537907600403 -1.5678590536117554,1.3273271918296814 l-1.4219193160533905,2.0528556406497955 -0.9336095303297043,2.576860189437866 l-0.21346917375922203,2.624976336956024 0.453997477889061,2.6209503412246704 l1.1646755039691925,2.5044432282447815 1.7364750802516937,2.213694751262665 l1.9938178360462189,1.637876033782959 2.129520922899246,1.0697120428085327 l2.1428748965263367,0.5601302534341812 2.0790913701057434,0.0714502390474081 l2.113817185163498,-0.5471384525299072 1.7581652104854584,-1.0716144740581512 l1.3558462262153625,-1.4942486584186554 0.8816837519407272,-1.756020188331604 l0.37520576268434525,-1.8947753310203552 -0.13002360239624977,-1.9827638566493988 l-0.6459745019674301,-1.979459971189499 -1.5113084018230438,-2.443082183599472 l-1.8207202851772308,-1.9145922362804413 -1.99933722615242,-1.387525349855423 l-2.1416883170604706,-0.8957448601722717 -2.7072298526763916,-0.4674575477838516 l-2.983412444591522,0.17193635925650597 -2.7327698469161987,0.656895786523819 l-2.4762986600399017,1.2119081616401672 -2.090173661708832,1.7529350519180298 l-1.5251432359218597,2.2254985570907593 -0.867241695523262,2.5272420048713684 l-0.2959299273788929,2.9771417379379272 0.3344617411494255,3.3989936113357544 l1.1761241406202316,3.9394068717956543 1.929345279932022,4.297512769699097 l2.490473836660385,3.9495232701301575 4.309282898902893,4.859898388385773 l2.3121795058250427,1.8275460600852966 3.170158863067627,1.618904024362564 l1.5887081623077393,0.47128327190876007 2.55866140127182,0.20541317760944366 l1.38683021068573,-0.20201830193400383 1.9258831441402435,-0.9411121159791946 l1.6593506932258606,-1.4689797163009644 1.324106603860855,-1.9631890952587128 l1.1087289452552795,-3.2200169563293457 0.49558985978364944,-3.293815553188324 l0.033050067722797394,-3.1877583265304565 -0.4059797525405884,-2.9874616861343384 l-1.049433872103691,-3.4510403871536255 -1.584961712360382,-3.0559515953063965 l-1.9231297075748444,-2.3352643847465515 m-13.698174953460693,22.22541093826294 l-0.6917382031679153,2.643152177333832 -0.8963625878095627,5.050995349884033 l-0.5103277042508125,3.3280491828918457 -2.192141115665436,1.2810006737709045 m19.178383350372314,-12.597131729125977 l1.1261500418186188,4.499448239803314 1.1572563648223877,3.021487295627594 l2.40120068192482,4.4828081130981445 0.9423784911632538,0.9435969591140747 m-23.577468395233154,-2.2179199755191803 l-2.2584378719329834,1.2326828390359879 -2.2957922518253326,1.5887640416622162 l-1.2362221628427505,1.1673300713300705 m7.146704792976379,-4.902812838554382 l0.1215516496449709,2.401047945022583 0.663994699716568,1.8635983765125275 m0.9267561137676239,-3.7774264812469482 l1.8329772353172302,2.1650122106075287 1.9805409014225006,2.39620178937912 " fill="none" stroke="black" stroke-width="1" /></svg>