<?xml version="1.0" encoding="utf-8" ?>
<svg baseProfile="full" height="93.03948446642607" version="1.1" width="71.98714048136026" xmlns="http://www.w3.org/2000/svg" xmlns:ev="http://www.w3.org/2001/xml-events" xmlns:xlink="http://www.w3.org/1999/xlink"><defs /><rect fill="white" height="93.03948446642607" width="71.98714048136026" x="0" y="0" /><path d="M28.092443724162877,40.39265763480216 m0.3586798161268234,0.17752079293131828 l2.1523749828338623,1.4505290985107422 2.2602201998233795,0.9928374737501144 l2.447641044855118,0.6264175474643707 3.706226348876953,0.37287894636392593 l1.6670039296150208,-0.062198531813919544 1.6308416426181793,-0.23789254948496819 l1.3954922556877136,-0.3823496028780937 1.2550409138202667,-0.6241554766893387 l0.9498316794633865,-0.8477072417736053 0.6411844491958618,-1.1324794590473175 l0.4301594942808151,-1.9180651009082794 -0.023074806667864323,-2.3459480702877045 l-0.5516643077135086,-2.0505528151988983 -1.0382691025733948,-1.8337590992450714 l-2.1036946773529053,-2.6999202370643616 -2.3117825388908386,-2.237297296524048 l-2.7158167958259583,-1.8034256994724274 -2.9603883624076843,-0.8370903134346008 l-2.9316815733909607,0.13768821954727173 -2.059956341981888,0.7008466124534607 l-1.6769139468669891,1.0088219493627548 -1.2839482724666595,1.2271684408187866 l-1.497160792350769,2.387431263923645 -0.5762341991066933,1.7848080396652222 l-0.256554763764143,1.9190925359725952 0.17821677029132843,2.909891903400421 l0.8311330527067184,2.394532561302185 0.87593674659729,1.5602195262908936 l0.6518770009279251,0.6960652023553848 1.0869383066892624,0.6164447590708733 l0.7980554550886154,0.18066449090838432 1.8571491539478302,-0.14877621084451675 l1.14652581512928,-0.46936124563217163 0.608903206884861,-0.597076453268528 l0.45971427112817764,-1.3331830501556396 -0.04860901739448309,-2.0324960350990295 l-0.8612783998250961,-2.037243992090225 -0.8209551125764847,-1.0473518073558807 l-0.8288023620843887,-0.5944067239761353 -0.830276608467102,-0.25202903896570206 l-1.2242108583450317,0.14236481860280037 -1.0116610676050186,0.49782324582338333 l-0.7797588407993317,0.7666921615600586 -0.6545160710811615,1.4312079548835754 l-0.16393203288316727,2.023135721683502 0.28183523565530777,1.458626538515091 l0.6303365528583527,1.0483667254447937 0.9028436988592148,0.8034901320934296 l1.2270472198724747,0.5555519089102745 1.487608253955841,0.24242697283625603 l1.7322410643100739,-0.1341402530670166 1.3387097418308258,-0.5167059972882271 l0.8182983100414276,-0.6587213277816772 0.42326677590608597,-0.7072011381387711 l0.09291937574744225,-1.3693447411060333 -0.5891828611493111,-1.8344686925411224 l-0.7883135229349136,-1.1478739231824875 -0.8611007034778595,-0.7205803692340851 l-0.8866610378026962,-0.3810121491551399 -0.8255386352539062,-0.006461353041231632 m1.9499358534812927,9.61763620376587 l0.10700593702495098,4.095945358276367 0.6811045855283737,6.3401442766189575 l0.10690029710531235,5.062714219093323 -0.21422510966658592,1.9259858131408691 l-0.4029933363199234,1.2444611638784409 -0.7873092591762543,1.2228571623563766 l-0.8021681755781174,0.7626946270465851 -1.271594762802124,0.6342214345932007 l1.2787233293056488,-0.7648752629756927 1.7482033371925354,-1.0005296021699905 l0.5252939462661743,1.1520295590162277 0.5020396038889885,2.2412723302841187 l0.2462884783744812,-2.090003192424774 0.4437743127346039,-0.9483186900615692 l1.5936404466629028,0.9995268285274506 1.1486687511205673,0.6115196272730827 l0.35410497337579727,-0.39403077214956284 -0.36890842020511627,-1.2736611068248749 l-1.234676018357277,-1.1801452189683914 -1.2967059016227722,-0.8513709902763367 l-1.7854101955890656,-0.8086323738098145 -2.017163187265396,-0.7475338131189346 m6.623570919036865,-15.477452278137207 l-0.2508675865828991,0.09548097848892212 0.0709991529583931,0.3564194217324257 l1.670796275138855,2.9554936289787292 1.6529397666454315,2.211845815181732 l1.728060096502304,1.838231235742569 -2.2639822959899902,0.20261572673916817 l-3.6844319105148315,-0.20077301189303398 0.2753812074661255,0.8008479326963425 l1.002878099679947,1.0777798295021057 1.3380615413188934,1.0080762207508087 l-1.3312220573425293,-0.6982151418924332 -1.1225924640893936,-0.6069560721516609 l0.5877165868878365,0.1513668056577444 0.3625341132283211,0.6595400720834732 l-0.7990333437919617,-0.28723306953907013 -1.2358685582876205,-0.8352457731962204 l1.067546233534813,0.4222647100687027 0.5987796932458878,0.8704911917448044 l-0.7584568858146667,-0.48867303878068924 -1.3859815895557404,-1.266053318977356 " fill="none" stroke="black" stroke-width="1" /></svg>