<?xml version="1.0" encoding="utf-8" ?>
<svg baseProfile="full" height="93.06376978754997" version="1.1" width="103.47724224164722" xmlns="http://www.w3.org/2000/svg" xmlns:ev="http://www.w3.org/2001/xml-events" xmlns:xlink="http://www.w3.org/1999/xlink"><defs /><rect fill="white" height="93.06376978754997" width="103.47724224164722" x="0" y="0" /><path d="M31.577239657785867,25.68540932086762 m3.5044917464256287,0.004024096415378153 l4.161706566810608,0.4364880546927452 20.170984268188477,0.03968152683228254 l6.982574462890625,1.121705323457718 6.203389763832092,1.8772222101688385 l2.464505136013031,1.5602003037929535 1.5532754361629486,1.9599920511245728 l1.027151569724083,2.627001404762268 0.831923633813858,5.520469546318054 l-5.098715064377757e-05,11.356062889099121 -1.5293194353580475,3.2300400733947754 l-2.582562267780304,2.80428946018219 -5.882249474525452,3.182043433189392 l-9.56191897392273,2.307368218898773 -11.32544755935669,1.1804769933223724 l-9.926906824111938,0.2826317958533764 -7.944583296775818,-0.845227912068367 l-1.3792157173156738,-0.7354770600795746 -1.1524193733930588,-1.2835194170475006 l-1.4822033047676086,-3.4916460514068604 -0.7103650271892548,-4.454026222229004 l0.00014784239283471834,-10.26623010635376 0.5013879016041756,-8.553889989852905 l0.6200295314192772,-6.233449578285217 0.9566446393728256,-3.2947570085525513 l0.9603656083345413,-0.8860784769058228 1.4877204596996307,-0.13080487959086895 m5.6217581033706665,34.35486555099487 l-0.7634809613227844,1.4207947254180908 -2.238801243947819e-05,3.612338900566101 l0.7535424083471298,1.7386852204799652 1.321047842502594,1.3359878957271576 l1.5718281269073486,0.6010974943637848 1.6456273198127747,-0.00018247845218866132 l1.2866263091564178,-1.4734476804733276 0.7562354207038879,-1.914440542459488 l-0.00010134167496289592,-3.0228182673454285 m21.424529552459717,-2.795899212360382 l-0.16272390261292458,3.0786505341529846 0.4615705832839012,2.078361362218857 l0.9004763513803482,1.480080783367157 1.2967096269130707,0.9882219135761261 l1.509682685136795,0.4083244130015373 1.6832071542739868,-0.00013676150047103874 l1.4123693108558655,-1.5477946400642395 0.6007866188883781,-2.282843142747879 l-3.060116114284028e-05,-3.4360140562057495 m-6.178936958312988,-27.178409099578857 l0.16978036612272263,8.03924024105072 0.49646906554698944,6.749832034111023 l0.5981316789984703,4.726361334323883 0.6083448231220245,3.054245710372925 m-2.30551078915596,-21.158018112182617 l3.4103286266326904,-0.04654268268495798 5.097900032997131,-0.2984285354614258 l0.8703766763210297,0.989193320274353 0.5091267079114914,11.958708763122559 l0.44724661856889725,5.827648043632507 0.4763694852590561,4.132630527019501 l0.390511155128479,2.1710339188575745 m-13.735698461532593,-21.238205432891846 l0.38364846259355545,6.954231858253479 " fill="none" stroke="black" stroke-width="1" /></svg>