<?xml version="1.0" encoding="utf-8" ?>
<svg baseProfile="full" height="123.34604691020559" version="1.1" width="112.45908839606273" xmlns="http://www.w3.org/2000/svg" xmlns:ev="http://www.w3.org/2001/xml-events" xmlns:xlink="http://www.w3.org/1999/xlink"><defs /><rect fill="white" height="123.34604691020559" width="112.45908839606273" x="0" y="0" /><path d="M57.38655487983351,29.21546348801712 m-0.807405412197113,0.02696393057703972 l-2.0237997174263,-0.1959214173257351 -4.036054313182831,1.0506621748209 l-2.62703537940979,1.6561979055404663 -1.859114021062851,2.191837579011917 l-0.899975597858429,2.3945018649101257 0.00017392225345247425,3.3906257152557373 l2.0507806539535522,2.531682550907135 2.3195937275886536,1.2228615581989288 l2.8994494676589966,0.663827508687973 3.699396848678589,0.0001870547748694662 l2.1096062660217285,-1.362118273973465 1.3785378634929657,-2.124227285385132 l0.8475109189748764,-2.946522533893585 0.0002836879684764426,-3.3081838488578796 l-1.035783737897873,-2.023313194513321 -2.04408660531044,-2.1662017703056335 l-2.0579202473163605,-1.130814328789711 m20.485036373138428,1.1412075906991959 l-2.4894367158412933,-0.1312197558581829 -1.0626450926065445,0.24123752489686012 l-2.816329002380371,1.6431105136871338 -1.782427579164505,1.8739792704582214 l-1.124146282672882,2.1157918870449066 -0.6192959472537041,3.2904770970344543 l0.00018846592865884304,2.92673796415329 0.8450578153133392,1.7856484651565552 l1.673656702041626,1.4813999831676483 2.4664902687072754,0.9754952788352966 l3.3914250135421753,-0.00044243319280212745 2.2477442026138306,-1.1462478339672089 l1.8577252328395844,-1.9300803542137146 1.261850893497467,-2.5310513377189636 l0.5849647894501686,-2.9409506916999817 0.00033778007491491735,-3.049798607826233 l-0.5862275138497353,-2.02316015958786 -1.3445007801055908,-1.8163512647151947 l-1.8236847221851349,-1.200912892818451 -2.259686142206192,-0.00101339457614813 m-12.31468677520752,14.68787431716919 l-0.4412756860256195,2.681628167629242 -0.7092010229825974,2.968466877937317 l-0.2771366760134697,2.233772575855255 0.9590630978345871,0.3671576827764511 l1.7612324655056,-0.5892003700137138 1.8666726350784302,-2.1401219069957733 l1.1454255133867264,-1.7895902693271637 0.0002802560629788786,-2.0657923817634583 l-2.410281151533127,-1.9357137382030487 -1.2631212174892426,-0.6001772731542587 m-11.841510534286499,-18.60966920852661 l-1.8030939996242523,0.5033823475241661 -2.4172043800354004,1.6883401572704315 l-2.3832322657108307,2.4920739233493805 -1.7330306768417358,2.8165480494499207 l-1.0832023620605469,3.066410720348358 -0.6754134595394135,4.98042106628418 l3.583332500056713e-05,5.684325695037842 0.7895901799201965,3.4168341755867004 l1.637003868818283,3.706769049167633 2.041468471288681,2.9385781288146973 l3.9364412426948547,3.415006995201111 3.4008708596229553,1.8224205076694489 l3.921930491924286,1.1810314655303955 5.249797701835632,-0.0002808310637192335 l6.651795506477356,0.00039491624193033203 3.510693311691284,-0.6799938529729843 l7.138227224349976,-3.2174378633499146 3.1608790159225464,-2.44509220123291 l2.599654495716095,-3.1674104928970337 1.814657598733902,-3.6438027024269104 l1.0187187790870667,-4.084413647651672 0.00022909049221198075,-5.138508677482605 l-0.33712051808834076,-1.8233467638492584 -1.336846798658371,-3.05174320936203 l-2.3086145520210266,-3.2196250557899475 -2.926252782344818,-2.601771652698517 l-2.6584893465042114,-1.5613682568073273 -3.9766347408294678,-1.5533371269702911 l-4.638406038284302,-1.0587620735168457 -6.331113576889038,2.7077762752014678e-05 l-4.445262253284454,0.1604408584535122 -3.9171773195266724,0.324721522629261 l-4.067729413509369,0.5100265145301819 -2.9352563619613647,0.5426997691392899 m-2.3284706473350525,29.314579963684082 l-2.545325458049774,4.057841598987579 -1.7240355908870697,4.032764434814453 l-1.1002536118030548,4.102211594581604 -0.8286601305007935,6.797942519187927 l9.612727808416821e-05,7.319896817207336 0.9362693130970001,4.4135332107543945 l1.52852863073349,3.547338545322418 1.983056515455246,2.944229543209076 l2.373061627149582,2.2141341865062714 2.889467179775238,1.5428043901920319 l3.670802414417267,1.0552115738391876 3.9589279890060425,-0.0008194892870960757 l8.614887595176697,-1.8944679200649261 3.440738022327423,-1.6000832617282867 l3.3322253823280334,-2.3553182184696198 2.8056326508522034,-3.0818215012550354 l3.2277193665504456,-5.814824104309082 0.7827784866094589,-2.1717000007629395 l0.70599265396595,-2.8046363592147827 0.0001644677649892401,-7.561950087547302 l-0.8439429104328156,-3.5666051506996155 -2.3728443682193756,-5.3815847635269165 l-0.5915748700499535,-1.8446069955825806 m-30.40929079055786,1.0515183955430984 l-1.120397299528122,3.5698309540748596 -2.140926718711853,4.534381031990051 l-1.6411411762237549,3.2834619283676147 -1.528991311788559,2.6972052454948425 l-1.5451088547706604,2.5183579325675964 -1.3683231174945831,2.0834554731845856 l-1.282748132944107,1.8670399487018585 -1.0808596014976501,1.5243655443191528 l-1.4963020384311676,1.6287386417388916 -1.1374252289533615,1.0635530948638916 l-1.0986799746751785,0.6809741258621216 -0.9251762926578522,-0.08830779232084751 l-1.2413682043552399,-1.1229697614908218 -1.250768005847931,-2.3992671072483063 l-1.2274814397096634,-5.3318071365356445 -0.0004373412230052054,-5.256013870239258 l1.5874916315078735,-6.268686056137085 2.412775605916977,-4.729916155338287 l2.9323089122772217,-3.808867335319519 2.9344013333320618,-2.762710154056549 l2.8702902793884277,-1.8737977743148804 2.4427729845046997,-1.1014121025800705 m35.933191776275635,10.158686637878418 l0.0017270102398470044,4.1297319531440735 -8.45966405904619e-05,7.647066712379456 l0.6563661992549896,2.2411590814590454 1.428484171628952,3.1596606969833374 l1.9349974393844604,2.6360735297203064 0.9104745090007782,1.0377449542284012 l1.0245177149772644,0.7425262033939362 0.9158772975206375,0.25753144174814224 l0.6677493453025818,-0.9660939872264862 8.470871762256138e-05,-5.220403075218201 l-1.5184062719345093,-7.80639111995697 -2.1912524104118347,-7.201661467552185 l-1.7703616619110107,-5.29975950717926 -0.6429069489240646,-1.7536351084709167 m-28.36785078048706,32.57694721221924 " fill="none" stroke="black" stroke-width="1" /></svg>