<?xml version="1.0" encoding="utf-8" ?>
<svg baseProfile="full" height="111.89986270781446" version="1.1" width="97.886621311427" xmlns="http://www.w3.org/2000/svg" xmlns:ev="http://www.w3.org/2001/xml-events" xmlns:xlink="http://www.w3.org/1999/xlink"><defs /><rect fill="white" height="111.89986270781446" width="97.886621311427" x="0" y="0" /><path d="M36.793102757096676,28.357978643484785 m-1.9397856295108795,0.9321612864732742 l-2.094864100217819,1.2551045417785645 -1.193956807255745,1.2577633559703827 l-0.8538848161697388,1.9999969005584717 -1.069832705979934e-05,2.6680439710617065 l0.3716585040092468,1.4608347415924072 1.0847976058721542,1.7559249699115753 l1.1147624999284744,1.121148243546486 1.4321660995483398,0.9065494686365128 l1.566092073917389,0.5792630091309547 2.766338288784027,0.00021634761651512235 l1.4237184822559357,-0.30834369361400604 1.436898410320282,-0.7085920870304108 l1.2601520121097565,-1.064075455069542 1.4213724434375763,-2.0626220107078552 l0.7264229655265808,-2.0685461163520813 0.00014386764632945415,-2.6249369978904724 l-0.6378411501646042,-1.938534528017044 -1.062486171722412,-1.57428577542305 l-1.9288867712020874,-1.486198604106903 -2.324889302253723,-0.7500061392784119 l-1.9495081901550293,5.2672116908070166e-05 -0.6724751740694046,0.8129926770925522 m19.518897533416748,-0.45905236154794693 l-2.2577503323554993,0.18097762018442154 -1.2439803779125214,0.7063443213701248 l-1.5568338334560394,1.7083002626895905 -1.1018601804971695,2.228987216949463 l-0.40578771382570267,2.3414617776870728 0.00018319849914405495,2.5819656252861023 l0.39222270250320435,1.5081599354743958 1.2222876399755478,1.673477441072464 l1.9727259874343872,1.204954907298088 2.7585676312446594,0.5226016417145729 l2.454744875431061,-5.6717926781857386e-05 2.203506976366043,-0.5402544885873795 l1.8703970313072205,-1.0171690583229065 1.40726700425148,-1.3601362705230713 l0.9380406886339188,-1.6135330498218536 0.47118425369262695,-1.7614591121673584 l0.00010795669368235394,-2.4482308328151703 -0.6113283336162567,-2.0426329970359802 l-1.1191873252391815,-1.7438231408596039 -1.4473257958889008,-1.265813410282135 l-1.7171502113342285,-0.8120665699243546 -2.825275957584381,0.001470949500799179 l-2.47243732213974,0.7672035694122314 m-9.06791865825653,14.196118116378784 l0.5359064787626266,3.0648118257522583 0.7117432355880737,3.050062358379364 l1.1375340074300766,0.15531424432992935 1.8361331522464752,-3.9795631170272827 l1.0487177968025208,-2.2884544730186462 0.42422354221343994,-0.9598011523485184 m-17.008529901504517,-14.505512714385986 l-1.1948275566101074,0.06820961833000183 -2.1286384761333466,1.073722019791603 l-2.4075430631637573,2.221331298351288 -1.235424056649208,1.6925396025180817 l-1.3897696137428284,2.959131896495819 -0.8797050267457962,3.558005392551422 l-0.5721551552414894,6.47268533706665 5.616726411972195e-05,7.755241394042969 l0.724390372633934,5.342956185340881 1.41429603099823,5.22478461265564 l1.9279764592647552,4.879605770111084 2.317059636116028,4.156802594661713 l2.660098373889923,3.518836498260498 2.7575483918190002,2.602261006832123 l3.4815526008605957,2.2836628556251526 3.632775843143463,1.3121092319488525 l4.127678275108337,0.667380690574646 4.503670632839203,0.0006353753269650042 l4.017224907875061,-0.9333538264036179 3.3239957690238953,-1.3542917370796204 l3.517303466796875,-2.357538193464279 2.6759248971939087,-2.564042806625366 l2.113954573869705,-2.8029784560203552 2.2333577275276184,-4.3409693241119385 l1.3644157350063324,-4.034160673618317 1.0930479317903519,-5.777340531349182 l0.00029351840566960163,-7.968730330467224 -0.3275156766176224,-2.6149672269821167 l-1.1370403319597244,-4.347296059131622 -1.897350251674652,-4.850888550281525 l-2.5490888953208923,-4.620461463928223 -2.9795607924461365,-3.7239694595336914 l-3.2222267985343933,-2.760170102119446 -2.5902122259140015,-1.5353946387767792 l-2.454313635826111,-0.9326279163360596 -5.250222086906433,-0.8872618526220322 l-6.060880422592163,0.00021812435079482384 -6.007055640220642,1.0658466070890427 l-1.8655990064144135,0.6418443471193314 -1.925385445356369,1.3271117210388184 m2.6452749967575073,44.41711902618408 l-0.9331107139587402,4.534560143947601 -1.4214201271533966,4.263352751731873 m25.370686054229736,-8.137985467910767 l1.4837366342544556,3.7093132734298706 0.7686774432659149,2.472176253795624 m-25.478849411010742,3.8522502779960632 l-0.3874683380126953,2.004544287919998 -0.8632905036211014,1.7495113611221313 m4.146844446659088,-3.830856680870056 l0.9998895972967148,2.7937304973602295 m1.0189302265644073,-2.3229965567588806 l1.7451035976409912,2.132020443677902 " fill="none" stroke="black" stroke-width="1" /></svg>