<?xml version="1.0" encoding="utf-8" ?>
<svg baseProfile="full" height="66.30666372937412" version="1.1" width="103.90790889039636" xmlns="http://www.w3.org/2000/svg" xmlns:ev="http://www.w3.org/2001/xml-events" xmlns:xlink="http://www.w3.org/1999/xlink"><defs /><rect fill="white" height="66.30666372937412" width="103.90790889039636" x="0" y="0" /><path d="M25,36.5002021798864 m1.1534428596496582,-8.91170859336853 l1.9104617834091187,-1.898999810218811 4.590067565441132,0.033414377830922604 l5.442823171615601,0.10259154252707958 3.5974597930908203,0.11319826357066631 l3.8628485798835754,-0.06055116653442383 4.040575921535492,-0.1482690777629614 l3.9917397499084473,-0.12154852040112019 4.506009221076965,-0.341528095304966 l4.587273895740509,-0.189152080565691 3.709889054298401,-0.07764901965856552 l3.5773077607154846,0.026657378766685724 3.203665316104889,0.15306631103157997 l2.935899794101715,0.1844920590519905 0.5613705888390541,1.7671482264995575 l0.3179644048213959,3.9783164858818054 0.5026310309767723,1.5170186758041382 l0.40032215416431427,2.096704989671707 0.4136814549565315,2.2713537514209747 l0.3564601019024849,1.9386810064315796 0.24601468816399574,1.751786321401596 l-0.3328634798526764,0.27399593964219093 -2.368152141571045,-0.06076952442526817 l-1.9151028990745544,0.20092658698558807 -2.1582844853401184,3.2000307328416966e-05 l-1.3393636047840118,0.10778634808957577 -2.2579069435596466,8.57850318425335e-05 l-1.3717706501483917,0.06265006493777037 -2.3654675483703613,9.723015864437912e-05 l-3.544209897518158,0.036634092684835196 -3.1066644191741943,-0.0910516269505024 l-4.304777383804321,-0.16922509297728539 -5.124736428260803,-0.2703860215842724 l-5.51163911819458,-0.23570818826556206 -5.344632267951965,-0.09961983188986778 l-3.009865880012512,-0.08447673171758652 -2.6564639806747437,-0.18472976982593536 l-1.5722380578517914,0.004217708774376661 -1.8037350475788116,-0.23898744955658913 l-1.162014752626419,-0.13403483666479588 -1.2028849124908447,-0.4260990768671036 l-0.731792226433754,-0.5395802855491638 -0.40755458176136017,-0.7506445050239563 l-0.08891155011951923,-1.2820199131965637 0.525442510843277,-1.558646559715271 l1.2038365006446838,-1.3523370027542114 1.5846891701221466,-0.7558374106884003 l1.8363913893699646,-0.1308885682374239 1.8021613359451294,0.535614974796772 l0.5594135820865631,0.45978840440511703 0.46058695763349533,1.0641495883464813 l0.024156076833605766,1.5697076916694641 -0.2695256657898426,0.5273384973406792 l-0.8324328809976578,0.6111979484558105 -1.4863787591457367,0.46176038682460785 l-1.0245376825332642,0.056974831968545914 -1.1878161132335663,-0.32942622900009155 l-0.6309615075588226,-0.550631657242775 -0.46876173466444016,-1.125575602054596 l-0.03002528566867113,-0.9621023386716843 0.5853239074349403,-1.2133974581956863 l0.8602351695299149,-0.7700406759977341 1.455373466014862,-0.5895186960697174 l1.8241572380065918,-0.0757738295942545 1.6867497563362122,0.6403887271881104 l0.8681949228048325,0.86290143430233 0.43386928737163544,1.0032294690608978 l0.0534780602902174,0.9771500527858734 -0.2729816921055317,0.7949235290288925 l-0.9642589092254639,0.8417028188705444 -0.9238668531179428,0.41452065110206604 l-1.3640211522579193,0.1080065593123436 -0.9113705158233643,-0.220896378159523 l-0.5671604722738266,-0.44202376157045364 -0.42189136147499084,-0.9947828203439713 l0.0002024593050009571,-1.0647168010473251 0.6790444254875183,-1.418699324131012 l1.41444593667984,-1.2895739078521729 1.3214017450809479,-0.5807599797844887 l1.778280884027481,-0.154740447178483 1.787935346364975,0.5569476634263992 l1.4067700505256653,1.3123095035552979 0.5902709439396858,1.7974863946437836 l2.720541033340851e-05,1.128380075097084 -0.6794939190149307,1.1793994158506393 l-0.8741705119609833,0.6789977848529816 -1.5319439768791199,0.3916940465569496 l-1.8097589910030365,-0.15149286948144436 -0.8190017938613892,-0.7811018824577332 l-0.5973481759428978,-1.5728415548801422 0.00011121557690785266,-1.361307054758072 l0.45513954013586044,-1.0316303372383118 1.234646663069725,-1.0430100560188293 l2.0594291388988495,-0.6628478318452835 " fill="none" stroke="black" stroke-width="1" /></svg>