<?xml version="1.0" encoding="utf-8" ?>
<svg baseProfile="full" height="118.5802375121898" version="1.1" width="91.38722552599575" xmlns="http://www.w3.org/2000/svg" xmlns:ev="http://www.w3.org/2001/xml-events" xmlns:xlink="http://www.w3.org/1999/xlink"><defs /><rect fill="white" height="118.5802375121898" width="91.38722552599575" x="0" y="0" /><path d="M31.330600529909134,66.60755285992309 m-3.4096115827560425,-3.0252188444137573 l-1.6701982915401459,-3.072630763053894 -0.6588814407587051,-1.6238312423229218 l-0.5919092148542404,-2.1908237040042877 0.00022229150999919511,-5.497578978538513 l0.00038298014260362834,-6.3571131229400635 0.3742775693535805,-2.3844879865646362 l1.265808343887329,-3.97019624710083 2.063114643096924,-3.903893232345581 l2.0345325767993927,-2.688451409339905 3.037364184856415,-2.790459096431732 l3.5788196325302124,-2.134447544813156 3.8649743795394897,-1.364791989326477 l3.7158089876174927,-0.6036088615655899 4.3253737688064575,-1.9837161744362675e-05 l3.1980031728744507,1.3109940937283682e-05 2.7243205904960632,0.8183430880308151 l2.4608242511749268,1.7038451135158539 2.2279100120067596,2.7009233832359314 l1.6538895666599274,3.425459563732147 1.138581857085228,4.270636141300201 l0.630250945687294,4.7566744685173035 0.0001501977658335818,8.098864555358887 l-0.8812902122735977,5.019475221633911 -1.340489238500595,4.02673065662384 l-1.9297856092453003,3.9560773968696594 -1.539340615272522,4.660561978816986 l-1.0999108850955963,4.951681196689606 -0.7584627717733383,5.5424439907073975 l6.155752089398447e-05,5.878773927688599 0.7622753083705902,3.573886454105377 l0.8793237805366516,2.364301383495331 0.6021403893828392,1.4769378304481506 l0.6349426507949829,0.9801113605499268 0.732017382979393,0.374496690928936 l0.7602064311504364,-2.6522022485733032 0.5157256498932838,-4.154166877269745 l0.666797012090683,-3.8140270113945007 1.0648616403341293,-4.332753419876099 l1.3479749858379364,-4.592481255531311 1.354077309370041,-5.008392333984375 l1.3209268450737,-4.8807549476623535 0.0005639629307552241,-5.061953663825989 l-0.3741741180419922,-1.6196578741073608 -1.1660753190517426,-2.106899917125702 m-34.2726731300354,0.5581648647785187 l-0.7168148458003998,2.1449382603168488 7.449383247148944e-05,7.171064019203186 l0.38939882069826126,3.1798166036605835 1.0670320689678192,4.492210745811462 l3.07644784450531,8.96456778049469 1.9133172929286957,3.534814417362213 l1.9362135231494904,2.350682020187378 2.2451263666152954,1.5880025923252106 l2.748309373855591,0.9560535848140717 3.5633698105812073,0.0018500031728763133 l1.3716556131839752,-0.38035519421100616 2.033781111240387,-1.5206316113471985 l1.556677371263504,-1.9567213952541351 1.4177688956260681,-3.3155158162117004 l0.7712798565626144,-4.197839796543121 3.874585672747344e-05,-4.678163230419159 l0.10941954329609871,-4.459178447723389 7.347233804466669e-05,-5.187738537788391 l-0.21741239354014397,-3.342963755130768 -0.8128192275762558,-3.1534546613693237 l-1.3815659284591675,-2.6229211688041687 -1.9477376341819763,-2.1458542346954346 l-2.2931569814682007,-1.4949871599674225 -2.8284212946891785,-0.9704478830099106 l-3.3600056171417236,0.00343130697729066 -2.9723483324050903,0.9132771193981171 l-2.6496082544326782,1.7317728698253632 -1.9554458558559418,2.3392683267593384 l-1.2690573930740356,2.767624855041504 -1.0639752447605133,5.094892978668213 l0.0003366539749549702,5.455306172370911 0.4192306101322174,2.470472902059555 l1.2444999814033508,3.4221985936164856 1.88529372215271,3.3320963382720947 l2.274160534143448,2.5640124082565308 2.7394092082977295,1.9469308853149414 l3.2525405287742615,1.2956684827804565 3.471073806285858,0.595385767519474 l3.7287500500679016,-0.0007564705447293818 1.3524585962295532,-0.3596293181180954 l2.1038125455379486,-1.3686859607696533 2.0784567296504974,-2.4289795756340027 l2.3514308035373688,-5.1442331075668335 0.49367189407348633,-2.0253419876098633 l1.9295328002044698e-05,-3.401269316673279 -1.3055717945098877,-5.210543870925903 l-1.215163767337799,-2.518734037876129 -1.7217423021793365,-2.235167771577835 l-2.191835790872574,-1.860666424036026 -2.387488931417465,-1.229640394449234 l-1.6820283234119415,0.00010549726539466064 -2.3890064656734467,0.000833989615784958 l-2.8636521100997925,0.0006483029574155807 -2.8347843885421753,0.8163738250732422 l-2.0451639592647552,1.3527452945709229 m-0.210286695510149,-21.15729331970215 l-1.447833776473999,1.2543116509914398 -0.28262823820114136,1.1996004730463028 l0.0006188423867570236,2.5588950514793396 1.151757761836052,1.0579726845026016 l1.2123389542102814,0.3114895708858967 2.0972973108291626,0.0002385526204307098 l1.111929938197136,-1.1034991592168808 0.3780633583664894,-1.208769530057907 l0.00034715671063167974,-2.245224714279175 -1.0430222004652023,-1.1003944277763367 l-1.8684621155261993,-0.4738418385386467 -1.6673922538757324,0.00042867715819738805 m12.008635997772217,-1.0189911723136902 l-1.5356191992759705,1.1743231117725372 -0.42217496782541275,1.2505199015140533 l0.000350033187714871,2.2452661395072937 1.1759824305772781,0.9919288754463196 l1.2326258420944214,0.30095117166638374 1.9642244279384613,0.00017543839931022376 l1.0004450380802155,-1.1030004918575287 0.3298056125640869,-1.2181458622217178 l0.0003061080496991053,-1.9510075449943542 -0.6521792709827423,-1.1388066411018372 l-1.2338723242282867,-0.6329102069139481 -1.7361782491207123,0.00016122805391205475 m-5.155470967292786,8.74760389328003 l0.25007033720612526,2.1296487748622894 1.0896844416856766,0.43196260929107666 l1.0650783032178879,-2.0426279306411743 0.39333365857601166,-1.2366130948066711 m-10.783101320266724,-1.683420091867447 l0.00025974719392252155,0.7468266785144806 1.345582753419876,0.9110300987958908 l2.0962369441986084,0.010616076178848743 0.6468480825424194,-1.5031540393829346 l-0.9408409893512726,-0.8623254299163818 -1.4028897881507874,0.07787822745740414 m12.817425727844238,-0.5150064080953598 l-0.5932855606079102,0.9891675412654877 0.0004260850982973352,0.8072483539581299 l1.181185394525528,0.3285067528486252 0.6554713100194931,-1.1482258141040802 l-0.9543517976999283,-0.7424379885196686 -0.8049029111862183,0.2971231937408447 m-15.14883279800415,17.605987787246704 l0.5162772536277771,3.4335529804229736 7.807073416188359e-05,8.681060671806335 l-1.1029216647148132,6.341407895088196 -0.8305224776268005,3.2186010479927063 m23.29873561859131,-21.973876953125 l-2.8568144898599712e-05,6.153184771537781 0.5288296565413475,8.570177555084229 l1.0153485834598541,4.7337716817855835 1.6748745739459991,3.8099342584609985 m-20.063259601593018,-27.84787654876709 l-5.80393952986924e-05,2.139020413160324 " fill="none" stroke="black" stroke-width="1" /></svg>