<?xml version="1.0" encoding="utf-8" ?>
<svg baseProfile="full" height="107.03441109973937" version="1.1" width="78.18789863027632" xmlns="http://www.w3.org/2000/svg" xmlns:ev="http://www.w3.org/2001/xml-events" xmlns:xlink="http://www.w3.org/1999/xlink"><defs /><rect fill="white" height="107.03441109973937" width="78.18789863027632" x="0" y="0" /><path d="M25.042510186322033,55.52708670031279 m0.07350356318056583,0.47160714864730835 l1.1669743806123734,2.4069182574748993 0.8335726708173752,0.987924188375473 l1.5666116774082184,1.226072907447815 1.9437135756015778,1.009717509150505 l2.2599859535694122,0.732685849070549 2.454008311033249,0.4263486713171005 l2.609228789806366,0.10112888179719448 1.7488418519496918,-0.16699440777301788 l1.8172499537467957,-0.3708551824092865 1.8393315374851227,-0.5988292396068573 l1.5276172757148743,-0.7389313727617264 1.2473592907190323,-0.9436842799186707 l0.8237786591053009,-1.0738762468099594 0.6735069304704666,-1.8689067661762238 l0.19551916047930717,-2.3322471976280212 -0.38748592138290405,-2.400429844856262 l-0.9438065439462662,-2.032211422920227 -0.8759921789169312,-1.1727602779865265 l-1.0010246932506561,-0.8335481584072113 -1.0808231681585312,-0.4980122298002243 l-2.1723809838294983,-0.52213404327631 -3.175007700920105,-0.21861892193555832 l-3.6895152926445007,0.2806415781378746 -2.4523574113845825,0.5751200392842293 l-2.9141294956207275,1.254260092973709 -1.7423130571842194,1.1667973548173904 l-1.2191903591156006,1.238667145371437 -0.7826773822307587,1.3517533242702484 l-0.3597135469317436,1.3914960622787476 -0.026896032504737377,1.3734613358974457 m13.687353134155273,-4.447457492351532 l0.3272563964128494,-1.7892982065677643 0.40713924914598465,-2.196691930294037 l0.679282546043396,-5.947394967079163 0.7189197838306427,-7.2432029247283936 l0.35764604806900024,-3.555966019630432 0.5060470849275589,-1.980741024017334 l0.7431945204734802,-1.4289991557598114 0.9017246216535568,-0.974653884768486 l1.046062856912613,-0.6332848966121674 1.7950360476970673,-0.4757533222436905 l1.5634848177433014,-0.07620363030582666 1.5032397210597992,0.2460121363401413 l1.3877706229686737,0.5469796434044838 1.2427546828985214,0.8664989471435547 l0.7557139545679092,0.8571478724479675 0.4267551749944687,0.8550257980823517 l0.13851736672222614,0.8414457738399506 -0.22133046761155128,0.7895572483539581 l-0.6144901365041733,0.6403785943984985 -0.9406629204750061,0.4267190769314766 l-1.793237030506134,0.15440456569194794 -2.2077886760234833,-0.328667089343071 l-1.8490752577781677,-0.7321882992982864 -1.304015964269638,-0.39261121302843094 l-0.9716805815696716,-0.11280544102191925 -0.721653625369072,0.17746604979038239 l-0.639733076095581,0.5725941434502602 -0.5122715979814529,1.020258590579033 l-0.3071954846382141,1.6205276548862457 -0.057239122688770294,2.235248386859894 l0.2672972157597542,2.643081247806549 0.586334615945816,2.670941948890686 l0.14207539148628712,1.8436932563781738 -0.13972530141472816,1.5047696232795715 l-0.4152635857462883,1.2317527830600739 -0.5780187994241714,0.8093954622745514 m-8.924685716629028,16.448354721069336 l-0.3430914878845215,5.150133967399597 -1.0995537787675858,7.755665183067322 l-0.24434687569737434,4.500558376312256 -0.36491576582193375,1.814858615398407 l0.741964727640152,-0.3581433370709419 2.3471520841121674,-0.36456894129514694 l0.7574384659528732,0.6342919170856476 -1.47483229637146,-0.39959438145160675 l-2.0893551409244537,-0.8657632768154144 0.7497434318065643,0.43586984276771545 l1.2628209590911865,0.5915485695004463 -0.5342812463641167,-0.03946115728467703 l-1.8256685137748718,-0.5049165338277817 -0.32153621315956116,0.19040679559111595 l0.05918006878346205,1.0575439780950546 -0.6627431511878967,-0.3905205801129341 l-1.035885214805603,-1.4073507487773895 -0.6299891322851181,-1.5708212554454803 l8.089983566605952e-05,-1.3339367508888245 0.7746259868144989,-2.030654549598694 l1.0080048441886902,-1.5005622804164886 1.574564278125763,-1.6510030627250671 l0.32027963548898697,-0.4530121013522148 0.6662879884243011,-0.04950608126819134 " fill="none" stroke="black" stroke-width="1" /></svg>