<?xml version="1.0" encoding="utf-8" ?>
<svg baseProfile="full" height="98.41335940258432" version="1.1" width="77.06263660282275" xmlns="http://www.w3.org/2000/svg" xmlns:ev="http://www.w3.org/2001/xml-events" xmlns:xlink="http://www.w3.org/1999/xlink"><defs /><rect fill="white" height="98.41335940258432" width="77.06263660282275" x="0" y="0" /><path d="M46.89499890125944,25.704582389444113 m-2.331889420747757,-0.4949549585580826 l-5.21401047706604,-0.2096274308860302 -3.1775060296058655,1.1665571480989456 l-2.2029881179332733,1.2795916199684143 -2.806083559989929,2.316146492958069 l-1.715300977230072,1.9792334735393524 -0.7892406731843948,1.2837353348731995 l-0.9983906894922256,2.6189887523651123 -0.31149037182331085,1.4431171119213104 l-1.6000155937945237e-05,1.8835484981536865 0.25753889232873917,1.2426958978176117 l0.7942305505275726,1.5775923430919647 1.353515088558197,1.5633587539196014 l1.8524645268917084,1.2956051528453827 2.4226927757263184,0.9711559116840363 l2.9696696996688843,0.5916588008403778 3.6457225680351257,-0.000756372683099471 l3.2073774933815002,-0.0007262158760568127 2.3260335624217987,-0.48426900058984756 l1.9414328038692474,-0.8997397124767303 1.709618866443634,-1.3653922080993652 l1.3134218752384186,-1.768803596496582 0.454816073179245,-1.0373614728450775 l0.4657385125756264,-2.0360462367534637 0.0002807299460982904,-2.9550591111183167 l-0.25415215641260147,-1.1758555471897125 -0.9242502599954605,-1.9262480735778809 l-1.5166400372982025,-2.0762869715690613 -1.9410331547260284,-1.8686899542808533 l-2.069482207298279,-1.4300593733787537 -2.070436179637909,-0.8926375210285187 l-1.3113780319690704,-0.0002615914672787767 m-8.142560720443726,5.062152743339539 l-0.9922575205564499,0.11290312744677067 -0.48986468464136124,0.5939389765262604 l-0.4299798980355263,1.4633731544017792 0.00023377400793833658,1.5636734664440155 l0.2625902183353901,0.7938101887702942 0.5951865017414093,0.5283224955201149 l1.6221606731414795,0.00043821655708597973 0.5738409981131554,-0.43936513364315033 l0.8221227675676346,-1.5564677119255066 0.18597641959786415,-1.5778246521949768 l0.0002573926576587837,-1.2366236001253128 -0.5568860471248627,-0.5036268383264542 l-0.9062748402357101,0.00010218321222055238 m9.181610345840454,0.7336097955703735 l-1.1083529889583588,0.4255584627389908 -0.906866267323494,0.9330888837575912 l-0.7122425734996796,1.6148686408996582 0.00035064833355136216,1.1721056699752808 l0.2773800678551197,0.6154095754027367 0.5883911624550819,0.4271591827273369 l1.3416288793087006,-5.103099283587653e-05 1.2130094319581985,-1.1024006456136703 l0.6840779632329941,-1.366637647151947 0.00030012788556632586,-1.661817878484726 l-0.6861560046672821,-0.6603767722845078 -1.0732796043157578,-0.4338117316365242 m-6.916869878768921,6.805886626243591 l0.5083442851901054,1.4965265989303589 0.5190986022353172,0.2680671028792858 l0.9032667428255081,-1.6844040155410767 0.40755581110715866,-0.7289599627256393 m-7.621397972106934,6.699395179748535 l-0.6621094048023224,0.17711570486426353 -1.245075985789299,1.0586042702198029 l-0.7629475742578506,0.9982381016016006 -1.2320122867822647,1.62216916680336 l-0.5645088478922844,1.2046276777982712 -0.8675035089254379,1.825399249792099 l-0.785500779747963,3.1703615188598633 0.0001085680014512036,2.3804059624671936 l0.6115978956222534,1.9108331203460693 1.1920688301324844,1.680891215801239 l1.6369801759719849,1.4470992982387543 2.104374021291733,1.0718245059251785 l0.8875454217195511,0.19533352926373482 2.534891366958618,-0.001485889806644991 l3.7409761548042297,-0.001499721547588706 3.5330337285995483,-0.5610429495573044 l2.3653800785541534,-0.8628761768341064 2.0125848054885864,-1.2699061632156372 l1.5581749379634857,-1.7070692777633667 0.5128258466720581,-0.9063681960105896 l0.5951002240180969,-1.9178996980190277 0.00015180667105596513,-3.737267255783081 l-0.6101669743657112,-2.0301061868667603 -1.1806971579790115,-2.0552629232406616 l-0.9076640754938126,-1.403735727071762 -1.320788860321045,-1.253076046705246 l-1.01041778922081,-0.7056456059217453 m-12.169991731643677,19.1427481174469 l-0.49855414777994156,2.426508218050003 -0.6603826582431793,1.7910650372505188 l-0.5930135026574135,1.3135497272014618 m11.671020984649658,-6.149581074714661 l0.5854345113039017,2.15489998459816 0.36632344126701355,1.4953583478927612 l0.2733832970261574,1.151283085346222 m-13.645710945129395,2.1360182762145996 l-1.563325822353363,0.7437573373317719 -1.501658707857132,0.7531481236219406 m3.152216374874115,-1.5709584951400757 l0.4068846255540848,1.6770853102207184 0.14877814799547195,0.7398249208927155 m-0.5721286684274673,-2.525923252105713 l1.5811900794506073,1.4102749526500702 0.4729216545820236,0.5443815141916275 m11.198422908782959,-1.6470423340797424 l-0.7574497163295746,1.8752770125865936 -0.9494712948799133,0.49608439207077026 m1.6674353182315826,-2.005768269300461 l0.9827876091003418,1.3852328062057495 1.0409079492092133,1.0936591774225235 " fill="none" stroke="black" stroke-width="1" /></svg>