<?xml version="1.0" encoding="utf-8" ?>
<svg baseProfile="full" height="105.04967477099854" version="1.1" width="86.54870409594878" xmlns="http://www.w3.org/2000/svg" xmlns:ev="http://www.w3.org/2001/xml-events" xmlns:xlink="http://www.w3.org/1999/xlink"><defs /><rect fill="white" height="105.04967477099854" width="86.54870409594878" x="0" y="0" /><path d="M31.150651391071733,29.813822057803918 m-0.7034548372030258,-0.2495846152305603 l-0.31700633466243744,0.5434316024184227 3.5393720865249634,5.558142066001892 l2.4630406498908997,2.511797547340393 1.8059779703617096,1.2886050343513489 l1.9476595520973206,0.8462497591972351 1.7925548553466797,0.00033284402888966724 l1.6412100195884705,-0.5587487667798996 1.3516494631767273,-1.1596425622701645 l0.9195452928543091,-1.627645194530487 0.3341807425022125,-1.9156987965106964 l0.0005066276207799092,-2.170824855566025 -0.6528151035308838,-2.0883701741695404 l-1.3332387804985046,-2.066161632537842 -1.8626776337623596,-1.7737112939357758 l-2.2593681514263153,-1.2413816154003143 -2.5790035724639893,-0.7090295851230621 l-2.783784568309784,-0.0015818190877325833 -2.3570017516613007,0.6459875404834747 l-1.7439226806163788,1.0422176122665405 -1.10164076089859,1.2265893071889877 l-0.6551887094974518,1.4857317507266998 0.0005074897853774019,1.3242867588996887 l0.5825855582952499,1.4481063187122345 m15.166702270507812,-1.3931617140769958 l0.12156861834228039,0.7246951758861542 1.787511557340622,3.6577025055885315 l1.7628459632396698,1.8833597004413605 1.9547747075557709,1.2240709364414215 l2.2311267256736755,0.6639552861452103 2.4074064195156097,0.0017474681953899562 l1.619182825088501,-0.6493717432022095 1.1037477105855942,-1.238485425710678 l0.6297751516103745,-1.8381370604038239 0.00038752918044338003,-1.97982057929039 l-0.7198888063430786,-2.0951636135578156 -1.5386831760406494,-2.109519839286804 l-2.0429041981697083,-1.7103767395019531 -2.44305357336998,-1.223752647638321 l-2.851056754589081,-0.7990605384111404 -2.7395099401474,0.0018552552501205355 l-2.2831034660339355,0.6360001116991043 -1.038346141576767,0.6711466610431671 l-0.9537119418382645,1.2421131134033203 m-12.945671081542969,4.755854308605194 l-1.3562321662902832,2.208491861820221 -0.6166258826851845,1.8246519565582275 l-1.436581164598465,8.464367985725403 0.0003004635073011741,7.332247495651245 l0.7215607166290283,4.588791131973267 1.2927325069904327,4.350976943969727 l1.6561259329319,3.623925745487213 1.931489259004593,3.0235034227371216 l2.201099842786789,2.38578662276268 2.67585426568985,2.0118896663188934 l2.905706763267517,1.4563128352165222 3.3080333471298218,0.9831839054822922 l4.095851480960846,0.0015763024566695094 7.85200834274292,-1.8244674801826477 l2.60198712348938,-1.4532381296157837 1.932026743888855,-1.9046221673488617 l1.528894305229187,-2.5961673259735107 1.082104742527008,-3.3640381693840027 l0.5887812003493309,-4.125442206859589 0.0003698240834637545,-6.086981892585754 l-0.6572659313678741,-3.0282965302467346 -1.8578746914863586,-4.942556023597717 l-1.8190668523311615,-5.042726993560791 -1.8119518458843231,-4.334204196929932 l-0.7708088308572769,-1.9068290293216705 m-21.94600820541382,35.94494819641113 l-0.3829280287027359,3.20498526096344 -0.9152268618345261,2.3793399333953857 l-0.16524355858564377,1.033368855714798 -0.322573222219944,0.5354921892285347 l-1.6726112365722656,0.39770714938640594 -1.5341262519359589,0.4371849074959755 l-0.031751557253301144,-0.024827250745147467 0.5740904062986374,-0.0874406285583973 l2.000300884246826,-0.09196034632623196 0.841720700263977,0.1192361768335104 l0.37087801843881607,0.8703881502151489 0.30397558584809303,0.6065766885876656 l0.22244589403271675,0.41536156088113785 0.26481417939066887,0.06460828706622124 l0.2998374402523041,-1.1350039392709732 0.674789771437645,-1.7478658258914948 l0.7437373697757721,-0.7701073586940765 1.4536358416080475,-0.28989607468247414 l1.4762203395366669,0.031629621516913176 1.4186157286167145,0.037948708049952984 m13.9539635181427,-3.417184054851532 l0.5493683740496635,2.6156941056251526 -0.21832287311553955,2.651263177394867 l-0.5380960926413536,0.4861418902873993 -1.9109466671943665,0.6725317239761353 l-0.2394956350326538,-0.15635160729289055 1.6578197479248047,-0.912017822265625 l0.9823302924633026,0.20075976848602295 1.2971842288970947,-0.43269507586956024 l1.7543071508407593,-0.05634832661598921 1.2331846356391907,-0.4143226146697998 l1.3474589586257935,-0.5451875552535057 1.2559117376804352,-0.7090408354997635 l1.088612899184227,-0.999053567647934 1.2028718739748,-1.2238221615552902 m-23.268983364105225,-40.11838436126709 l3.4088900685310364,0.031862088944762945 1.8741834163665771,0.24339644238352776 l0.8913813531398773,0.8059968054294586 1.7599569261074066,3.7472504377365112 l0.03295428352430463,1.170845478773117 -2.174587845802307,0.7005326449871063 l-3.490671217441559,-0.02913255477324128 -2.206086367368698,-1.0438204556703568 l-1.054171770811081,-1.4130181074142456 -0.40161706507205963,-1.9206883013248444 l0.0004951353912474588,-1.3455122709274292 m-4.401407837867737,1.3218390941619873 l0.951627641916275,1.893496960401535 " fill="none" stroke="black" stroke-width="1" /></svg>