<?xml version="1.0" encoding="utf-8" ?>
<svg baseProfile="full" height="120.68121583316042" version="1.1" width="103.50051278773208" xmlns="http://www.w3.org/2000/svg" xmlns:ev="http://www.w3.org/2001/xml-events" xmlns:xlink="http://www.w3.org/1999/xlink"><defs /><rect fill="white" height="120.68121583316042" width="103.50051278773208" x="0" y="0" /><path d="M32.328265489583714,46.971886928276945 m-0.18785253167152405,-2.1726705133914948 l-0.6783546507358551,-7.194896936416626 2.4875445663928986,-4.754366874694824 l1.3990169763565063,-1.5706224739551544 2.8404873609542847,-2.2381876409053802 l3.759889006614685,-1.974601000547409 4.183008968830109,-1.3401749730110168 l4.568095803260803,-0.7261133193969727 6.882601976394653,-0.00025319595806649886 l4.57927405834198,1.6267243027687073 3.3825376629829407,2.175796329975128 l2.9007893800735474,2.8255459666252136 2.0808155834674835,3.2064375281333923 l1.3184991478919983,3.5700643062591553 0.6999842077493668,3.932027816772461 l9.76232058746973e-05,4.757813811302185 -0.9664347767829895,3.0924999713897705 l-1.7135190963745117,2.729799747467041 -2.3636747896671295,2.323504239320755 l-2.859683930873871,1.6231368482112885 -3.74991238117218,1.1940740048885345 l-4.643727242946625,0.7626023888587952 -7.690451741218567,4.597856332111405e-05 l-7.20498263835907,-2.062298357486725 -2.92672336101532,-1.6002452373504639 l-2.697969675064087,-2.2589804232120514 -1.9325411319732666,-2.568899393081665 l-1.1515872180461884,-2.791469693183899 -9.102463081944734e-05,-3.2245028018951416 l0.9157198667526245,-1.7989645898342133 m8.699895739555359,-4.743989109992981 l-0.9633968770503998,0.06348122376948595 -1.4411720633506775,1.3558056950569153 l-0.41351620107889175,1.4216367900371552 0.0002833056714734994,2.6410773396492004 l2.3154807090759277,1.8638035655021667 1.4653405547142029,0.27991071343421936 l2.653365433216095,-0.0006134415161795914 1.2694348394870758,-1.2676788866519928 l0.7367373257875443,-1.6509611904621124 0.00021411335183074698,-2.4082840979099274 l-1.142704039812088,-1.2524603307247162 -1.4499019086360931,-0.591835081577301 l-2.142289876937866,-0.00023615248210262507 m17.454253435134888,-0.6127995252609253 l-2.042527347803116,0.5686625838279724 -0.794370248913765,1.387639343738556 l0.0001415913357050158,2.589959502220154 1.3187816739082336,1.208774819970131 l1.4636196196079254,0.44828545302152634 2.3562848567962646,-0.00020659663277911022 l1.1788056045770645,-1.196301355957985 0.4095838591456413,-1.4013314247131348 l0.00017083142665796913,-1.857886165380478 -1.3226844370365143,-1.1170395463705063 l-2.342921644449234,-0.0005841469101142138 m-9.754030108451843,9.514775276184082 l0.7102838158607483,2.6891139149665833 1.2546272575855255,0.5950309708714485 l1.6074864566326141,-3.065851926803589 0.7587861269712448,-1.485159695148468 m-18.385982513427734,9.832819104194641 l-1.9909803569316864,3.851363956928253 -1.326221376657486,4.466293156147003 l-0.6510829925537109,4.5945873856544495 6.226163350220304e-05,6.839919686317444 l0.4358188062906265,2.951870560646057 1.351151168346405,4.157305657863617 l2.0129092037677765,3.791094720363617 2.587001323699951,3.2459574937820435 l3.0320996046066284,2.5065702199935913 3.557373881340027,1.7842882871627808 l4.3263643980026245,1.1695695668458939 5.971444249153137,0.00012477501513785683 l3.454836905002594,-1.233094185590744 2.8826573491096497,-1.7107288539409637 l2.293257713317871,-1.9842809438705444 2.743200361728668,-3.4732818603515625 l1.8022061884403229,-3.3570027351379395 1.534348875284195,-4.8998841643333435 l0.7605110108852386,-5.4414427280426025 0.0004115625051781535,-6.739168763160706 l-0.35145387053489685,-2.208620011806488 -1.8274685740470886,-4.758056104183197 l-1.1429517716169357,-2.2709763050079346 -0.865103006362915,-1.2990304827690125 m-28.900001049041748,2.588004767894745 l-0.24871068075299263,3.0554822087287903 -1.1185728013515472,5.518558025360107 l-1.4577068388462067,5.7512325048446655 -1.2483008205890656,3.5917916893959045 l-1.3879556953907013,2.856544852256775 -1.3901691138744354,2.1569953858852386 l-1.4610618352890015,1.6107596457004547 -1.4763684570789337,1.0454152524471283 l-1.3666297495365143,-0.2667263522744179 -1.2267595529556274,-2.4668963253498077 l-1.3253489136695862,-6.307399272918701 -8.777248581282038e-06,-5.0131213665008545 l1.2206698209047318,-7.3383402824401855 1.947644203901291,-5.280409455299377 l1.6826140880584717,-3.0955520272254944 2.174343913793564,-2.5393319129943848 l2.2520507872104645,-1.6027361154556274 m31.427454948425293,9.16658878326416 l0.6561845541000366,2.207537889480591 2.0605094730854034,4.592160284519196 l4.445013403892517,9.199516773223877 2.303806245326996,2.9472926259040833 l1.8409109115600586,0.8594217896461487 1.1014094948768616,-1.4400340616703033 l0.3878134489059448,-1.8874195218086243 8.749369044380728e-05,-5.90060830116272 l-0.8016256988048553,-4.252646863460541 -2.4852675199508667,-6.405597925186157 l-3.5283687710762024,-6.6012996435165405 -1.5613451600074768,-2.0066168904304504 " fill="none" stroke="black" stroke-width="1" /></svg>