<?xml version="1.0" encoding="utf-8" ?>
<svg baseProfile="full" height="152.4388550594449" version="1.1" width="141.49520352482796" xmlns="http://www.w3.org/2000/svg" xmlns:ev="http://www.w3.org/2001/xml-events" xmlns:xlink="http://www.w3.org/1999/xlink"><defs /><rect fill="white" height="152.4388550594449" width="141.49520352482796" x="0" y="0" /><path d="M66.98653787374496,67.97725497337524 m-4.54708456993103,-2.9738301038742065 l-8.88761043548584,-1.7345981299877167 -11.582338809967041,1.3390132784843445 l-7.26868212223053,4.238950312137604 -3.2552269101142883,2.819039225578308 l-4.011419117450714,5.555385947227478 -1.6277647018432617,4.1860151290893555 l-0.8064112067222595,7.660742402076721 2.35313817858696,8.435425162315369 l12.59840726852417,14.504871368408203 9.571644067764282,6.1751216650009155 l8.559144735336304,3.7048888206481934 14.114856719970703,4.017585217952728 l10.278230905532837,1.5262599289417267 13.18210482597351,0.006729862070642412 l7.5480735301971436,-1.4369015395641327 5.363563895225525,-2.5442853569984436 l5.6722211837768555,-6.605071425437927 1.723829060792923,-5.847100615501404 l0.5299891531467438,-9.461937546730042 -1.3231892883777618,-9.04376208782196 l-2.795815169811249,-7.75697648525238 -4.2916759848594666,-7.273934483528137 l-3.128991723060608,-3.8756054639816284 -3.6043301224708557,-2.8790920972824097 l-6.335327625274658,-3.647580146789551 -8.350533843040466,-3.2301825284957886 l-9.318987131118774,-2.2064954042434692 -9.622604846954346,-1.066223829984665 l-8.845043778419495,0.2615678682923317 -5.372036695480347,0.6362070888280869 m4.609905183315277,-2.225204110145569 l0.005472360062412918,-4.583551287651062 -0.12399591505527496,-9.966523051261902 l-0.007550792652182281,-9.593362212181091 m1.946839988231659,12.465728521347046 l1.4804846048355103,-4.668489098548889 2.8713813424110413,-7.6649874448776245 l1.4354610443115234,-5.499563217163086 -0.37641458213329315,-3.0995789170265198 l-1.7608852684497833,-1.625950187444687 m-2.353346049785614,12.986048460006714 l-1.077895388007164,-1.4606443047523499 -2.3339635133743286,-1.629805713891983 l-4.1020989418029785,-2.5979098677635193 0.5033893510699272,0.1808973215520382 l4.092180132865906,0.485287569463253 " fill="none" stroke="black" stroke-width="1" /></svg>