<?xml version="1.0" encoding="utf-8" ?>
<svg baseProfile="full" height="80.50785105675459" version="1.1" width="88.337298668921" xmlns="http://www.w3.org/2000/svg" xmlns:ev="http://www.w3.org/2001/xml-events" xmlns:xlink="http://www.w3.org/1999/xlink"><defs /><rect fill="white" height="80.50785105675459" width="88.337298668921" x="0" y="0" /><path d="M30.66960070282221,36.879163198173046 m-3.7797337770462036,0.2699809893965721 l-1.3499048352241516,-0.8099429309368134 0.2699809893965721,-0.5399619787931442 l1.8898668885231018,-0.5399619787931442 2.9697906970977783,-0.2699809893965721 l-4.319695830345154,-1.6198858618736267 -1.3499048352241516,0.2699809893965721 l0.2699809893965721,-3.5097527503967285 2.6998096704483032,-0.2699809893965721 l2.159847915172577,1.3499048352241516 2.159847915172577,-0.2699809893965721 l0.8099429309368134,-1.0799239575862885 0.0,-3.5097527503967285 l2.6998096704483032,-1.3499048352241516 0.5399619787931442,1.3499048352241516 l-1.3499048352241516,2.159847915172577 2.6998096704483032,-1.3499048352241516 l0.2699809893965721,-0.5399619787931442 0.5399619787931442,1.0799239575862885 l0.0,0.5399619787931442 -1.0799239575862885,1.0799239575862885 l-1.6198858618736267,1.0799239575862885 -1.0799239575862885,0.0 l-0.8099429309368134,0.5399619787931442 0.0,1.0799239575862885 l1.0799239575862885,0.8099429309368134 1.0799239575862885,2.159847915172577 l-0.5399619787931442,1.0799239575862885 0.0,1.3499048352241516 l0.5399619787931442,0.5399619787931442 6.209562420845032,0.0 l2.9697906970977783,-1.3499048352241516 0.5399619787931442,-0.8099429309368134 l1.0799239575862885,0.0 1.3499048352241516,-0.8099429309368134 l5.6696003675460815,-0.2699809893965721 2.42982879281044,1.3499048352241516 l3.2397717237472534,3.2397717237472534 0.5399619787931442,-0.8099429309368134 l1.0799239575862885,0.0 1.8898668885231018,-2.42982879281044 l0.2699809893965721,1.6198858618736267 -1.6198858618736267,1.6198858618736267 l-1.6198858618736267,0.5399619787931442 1.0799239575862885,4.049714803695679 l0.0,2.159847915172577 0.8099429309368134,2.42982879281044 l0.2699809893965721,4.589676558971405 0.5399619787931442,1.3499048352241516 l-1.3499048352241516,1.0799239575862885 -1.0799239575862885,-0.2699809893965721 l-0.5399619787931442,-0.8099429309368134 0.8099429309368134,-0.5399619787931442 l0.2699809893965721,-1.6198858618736267 -1.3499048352241516,-2.42982879281044 l-1.0799239575862885,-5.3996193408966064 -0.5399619787931442,-0.2699809893965721 l-0.2699809893965721,-1.0799239575862885 -1.8898668885231018,2.42982879281044 l0.0,1.0799239575862885 1.3499048352241516,2.42982879281044 l-0.2699809893965721,2.42982879281044 -0.5399619787931442,1.0799239575862885 l-2.159847915172577,1.6198858618736267 -0.8099429309368134,0.0 l-0.5399619787931442,-0.5399619787931442 0.0,-0.8099429309368134 l1.6198858618736267,-1.0799239575862885 0.5399619787931442,-1.6198858618736267 l-0.2699809893965721,-3.2397717237472534 -0.8099429309368134,-2.159847915172577 l0.8099429309368134,-3.5097527503967285 -1.6198858618736267,1.3499048352241516 l-1.8898668885231018,0.8099429309368134 -4.049714803695679,0.2699809893965721 l-2.9697906970977783,1.0799239575862885 -4.85965758562088,-0.5399619787931442 l-0.2699809893965721,-0.5399619787931442 0.2699809893965721,7.829448580741882 l-0.5399619787931442,1.8898668885231018 -0.8099429309368134,0.5399619787931442 l-3.2397717237472534,0.0 1.8898668885231018,-2.9697906970977783 l0.0,-4.85965758562088 0.5399619787931442,-1.0799239575862885 l0.0,-2.159847915172577 -1.3499048352241516,1.0799239575862885 l-1.3499048352241516,2.42982879281044 -2.159847915172577,2.42982879281044 l0.0,0.5399619787931442 -2.159847915172577,1.3499048352241516 l-0.5399619787931442,0.0 -0.5399619787931442,-0.8099429309368134 l0.2699809893965721,-0.8099429309368134 1.6198858618736267,-1.6198858618736267 l2.42982879281044,-1.6198858618736267 1.0799239575862885,-3.2397717237472534 l0.0,-1.0799239575862885 -0.8099429309368134,-1.8898668885231018 l-1.3499048352241516,-0.8099429309368134 -0.2699809893965721,-2.9697906970977783 l-0.5399619787931442,-0.8099429309368134 m1.3499048352241516,-2.6998096704483032 l-1.3499048352241516,-0.2699809893965721 m0.0,3.7797337770462036 l-1.3499048352241516,0.8099429309368134 0.8099429309368134,-0.2699809893965721 l0.5399619787931442,-0.8099429309368134 m15.928877592086792,2.6998096704483032 l-0.8099429309368134,0.2699809893965721 0.0,1.0799239575862885 l0.5399619787931442,0.5399619787931442 1.3499048352241516,-0.5399619787931442 l0.2699809893965721,-0.8099429309368134 -1.6198858618736267,0.5399619787931442 l-0.2699809893965721,1.3499048352241516 0.8099429309368134,0.5399619787931442 m4.589676558971405,-3.2397717237472534 l-0.5399619787931442,0.2699809893965721 -0.2699809893965721,1.8898668885231018 l1.0799239575862885,0.0 0.5399619787931442,-0.5399619787931442 l-0.2699809893965721,-0.5399619787931442 -0.8099429309368134,0.0 l-0.5399619787931442,0.5399619787931442 0.0,0.8099429309368134 l1.3499048352241516,-0.8099429309368134 m2.42982879281044,-2.159847915172577 l-0.5399619787931442,0.2699809893965721 0.0,1.8898668885231018 l0.5399619787931442,0.2699809893965721 0.5399619787931442,-1.0799239575862885 m-7.019505500793457,-2.42982879281044 l-0.8099429309368134,0.8099429309368134 0.2699809893965721,0.8099429309368134 l0.5399619787931442,0.2699809893965721 0.8099429309368134,-0.8099429309368134 l0.0,-0.5399619787931442 m2.42982879281044,-0.5399619787931442 l0.2699809893965721,0.8099429309368134 1.6198858618736267,0.2699809893965721 l0.8099429309368134,-0.2699809893965721 0.0,-0.8099429309368134 l-0.5399619787931442,0.0 m-9.989296197891235,3.7797337770462036 l0.2699809893965721,-0.2699809893965721 m-2.42982879281044,-1.6198858618736267 l-2.42982879281044,0.0 -0.8099429309368134,0.5399619787931442 l-1.0799239575862885,1.8898668885231018 0.2699809893965721,1.3499048352241516 l1.0799239575862885,0.0 1.3499048352241516,-1.0799239575862885 m-0.8099429309368134,-0.5399619787931442 l-0.2699809893965721,1.3499048352241516 0.5399619787931442,-0.5399619787931442 m-2.9697906970977783,-1.6198858618736267 l-1.3499048352241516,1.3499048352241516 1.3499048352241516,1.0799239575862885 l1.0799239575862885,-0.2699809893965721 m-0.2699809893965721,-2.9697906970977783 l0.5399619787931442,1.6198858618736267 2.42982879281044,1.0799239575862885 l2.9697906970977783,-0.5399619787931442 m0.2699809893965721,-0.8099429309368134 l-0.8099429309368134,0.8099429309368134 -0.5399619787931442,2.159847915172577 l0.5399619787931442,0.5399619787931442 1.3499048352241516,-0.2699809893965721 m1.0799239575862885,-2.42982879281044 l0.2699809893965721,1.6198858618736267 1.6198858618736267,0.0 l1.8898668885231018,-1.3499048352241516 m-2.42982879281044,-2.6998096704483032 l-1.3499048352241516,1.3499048352241516 0.2699809893965721,0.8099429309368134 m-2.159847915172577,-2.6998096704483032 l0.2699809893965721,0.8099429309368134 1.0799239575862885,0.8099429309368134 l2.159847915172577,0.2699809893965721 m6.749524474143982,-2.159847915172577 l0.2699809893965721,1.8898668885231018 0.8099429309368134,0.2699809893965721 l0.5399619787931442,-0.5399619787931442 " fill="none" stroke="black" stroke-width="1" /></svg>