<?xml version="1.0" encoding="utf-8" ?>
<svg baseProfile="full" height="95.3689152142033" version="1.1" width="74.39999282360077" xmlns="http://www.w3.org/2000/svg" xmlns:ev="http://www.w3.org/2001/xml-events" xmlns:xlink="http://www.w3.org/1999/xlink"><defs /><rect fill="white" height="95.3689152142033" width="74.39999282360077" x="0" y="0" /><path d="M25,50.56431659040754 m0.20779220387339592,0.04391743801534176 l1.63520947098732,0.919676274061203 1.1629901081323624,0.353701114654541 l2.76536762714386,0.6234455853700638 3.2383984327316284,0.346587635576725 l3.744332492351532,8.932771379477344e-05 1.9857113063335419,-0.35111401230096817 l1.4750279486179352,-0.47704756259918213 1.1846476048231125,-0.7112937420606613 l0.8102036267518997,-0.9763102233409882 0.6526675820350647,-1.8337030708789825 l0.15058851800858974,-2.1488873660564423 -0.36721911281347275,-2.139420211315155 l-0.9592217206954956,-1.912890076637268 -1.8047145009040833,-2.680322825908661 l-1.8676301836967468,-2.4363957345485687 -1.8056267499923706,-2.3748017847537994 l-1.6368749737739563,-2.410801202058792 -0.588553175330162,-1.5203779935836792 l-0.05493109114468098,-1.417621672153473 0.40642425417900085,-1.2820659577846527 l1.331409364938736,-1.7434301972389221 1.2384400516748428,-0.871068462729454 l1.2403453886508942,-0.41174009442329407 2.1930333971977234,-0.15244177542626858 l2.7116304636001587,0.5725683271884918 1.7115016281604767,0.829293429851532 l1.4778414368629456,1.1208249628543854 1.4582827687263489,1.9603919982910156 l0.51145039498806,1.13205187022686 0.1914682611823082,1.8961691856384277 l-0.1721554435789585,1.0823588818311691 -0.4444388672709465,0.7913902401924133 l-1.7456415295600891,0.8374395221471786 -1.695520281791687,-0.14662116765975952 l-1.5019482374191284,-1.0094636678695679 -1.0668043047189713,-1.3351774215698242 l-0.7321628928184509,-0.8939256519079208 -0.7011472433805466,-1.6042309999465942 l-0.4115627706050873,-0.849476233124733 -0.415736548602581,-0.642126202583313 l-0.5491350963711739,-0.6036349758505821 -0.8333713561296463,-0.6096842512488365 l-1.1619304865598679,-0.6088811904191971 -0.8196558058261871,-0.2524509094655514 l-1.086970642209053,-0.07295083720237017 -0.7969106733798981,0.22422969341278076 l-0.9622211009263992,0.8193643391132355 -0.5181241035461426,1.0676471143960953 l-0.12779299169778824,1.419864445924759 0.30053287744522095,1.646607518196106 l0.7933590561151505,1.7132318019866943 1.1149314045906067,1.5615999698638916 l1.4456883072853088,1.4167740941047668 1.8331000208854675,1.324961930513382 l1.006493866443634,1.0701711475849152 0.5949549749493599,0.979120284318924 l0.30755650252103806,0.9996586292982101 0.047720810398459435,1.0324286669492722 l-0.2345871925354004,0.9746524691581726 -0.523751825094223,0.8830008655786514 l-0.8120574802160263,0.7291363179683685 -1.7808619141578674,0.8103450387716293 l-2.5433480739593506,0.3437718003988266 -2.6305225491523743,-0.33407606184482574 l-1.7818313837051392,-0.9048311412334442 -0.6218114495277405,-0.6262444704771042 l-0.18157687038183212,-0.8760303258895874 m5.369354486465454,9.14014995098114 l0.2656818926334381,4.892715811729431 -0.17446955665946007,4.932396113872528 l-0.3963124379515648,2.533067464828491 -0.5226628109812737,1.6998569667339325 l-0.6637267768383026,1.2281209975481033 -0.7702774554491043,0.8002528548240662 l-1.4110864698886871,0.6355734169483185 1.1478768289089203,-0.4866339638829231 l1.9339008629322052,-0.8341767638921738 0.712505578994751,1.0302157700061798 l0.5176631361246109,1.9281275570392609 0.17726441845297813,-1.8148691952228546 l0.5312194675207138,-0.7385413348674774 1.346013993024826,0.9101564437150955 l1.4358986914157867,1.6383083164691925 -1.4897744357585907,-2.099118083715439 l-0.9212174266576767,-1.1168842762708664 -0.8916471898555756,-1.0074575990438461 l-1.067449003458023,-1.0091166198253632 -1.408424824476242,-1.1396366357803345 l-0.9457650780677795,-0.6343063712120056 m7.4479252099990845,-10.763128995895386 l0.9073594957590103,2.265593409538269 0.8056275546550751,3.254089057445526 l0.3963278979063034,3.3865749835968018 -0.8254615217447281,-0.0013835555000696331 l-1.9976907968521118,-0.7931037992238998 -2.077837288379669,-1.07425756752491 l-1.6673138737678528,-0.5451228842139244 -1.3511739671230316,-0.1236432883888483 l-1.1093927919864655,0.26679493486881256 -0.8569640666246414,0.5677832290530205 l-0.6316976994276047,0.9220695495605469 0.7965399324893951,-0.16899986192584038 l1.3111749291419983,-0.5053747817873955 0.2933102659881115,0.12649724259972572 " fill="none" stroke="black" stroke-width="1" /></svg>