<svg id="Layer_1" data-name="Layer 1" xmlns="http://www.w3.org/2000/svg" viewBox="0 0 830.2 716.94"><title>cat</title><path d="M166,456.18c6.76-49,13.74-98.47,30.29-145.28,8-22.71,18.19-46.38,32.64-65.85,2.6-3.5,6.55-7.25,11.2-4.28,3,1.89,4.9,5.28,6.93,8q6.77,9.16,13.52,18.32l25.27,34.26,57.59,78.06c1.14,1.54,3.74,0,2.59-1.51L290.8,303.06l-27.62-37.44L249.66,247.3c-2.84-3.85-5.92-9.21-10.93-10.44-10-2.46-16.51,12.73-20.46,19.38A285.78,285.78,0,0,0,200.79,291c-10.16,24.06-17.33,49.26-22.87,74.74-6.42,29.6-10.66,59.62-14.8,89.6C162.86,457.27,165.75,458.09,166,456.18Z" transform="translate(-120.87 -183.62)"/><path d="M353.72,374.75a600.79,600.79,0,0,1,242.59-10c1.89.31,2.7-2.58.8-2.89A604.05,604.05,0,0,0,407,360.9q-27.26,4.23-54,11C351.06,372.33,351.85,375.22,353.72,374.75Z" transform="translate(-120.87 -183.62)"/><path d="M628.87,356.08c31.39-43.82,58.33-91.49,96.22-130.27A253,253,0,0,1,755,199.44a146,146,0,0,1,16.94-11.36c9.75-5.32,15.55,5.54,19.63,12.82,7.32,13.09,11.47,27.65,14.92,42.17,3.71,15.62,7.07,31.33,10.44,47,8,37.11,14.93,74.48,18.1,112.33.16,1.91,3.16,1.93,3,0-2.94-35.19-9.13-70-16.38-104.52q-5.32-25.35-11.1-50.61c-3.39-14.83-7.24-29.72-14-43.41-5-10-12.9-25.69-26.11-18.39-12,6.64-23.2,15.7-33.45,24.82-20.93,18.63-38.64,40.56-55,63.23-19.17,26.58-36.58,54.38-55.67,81C625.15,356.13,627.75,357.63,628.87,356.08Z" transform="translate(-120.87 -183.62)"/><path d="M360.69,504.89a31.66,31.66,0,0,0-33.45,12.2c-1.14,1.56,1.46,3.06,2.59,1.51a28.56,28.56,0,0,1,30.06-10.82C361.77,508.25,362.56,505.36,360.69,504.89Z" transform="translate(-120.87 -183.62)"/><path d="M352.4,555.63c14.06,0,23.74-13.44,30.47-24,1-1.63-1.55-3.14-2.59-1.51-5.45,8.56-12,18.15-22.12,21.51-6.07,2-12.67.89-16.11-4.94-3.55-6-2-13.1.44-19.19.72-1.79-2.18-2.57-2.89-.8-2.65,6.64-4.06,14.27-.51,20.88A14.9,14.9,0,0,0,352.4,555.63Z" transform="translate(-120.87 -183.62)"/><path d="M358,518.21a1.5,1.5,0,0,0,0-3A1.5,1.5,0,0,0,358,518.21Z" transform="translate(-120.87 -183.62)"/><path d="M550.55,492.93c-1.89.42-1.09,3.31.79,2.9,15.44-3.4,33.37-2.63,42,12.69A32.27,32.27,0,0,1,589,546.05c-8.7,9.6-23.48,15.75-36.31,11.84-7.23-2.2-13.26-8-11.39-16.19,2.1-9.08,11.09-13.77,18.65-17.71,1.71-.9.19-3.48-1.52-2.59-10.31,5.38-25.62,15.68-19.11,29.59,4.92,10.51,19,12.36,29.13,10.18,25.49-5.51,42.09-35.07,25.22-57.66C583.47,489.86,565.79,489.58,550.55,492.93Z" transform="translate(-120.87 -183.62)"/><path d="M497,654.38c-5.91,3.84-14.47-2.28-19.33-5.71-9.54-6.72-17-15.92-24.36-24.89-1.23-1.5-3.34.64-2.13,2.12,9.2,11.28,18.94,23.11,32.22,29.72,5.1,2.54,11,5.31,15.73.88,4.31-4,6.33-10.47,6.09-16.22-.57-13.59-12.72-20.85-24.63-23.82-16.71-4.15-34.51-3.64-51.2.22-1.88.44-1.08,3.33.8,2.9a110.4,110.4,0,0,1,42.27-1.68c11.3,1.79,25.9,5.82,29.17,18.46C503,641.63,502.18,651,497,654.38Z" transform="translate(-120.87 -183.62)"/><path d="M555.8,719.41c-21-8.31-40.23-22.57-56.57-37.93-6.76-6.35-12.58-10.47-22-6.68-9.92,4-19.35,10.64-28.08,16.75-9.89,6.93-18.81,15.05-28.5,22.24-9.5,7-20.05,12.82-32.23,11.7-1.92-.18-1.91,2.82,0,3,20.78,1.92,36.55-14.59,51.55-26.4a239.34,239.34,0,0,1,30.81-20.61c6.33-3.57,13.36-7.83,20.32-3.19,5.1,3.4,9.33,8.53,14,12.51,28.91,24.62,76.39,55,110.89,23.24,8-7.39,14.26-16.52,20.2-25.6,6.27-9.61,12.86-19.77,12.23-31.71-.11-1.92-3.11-1.93-3,0,.61,11.65-6.13,21.5-12.24,30.83-5.27,8-10.78,16-17.67,22.8-7.94,7.78-17.7,13.31-28.91,14.41C576.11,725.79,565.54,723.27,555.8,719.41Z" transform="translate(-120.87 -183.62)"/><path d="M950.55,724.23A1200.17,1200.17,0,0,0,810.65,629C823.8,572,826.38,512.29,826,454q-.12-16.89-.5-33.77c0-1.93-3-1.93-3,0C824,489.17,823.49,560,808,627.48q-5.18-3-10.36-5.91-23.22-13.12-47-25.18c-1.72-.87-3.24,1.71-1.51,2.59q29.52,15,58.17,31.61a418.24,418.24,0,0,1-14.73,49.13c-3.45,9.29-7.3,18.5-11.54,27.56l-52.93-47.8c-1.43-1.29-3.55.82-2.12,2.12l53.72,48.52c-14.13,29.57-32.5,57.41-55,81.11q-18.24-20-36.17-40.32c-1.28-1.45-3.4.68-2.13,2.12q18,20.33,36.23,40.37c-19.17,19.76-41.27,36.53-66.27,48.85-39,19.21-82.69,26.12-125.73,28-40.73,1.81-82,.22-122.18-6.76-39.65-6.89-78.61-19.32-113.39-39.85a261.92,261.92,0,0,1-22.31-14.79A601.33,601.33,0,0,1,308,754.27c1.13-1.56-1.47-3.06-2.6-1.51a600.78,600.78,0,0,0-35.08,54.33,279.87,279.87,0,0,1-54.65-54.92,669.83,669.83,0,0,1,67.74-58.94c1.52-1.15,0-3.76-1.51-2.59a677.09,677.09,0,0,0-68,59.1c-.95-1.29-1.9-2.57-2.83-3.87a302,302,0,0,1-38.16-73.44q39.78-15.88,80.8-28.42c1.84-.56,1.05-3.46-.8-2.89q-41.1,12.55-81,28.5C154.17,618.76,149.34,563.51,156,509.69c1.39-11.11,3.29-22.16,5.61-33.12.39-1.88-2.5-2.69-2.9-.8-13.61,64.57-11.4,132.87,10.26,195q-23.92,9.63-47.36,20.46c-1.75.81-.23,3.39,1.51,2.59q23.18-10.71,46.84-20.23a302,302,0,0,0,41.73,78.28,673.4,673.4,0,0,0-50.37,56.49c-1.19,1.5.92,3.63,2.12,2.12a672.26,672.26,0,0,1,50.06-56.19,283.47,283.47,0,0,0,53.11,53.82c.72.55,1.46,1.08,2.18,1.62a604,604,0,0,0-35.18,73.42c-.71,1.79,2.19,2.57,2.89.8a596.36,596.36,0,0,1,34.71-72.42c31.29,23,67.41,38.55,104.93,48.17,39.67,10.16,80.8,14,121.67,14.19,43.34.23,87.55-2.85,129-16.44,37.84-12.42,70.55-34.29,97.64-62q48.7,53.36,99.56,104.69a1.5,1.5,0,0,0,2.12-2.12q-50.88-51.33-99.59-104.74c22.57-23.62,41.15-51.34,55.44-81.06l99.86,90.19c1.43,1.29,3.56-.82,2.12-2.12L783.34,709.38c.06-.14.13-.27.19-.41a396.81,396.81,0,0,0,26.41-76.84,1195.94,1195.94,0,0,1,138.49,94.22C949.93,727.53,952.07,725.42,950.55,724.23Z" transform="translate(-120.87 -183.62)"/></svg>